0
SECTION
2
HEADER
9
$INSUNITS
70
4
9
$ACADVER
1
AC1014
9
$HANDSEED
5
FFFF
0
ENDSEC
0
SECTION
2
TABLES
0
TABLE
2
VPORT
5
8
100
AcDbSymbolTable
0
ENDTAB
0
TABLE
2
LTYPE
5
5
100
AcDbSymbolTable
0
LTYPE
5
14
100
AcDbSymbolTableRecord
100
AcDbLinetypeTableRecord
2
BYBLOCK
70
0
0
LTYPE
5
15
100
AcDbSymbolTableRecord
100
AcDbLinetypeTableRecord
2
BYLAYER
70
0
0
ENDTAB
0
TABLE
2
LAYER
5
2
100
AcDbSymbolTable
70
2
0
LAYER
5
50
100
AcDbSymbolTableRecord
100
AcDbLayerTableRecord
2
0
70
0
6
CONTINUOUS
0
ENDTAB
0
TABLE
2
STYLE
5
3
100
AcDbSymbolTable
70
1
0
STYLE
5
11
100
AcDbSymbolTableRecord
100
AcDbTextStyleTableRecord
2
STANDARD
70
0
0
ENDTAB
0
TABLE
2
VIEW
5
6
100
AcDbSymbolTable
70
0
0
ENDTAB
0
TABLE
2
UCS
5
7
100
AcDbSymbolTable
70
0
0
ENDTAB
0
TABLE
2
APPID
5
9
100
AcDbSymbolTable
70
2
0
APPID
5
12
100
AcDbSymbolTableRecord
100
AcDbRegAppTableRecord
2
ACAD
70
0
0
ENDTAB
0
TABLE
2
DIMSTYLE
5
A
100
AcDbSymbolTable
70
1
0
ENDTAB
0
TABLE
2
BLOCK_RECORD
5
1
100
AcDbSymbolTable
70
1
0
BLOCK_RECORD
5
1F
100
AcDbSymbolTableRecord
100
AcDbBlockTableRecord
2
*MODEL_SPACE
0
BLOCK_RECORD
5
1B
100
AcDbSymbolTableRecord
100
AcDbBlockTableRecord
2
*PAPER_SPACE
0
ENDTAB
0
ENDSEC
0
SECTION
2
BLOCKS
0
BLOCK
5
20
100
AcDbEntity
100
AcDbBlockBegin
2
*MODEL_SPACE
0
ENDBLK
5
21
100
AcDbEntity
100
AcDbBlockEnd
0
BLOCK
5
1C
100
AcDbEntity
100
AcDbBlockBegin
2
*PAPER_SPACE
0
ENDBLK
5
1D
100
AcDbEntity
100
AcDbBlockEnd
0
ENDSEC
0
SECTION
2
ENTITIES
0
LWPOLYLINE
5
100
100
AcDbEntity
8
0
100
AcDbPolyline
90
18
70
1
43
0.0
10
21.842462605248457
20
0.38076118445748208
10
16.071394793382954
20
6.1518289963229211
42
-0.41421356237309576
10
16.07139479338295
20
7.9903066274079491
10
17.768451068230654
20
9.6873629022556536
42
-0.41421356237309492
10
19.606928699315681
20
9.6873629022556536
10
22.223223789705902
20
7.0710678118654258
10
118.48177705275461
20
103.32962107491423
42
0.1989123673796814
10
119.09685281226287
20
104.81454531540599
10
119.09685281226287
20
110.77134442040693
42
-0.26579436182904126
10
120.13225360014471
20
112.58149041384428
10
125.84850064847373
20
115.94338062932232
42
-0.63990186950520511
10
127.34026040725652
20
114.90775816906618
10
126.8483547498205
20
112.11802255708216
10
136.69643227994266
20
110.38154078041282
10
145.37884116329028
20
159.62192843102304
10
155.37884116329028
20
159.62192843102304
10
155.3788411632903
20
2.070759876205156e-29
10
22.76170142079096
20
-1.2490009027033011e-15
42
-0.19891236737965706
0
LWPOLYLINE
5
101
100
AcDbEntity
8
0
100
AcDbPolyline
90
3
70
1
43
0.0
10
135.37884116329028
20
20
10
63.436427225302467
20
20
10
135.37884116329028
20
91.942413937987837
0
CIRCLE
5
102
100
AcDbEntity
8
0
100
AcDbCircle
10
45
20
10
30
0
40
2
0
CIRCLE
5
103
100
AcDbEntity
8
0
100
AcDbCircle
10
145
20
10
30
0
40
2
0
CIRCLE
5
104
100
AcDbEntity
8
0
100
AcDbCircle
10
100
20
10
30
0
40
2
0
CIRCLE
5
105
100
AcDbEntity
8
0
100
AcDbCircle
10
150
20
150
30
0
40
2
0
CIRCLE
5
106
100
AcDbEntity
8
0
100
AcDbCircle
10
145
20
105
30
0
40
2
0
CIRCLE
5
107
100
AcDbEntity
8
0
100
AcDbCircle
10
145
20
65
30
0
40
2
0
CIRCLE
5
108
100
AcDbEntity
8
0
100
AcDbCircle
10
85.000000000000014
20
55.000000000000014
30
0
40
2
0
ENDSEC
0
SECTION
2
OBJECTS
0
DICTIONARY
5
C
100
AcDbDictionary
3
ACAD_GROUP
350
D
3
ACAD_MLINESTYLE
350
17
0
DICTIONARY
5
D
100
AcDbDictionary
0
DICTIONARY
5
1A
330
C
100
AcDbDictionary
0
DICTIONARY
5
17
100
AcDbDictionary
0
ENDSEC
0
EOF
