0
SECTION
2
HEADER
9
$ACADVER
1
AC1009
0
ENDSEC
0
SECTION
2
TABLES
0
TABLE
2
VPORT
70
1
0
VPORT
2
ACTIVE
70
0
10
0.0
20
0.0
11
0.0
21
0.0
12
0.0
22
0.0
13
0.0
23
0.0
14
0.0
24
0.0
15
0.0
25
0.0
16
0.0
26
0.0
36
0.0
17
0.0
27
0.0
37
0.0
40
0.0
41
0.0
42
0.0
43
0.0
44
0.0
50
0.0
51
0.0
71
0
72
1000
73
1
74
3
75
0
76
0
77
0
78
0
0
ENDTAB
0
ENDSEC
0
SECTION
2
ENTITIES
0
LINE
8
hole
62
5
39
2
10
24.314594
20
104.369281
11
24.886094
21
104.369281
0
LINE
8
hole
62
5
39
2
10
24.886094
20
104.369281
11
24.886094
21
104.940781
0
LINE
8
hole
62
5
39
2
10
24.886094
20
104.940781
11
24.314594
21
104.940781
0
LINE
8
hole
62
5
39
2
10
24.314594
20
104.940781
11
24.314594
21
104.369281
0
LINE
8
hole
62
5
39
2
10
104.366124
20
182.618138
11
104.937624
21
182.618138
0
LINE
8
hole
62
5
39
2
10
104.937624
20
182.618138
11
104.937624
21
183.189638
0
LINE
8
hole
62
5
39
2
10
104.937624
20
183.189638
11
104.366124
21
183.189638
0
LINE
8
hole
62
5
39
2
10
104.366124
20
183.189638
11
104.366124
21
182.618138
0
LINE
8
hole
62
5
39
2
10
104.366124
20
26.120426
11
104.937624
21
26.120426
0
LINE
8
hole
62
5
39
2
10
104.937624
20
26.120426
11
104.937624
21
26.691926
0
LINE
8
hole
62
5
39
2
10
104.937624
20
26.691926
11
104.366124
21
26.691926
0
LINE
8
hole
62
5
39
2
10
104.366124
20
26.691926
11
104.366124
21
26.120426
0
LINE
8
hole
62
5
39
2
10
184.417343
20
104.369281
11
184.988843
21
104.369281
0
LINE
8
hole
62
5
39
2
10
184.988843
20
104.369281
11
184.988843
21
104.940781
0
LINE
8
hole
62
5
39
2
10
184.988843
20
104.940781
11
184.417343
21
104.940781
0
LINE
8
hole
62
5
39
2
10
184.417343
20
104.940781
11
184.417343
21
104.369281
0
LINE
8
hole
62
5
39
2
10
63.491409
20
51.561673
11
61.799886
21
52.917078
0
LINE
8
hole
62
5
39
2
10
61.799886
20
52.917078
11
60.138532
21
54.339522
0
LINE
8
hole
62
5
39
2
10
60.138532
20
54.339522
11
58.524366
21
55.815299
0
LINE
8
hole
62
5
39
2
10
58.524366
20
55.815299
11
56.959077
21
57.342837
0
LINE
8
hole
62
5
39
2
10
56.959077
20
57.342837
11
55.444341
21
58.920528
0
LINE
8
hole
62
5
39
2
10
55.444341
20
58.920528
11
53.994658
21
60.532342
0
LINE
8
hole
62
5
39
2
10
53.994658
20
60.532342
11
52.585529
21
62.204566
0
LINE
8
hole
62
5
39
2
10
52.585529
20
62.204566
11
51.219297
21
63.937325
0
LINE
8
hole
62
5
39
2
10
51.219297
20
63.937325
11
49.922258
21
65.698339
0
LINE
8
hole
62
5
39
2
10
49.922258
20
65.698339
11
48.683226
21
67.500647
0
LINE
8
hole
62
5
39
2
10
48.683226
20
67.500647
11
47.513944
21
69.326035
0
LINE
8
hole
62
5
39
2
10
47.513944
20
69.326035
11
46.384423
21
71.221318
0
LINE
8
hole
62
5
39
2
10
46.384423
20
71.221318
11
45.327039
21
73.135837
0
LINE
8
hole
62
5
39
2
10
45.327039
20
73.135837
11
44.332541
21
75.083764
0
LINE
8
hole
62
5
39
2
10
44.332541
20
75.083764
11
43.410232
21
77.045438
0
LINE
8
hole
62
5
39
2
10
43.410232
20
77.045438
11
42.536296
21
79.071564
0
LINE
8
hole
62
5
39
2
10
42.536296
20
79.071564
11
41.731744
21
81.119826
0
LINE
8
hole
62
5
39
2
10
41.731744
20
81.119826
11
41.003374
21
83.167650
0
LINE
8
hole
62
5
39
2
10
41.003374
20
83.167650
11
40.337695
21
85.250992
0
LINE
8
hole
62
5
39
2
10
40.337695
20
85.250992
11
39.740177
21
87.354906
0
LINE
8
hole
62
5
39
2
10
39.740177
20
87.354906
11
39.211459
21
89.477164
0
LINE
8
hole
62
5
39
2
10
39.211459
20
89.477164
11
38.756159
21
91.596590
0
LINE
8
hole
62
5
39
2
10
38.756159
20
91.596590
11
38.362599
21
93.767542
0
LINE
8
hole
62
5
39
2
10
38.362599
20
93.767542
11
38.046192
21
95.911945
0
LINE
8
hole
62
5
39
2
10
38.046192
20
95.911945
11
37.794678
21
98.104155
0
LINE
8
hole
62
5
39
2
10
37.794678
20
98.104155
11
37.616888
21
100.284037
0
LINE
8
hole
62
5
39
2
10
37.616888
20
100.284037
11
37.511089
21
102.449186
0
LINE
8
hole
62
5
39
2
10
37.511089
20
102.449186
11
37.474557
21
104.655411
0
LINE
8
hole
62
5
39
2
10
37.474557
20
104.655411
11
37.509834
21
106.822607
0
LINE
8
hole
62
5
39
2
10
37.509834
20
106.822607
11
37.616926
21
109.026596
0
LINE
8
hole
62
5
39
2
10
37.616926
20
109.026596
11
37.793153
21
111.187073
0
LINE
8
hole
62
5
39
2
10
37.793153
20
111.187073
11
38.041214
21
113.360113
0
LINE
8
hole
62
5
39
2
10
38.041214
20
113.360113
11
38.362706
21
115.543119
0
LINE
8
hole
62
5
39
2
10
38.362706
20
115.543119
11
38.748819
21
117.676357
0
LINE
8
hole
62
5
39
2
10
38.748819
20
117.676357
11
39.211584
21
119.833463
0
LINE
8
hole
62
5
39
2
10
39.211584
20
119.833463
11
39.735617
21
121.936808
0
LINE
8
hole
62
5
39
2
10
39.735617
20
121.936808
11
40.332544
21
124.040910
0
LINE
8
hole
62
5
39
2
10
40.332544
20
124.040910
11
40.997666
21
126.124493
0
LINE
8
hole
62
5
39
2
10
40.997666
20
126.124493
11
41.725588
21
128.172866
0
LINE
8
hole
62
5
39
2
10
41.725588
20
128.172866
11
42.529355
21
130.220799
0
LINE
8
hole
62
5
39
2
10
42.529355
20
130.220799
11
43.394484
21
132.229654
0
LINE
8
hole
62
5
39
2
10
43.394484
20
132.229654
11
44.332790
21
134.226810
0
LINE
8
hole
62
5
39
2
10
44.332790
20
134.226810
11
45.318486
21
136.157430
0
LINE
8
hole
62
5
39
2
10
45.318486
20
136.157430
11
46.375373
21
138.072318
0
LINE
8
hole
62
5
39
2
10
46.375373
20
138.072318
11
47.494059
21
139.951838
0
LINE
8
hole
62
5
39
2
10
47.494059
20
139.951838
11
48.683545
21
141.809901
0
LINE
8
hole
62
5
39
2
10
48.683545
20
141.809901
11
49.911554
21
143.596136
0
LINE
8
hole
62
5
39
2
10
49.911554
20
143.596136
11
51.208115
21
145.357533
0
LINE
8
hole
62
5
39
2
10
51.208115
20
145.357533
11
52.561342
21
147.075810
0
LINE
8
hole
62
5
39
2
10
52.561342
20
147.075810
11
53.982251
21
148.763942
0
LINE
8
hole
62
5
39
2
10
53.982251
20
148.763942
11
55.444743
21
150.389969
0
LINE
8
hole
62
5
39
2
10
55.444743
20
150.389969
11
56.945987
21
151.953572
0
LINE
8
hole
62
5
39
2
10
56.945987
20
151.953572
11
58.510849
21
153.481557
0
LINE
8
hole
62
5
39
2
10
58.510849
20
153.481557
11
60.124633
21
154.957809
0
LINE
8
hole
62
5
39
2
10
60.124633
20
154.957809
11
61.785649
21
156.380774
0
LINE
8
hole
62
5
39
2
10
61.785649
20
156.380774
11
63.492144
21
157.748953
0
LINE
8
hole
62
5
39
2
10
63.492144
20
157.748953
11
65.241842
21
159.060551
0
LINE
8
hole
62
5
39
2
10
65.241842
20
159.060551
11
67.049583
21
160.325891
0
LINE
8
hole
62
5
39
2
10
67.049583
20
160.325891
11
68.881598
21
161.520552
0
LINE
8
hole
62
5
39
2
10
68.881598
20
161.520552
11
70.751536
21
162.654953
0
LINE
8
hole
62
5
39
2
10
70.751536
20
162.654953
11
72.640583
21
163.718417
0
LINE
8
hole
62
5
39
2
10
72.640583
20
163.718417
11
74.597060
21
164.738163
0
LINE
8
hole
62
5
39
2
10
74.597060
20
164.738163
11
76.551119
21
165.676378
0
LINE
8
hole
62
5
39
2
10
76.551119
20
165.676378
11
78.552270
21
166.558940
0
LINE
8
hole
62
5
39
2
10
78.552270
20
166.558940
11
80.581113
21
167.375901
0
LINE
8
hole
62
5
39
2
10
80.581113
20
167.375901
11
82.635509
21
168.126410
0
LINE
8
hole
62
5
39
2
10
82.635509
20
168.126410
11
84.713293
21
168.809655
0
LINE
8
hole
62
5
39
2
10
84.713293
20
168.809655
11
86.811714
21
169.424766
0
LINE
8
hole
62
5
39
2
10
86.811714
20
169.424766
11
88.929429
21
169.971352
0
LINE
8
hole
62
5
39
2
10
88.929429
20
169.971352
11
91.082813
21
170.452969
0
LINE
8
hole
62
5
39
2
10
91.082813
20
170.452969
11
93.212666
21
170.856367
0
LINE
8
hole
62
5
39
2
10
93.212666
20
170.856367
11
95.392778
21
171.196841
0
LINE
8
hole
62
5
39
2
10
95.392778
20
171.196841
11
97.563478
21
171.463158
0
LINE
8
hole
62
5
39
2
10
97.563478
20
171.463158
11
99.741829
21
171.658701
0
LINE
8
hole
62
5
39
2
10
99.741829
20
171.658701
11
101.905963
21
171.782111
0
LINE
8
hole
62
5
39
2
10
101.905963
20
171.782111
11
104.092311
21
171.836133
0
LINE
8
hole
62
5
39
2
10
104.092311
20
171.836133
11
106.298326
21
171.818818
0
LINE
8
hole
62
5
39
2
10
106.298326
20
171.818818
11
108.464418
21
171.730627
0
LINE
8
hole
62
5
39
2
10
108.464418
20
171.730627
11
110.664897
21
171.569781
0
LINE
8
hole
62
5
39
2
10
110.664897
20
171.569781
11
112.839671
21
171.338830
0
LINE
8
hole
62
5
39
2
10
112.839671
20
171.338830
11
114.986537
21
171.039894
0
LINE
8
hole
62
5
39
2
10
114.986537
20
171.039894
11
117.142176
21
170.668479
0
LINE
8
hole
62
5
39
2
10
117.142176
20
170.668479
11
119.303109
21
170.223265
0
LINE
8
hole
62
5
39
2
10
119.303109
20
170.223265
11
121.429614
21
169.711832
0
LINE
8
hole
62
5
39
2
10
121.429614
20
169.711832
11
123.538215
21
169.131491
0
LINE
8
hole
62
5
39
2
10
123.538215
20
169.131491
11
125.608558
21
168.488483
0
LINE
8
hole
62
5
39
2
10
125.608558
20
168.488483
11
127.693396
21
167.766439
0
LINE
8
hole
62
5
39
2
10
127.693396
20
167.766439
11
129.717195
21
166.990214
0
LINE
8
hole
62
5
39
2
10
129.717195
20
166.990214
11
131.732935
21
166.141516
0
LINE
8
hole
62
5
39
2
10
131.732935
20
166.141516
11
133.720201
21
165.227543
0
LINE
8
hole
62
5
39
2
10
133.720201
20
165.227543
11
135.693585
21
164.240915
0
LINE
8
hole
62
5
39
2
10
135.693585
20
164.240915
11
137.599480
21
163.208451
0
LINE
8
hole
62
5
39
2
10
137.599480
20
163.208451
11
139.487916
21
162.105208
0
LINE
8
hole
62
5
39
2
10
139.487916
20
162.105208
11
141.339764
21
160.940862
0
LINE
8
hole
62
5
39
2
10
141.339764
20
160.940862
11
143.168321
21
159.706326
0
LINE
8
hole
62
5
39
2
10
143.168321
20
159.706326
11
144.939745
21
158.423721
0
LINE
8
hole
62
5
39
2
10
144.939745
20
158.423721
11
146.653135
21
157.096034
0
LINE
8
hole
62
5
39
2
10
146.653135
20
157.096034
11
148.338054
21
155.701126
0
LINE
8
hole
62
5
39
2
10
148.338054
20
155.701126
11
149.990859
21
154.239572
0
LINE
8
hole
62
5
39
2
10
149.990859
20
154.239572
11
151.566834
21
152.750925
0
LINE
8
hole
62
5
39
2
10
151.566834
20
152.750925
11
153.121037
21
151.184916
0
LINE
8
hole
62
5
39
2
10
153.121037
20
151.184916
11
154.609828
21
149.582891
0
LINE
8
hole
62
5
39
2
10
154.609828
20
149.582891
11
156.033138
21
147.947669
0
LINE
8
hole
62
5
39
2
10
156.033138
20
147.947669
11
157.427306
21
146.237485
0
LINE
8
hole
62
5
39
2
10
157.427306
20
146.237485
11
158.752754
21
144.497944
0
LINE
8
hole
62
5
39
2
10
158.752754
20
144.497944
11
160.020919
21
142.716151
0
LINE
8
hole
62
5
39
2
10
160.020919
20
142.716151
11
161.219694
21
140.910170
0
LINE
8
hole
62
5
39
2
10
161.219694
20
140.910170
11
162.369818
21
139.049911
0
LINE
8
hole
62
5
39
2
10
162.369818
20
139.049911
11
163.458781
21
137.153198
0
LINE
8
hole
62
5
39
2
10
163.458781
20
137.153198
11
164.485422
21
135.222047
0
LINE
8
hole
62
5
39
2
10
164.485422
20
135.222047
11
165.448813
21
133.258179
0
LINE
8
hole
62
5
39
2
10
165.448813
20
133.258179
11
166.355534
21
131.246763
0
LINE
8
hole
62
5
39
2
10
166.355534
20
131.246763
11
167.188363
21
129.224542
0
LINE
8
hole
62
5
39
2
10
167.188363
20
129.224542
11
167.948116
21
127.194472
0
LINE
8
hole
62
5
39
2
10
167.948116
20
127.194472
11
168.648326
21
125.122172
0
LINE
8
hole
62
5
39
2
10
168.648326
20
125.122172
11
169.286137
21
123.010186
0
LINE
8
hole
62
5
39
2
10
169.286137
20
123.010186
11
169.844355
21
120.915594
0
LINE
8
hole
62
5
39
2
10
169.844355
20
120.915594
11
170.339081
21
118.785222
0
LINE
8
hole
62
5
39
2
10
170.339081
20
118.785222
11
170.764210
21
116.639852
0
LINE
8
hole
62
5
39
2
10
170.764210
20
116.639852
11
171.119333
21
114.481477
0
LINE
8
hole
62
5
39
2
10
171.119333
20
114.481477
11
171.406475
21
112.293780
0
LINE
8
hole
62
5
39
2
10
171.406475
20
112.293780
11
171.619725
21
110.117346
0
LINE
8
hole
62
5
39
2
10
171.619725
20
110.117346
11
171.760778
21
107.954276
0
LINE
8
hole
62
5
39
2
10
171.760778
20
107.954276
11
171.832615
21
105.768384
0
LINE
8
hole
62
5
39
2
10
171.832615
20
105.768384
11
171.833255
21
103.580988
0
LINE
8
hole
62
5
39
2
10
171.833255
20
103.580988
11
171.762062
21
101.375681
0
LINE
8
hole
62
5
39
2
10
171.762062
20
101.375681
11
171.619789
21
99.193474
0
LINE
8
hole
62
5
39
2
10
171.619789
20
99.193474
11
171.408428
21
97.036103
0
LINE
8
hole
62
5
39
2
10
171.408428
20
97.036103
11
171.125021
21
94.867166
0
LINE
8
hole
62
5
39
2
10
171.125021
20
94.867166
11
170.768075
21
92.689803
0
LINE
8
hole
62
5
39
2
10
170.768075
20
92.689803
11
170.343579
21
90.544279
0
LINE
8
hole
62
5
39
2
10
170.343579
20
90.544279
11
169.849474
21
88.413715
0
LINE
8
hole
62
5
39
2
10
169.849474
20
88.413715
11
169.286342
21
86.300606
0
LINE
8
hole
62
5
39
2
10
169.286342
20
86.300606
11
168.660196
21
84.225023
0
LINE
8
hole
62
5
39
2
10
168.660196
20
84.225023
11
167.955109
21
82.134311
0
LINE
8
hole
62
5
39
2
10
167.955109
20
82.134311
11
167.188570
21
80.086052
0
LINE
8
hole
62
5
39
2
10
167.188570
20
80.086052
11
166.363163
21
78.081793
0
LINE
8
hole
62
5
39
2
10
166.363163
20
78.081793
11
165.465355
21
76.087054
0
LINE
8
hole
62
5
39
2
10
165.465355
20
76.087054
11
164.494812
21
74.105716
0
LINE
8
hole
62
5
39
2
10
164.494812
20
74.105716
11
163.468719
21
72.174217
0
LINE
8
hole
62
5
39
2
10
163.468719
20
72.174217
11
162.380307
21
70.277148
0
LINE
8
hole
62
5
39
2
10
162.380307
20
70.277148
11
161.230720
21
68.416518
0
LINE
8
hole
62
5
39
2
10
161.230720
20
68.416518
11
160.021262
21
66.594404
0
LINE
8
hole
62
5
39
2
10
160.021262
20
66.594404
11
158.764381
21
64.828419
0
LINE
8
hole
62
5
39
2
10
158.764381
20
64.828419
11
157.439391
21
63.088433
0
LINE
8
hole
62
5
39
2
10
157.439391
20
63.088433
11
156.058258
21
61.392223
0
LINE
8
hole
62
5
39
2
10
156.058258
20
61.392223
11
154.610209
21
59.727593
0
LINE
8
hole
62
5
39
2
10
154.610209
20
59.727593
11
153.134666
21
58.139791
0
LINE
8
hole
62
5
39
2
10
153.134666
20
58.139791
11
151.594643
21
56.586276
0
LINE
8
hole
62
5
39
2
10
151.594643
20
56.586276
11
149.991301
21
55.070898
0
LINE
8
hole
62
5
39
2
10
149.991301
20
55.070898
11
148.367670
21
53.634292
0
LINE
8
hole
62
5
39
2
10
148.367670
20
53.634292
11
146.668918
21
52.226274
0
LINE
8
hole
62
5
39
2
10
146.668918
20
52.226274
11
144.940206
21
50.886686
0
LINE
8
hole
62
5
39
2
10
144.940206
20
50.886686
11
143.184549
21
49.615475
0
LINE
8
hole
62
5
39
2
10
143.184549
20
49.615475
11
141.372318
21
48.390431
0
LINE
8
hole
62
5
39
2
10
141.372318
20
48.390431
11
139.505187
21
47.214971
0
LINE
8
hole
62
5
39
2
10
139.505187
20
47.214971
11
137.617046
21
46.111138
0
LINE
8
hole
62
5
39
2
10
137.617046
20
46.111138
11
135.694093
21
45.069409
0
LINE
8
hole
62
5
39
2
10
135.694093
20
45.069409
11
133.755347
21
44.099395
0
LINE
8
hole
62
5
39
2
10
133.755347
20
44.099395
11
131.751398
21
43.176346
0
LINE
8
hole
62
5
39
2
10
131.751398
20
43.176346
11
129.735896
21
42.327035
0
LINE
8
hole
62
5
39
2
10
129.735896
20
42.327035
11
127.693938
21
41.543821
0
LINE
8
hole
62
5
39
2
10
127.693938
20
41.543821
11
125.645612
21
40.833756
0
LINE
8
hole
62
5
39
2
10
125.645612
20
40.833756
11
123.538769
21
40.178735
0
LINE
8
hole
62
5
39
2
10
123.538769
20
40.178735
11
121.448925
21
39.603530
0
LINE
8
hole
62
5
39
2
10
121.448925
20
39.603530
11
119.322577
21
39.091460
0
LINE
8
hole
62
5
39
2
10
119.322577
20
39.091460
11
117.180476
21
38.648842
0
LINE
8
hole
62
5
39
2
10
117.180476
20
38.648842
11
115.006331
21
38.272937
0
LINE
8
hole
62
5
39
2
10
115.006331
20
38.272937
11
112.840237
21
37.971296
0
LINE
8
hole
62
5
39
2
10
112.840237
20
37.971296
11
110.684794
21
37.742381
0
LINE
8
hole
62
5
39
2
10
110.684794
20
37.742381
11
108.503220
21
37.581652
0
LINE
8
hole
62
5
39
2
10
108.503220
20
37.581652
11
106.298931
21
37.491264
0
LINE
8
hole
62
5
39
2
10
106.298931
20
37.491264
11
104.130922
21
37.473613
0
LINE
8
hole
62
5
39
2
10
104.130922
20
37.473613
11
101.924829
21
37.526856
0
LINE
8
hole
62
5
39
2
10
101.924829
20
37.526856
11
99.741255
21
37.651408
0
LINE
8
hole
62
5
39
2
10
99.741255
20
37.651408
11
97.582199
21
37.845233
0
LINE
8
hole
62
5
39
2
10
97.582199
20
37.845233
11
95.411172
21
38.110978
0
LINE
8
hole
62
5
39
2
10
95.411172
20
38.110978
11
93.250408
21
38.447174
0
LINE
8
hole
62
5
39
2
10
93.250408
20
38.447174
11
91.082252
21
38.857209
0
LINE
8
hole
62
5
39
2
10
91.082252
20
38.857209
11
88.966723
21
39.329734
0
LINE
8
hole
62
5
39
2
10
88.966723
20
39.329734
11
86.829853
21
39.879973
0
LINE
8
hole
62
5
39
2
10
86.829853
20
39.879973
11
84.730860
21
40.494621
0
LINE
8
hole
62
5
39
2
10
84.730860
20
40.494621
11
82.653127
21
41.177206
0
LINE
8
hole
62
5
39
2
10
82.653127
20
41.177206
11
80.598596
21
41.927115
0
LINE
8
hole
62
5
39
2
10
80.598596
20
41.927115
11
78.569558
21
42.743495
0
LINE
8
hole
62
5
39
2
10
78.569558
20
42.743495
11
76.568162
21
43.625488
0
LINE
8
hole
62
5
39
2
10
76.568162
20
43.625488
11
74.596528
21
44.572169
0
LINE
8
hole
62
5
39
2
10
74.596528
20
44.572169
11
72.673860
21
45.573618
0
LINE
8
hole
62
5
39
2
10
72.673860
20
45.573618
11
70.751023
21
46.655400
0
LINE
8
hole
62
5
39
2
10
70.751023
20
46.655400
11
68.897772
21
47.779710
0
LINE
8
hole
62
5
39
2
10
68.897772
20
47.779710
11
67.065412
21
48.973864
0
LINE
8
hole
62
5
39
2
10
67.065412
20
48.973864
11
65.272876
21
50.227041
0
LINE
8
hole
62
5
39
2
10
65.272876
20
50.227041
11
63.506560
21
51.549533
0
LINE
8
hole
62
5
39
2
10
63.506560
20
51.549533
11
63.491409
21
51.561673
0
LINE
8
boundary
62
5
39
2
10
33.590116
20
34.203716
11
35.921216
21
31.927544
0
LINE
8
boundary
62
5
39
2
10
35.921216
20
31.927544
11
38.345971
21
29.709438
0
LINE
8
boundary
62
5
39
2
10
38.345971
20
29.709438
11
40.820550
21
27.590709
0
LINE
8
boundary
62
5
39
2
10
40.820550
20
27.590709
11
43.362796
21
25.553647
0
LINE
8
boundary
62
5
39
2
10
43.362796
20
25.553647
11
45.969913
21
23.600474
0
LINE
8
boundary
62
5
39
2
10
45.969913
20
23.600474
11
48.639225
21
21.733194
0
LINE
8
boundary
62
5
39
2
10
48.639225
20
21.733194
11
51.343909
21
19.969440
0
LINE
8
boundary
62
5
39
2
10
51.343909
20
19.969440
11
54.128880
21
18.278790
0
LINE
8
boundary
62
5
39
2
10
54.128880
20
18.278790
11
56.991973
21
16.665883
0
LINE
8
boundary
62
5
39
2
10
56.991973
20
16.665883
11
59.855997
21
15.174131
0
LINE
8
boundary
62
5
39
2
10
59.855997
20
15.174131
11
62.818138
21
13.750845
0
LINE
8
boundary
62
5
39
2
10
62.818138
20
13.750845
11
65.799028
21
12.437213
0
LINE
8
boundary
62
5
39
2
10
65.799028
20
12.437213
11
68.794868
21
11.231836
0
LINE
8
boundary
62
5
39
2
10
68.794868
20
11.231836
11
71.881497
21
10.104246
0
LINE
8
boundary
62
5
39
2
10
71.881497
20
10.104246
11
74.949417
21
9.096355
0
LINE
8
boundary
62
5
39
2
10
74.949417
20
9.096355
11
78.102965
21
8.171957
0
LINE
8
boundary
62
5
39
2
10
78.102965
20
8.171957
11
81.229868
21
7.365835
0
LINE
8
boundary
62
5
39
2
10
81.229868
20
7.365835
11
84.436788
21
6.648596
0
LINE
8
boundary
62
5
39
2
10
84.436788
20
6.648596
11
87.609608
21
6.047616
0
LINE
8
boundary
62
5
39
2
10
87.609608
20
6.047616
11
90.856495
21
5.540536
0
LINE
8
boundary
62
5
39
2
10
90.856495
20
5.540536
11
94.061404
21
5.147320
0
LINE
8
boundary
62
5
39
2
10
94.061404
20
5.147320
11
97.306247
21
4.855080
0
LINE
8
boundary
62
5
39
2
10
97.306247
20
4.855080
11
100.586913
21
4.667047
0
LINE
8
boundary
62
5
39
2
10
100.586913
20
4.667047
11
103.815248
21
4.588200
0
LINE
8
boundary
62
5
39
2
10
103.815248
20
4.588200
11
107.101740
21
4.614018
0
LINE
8
boundary
62
5
39
2
10
107.101740
20
4.614018
11
110.327918
21
4.745387
0
LINE
8
boundary
62
5
39
2
10
110.327918
20
4.745387
11
113.576938
21
4.982868
0
LINE
8
boundary
62
5
39
2
10
113.576938
20
4.982868
11
116.845186
21
5.329031
0
LINE
8
boundary
62
5
39
2
10
116.845186
20
5.329031
11
120.043179
21
5.774357
0
LINE
8
boundary
62
5
39
2
10
120.043179
20
5.774357
11
123.253846
21
6.327566
0
LINE
8
boundary
62
5
39
2
10
123.253846
20
6.327566
11
126.472382
21
6.990704
0
LINE
8
boundary
62
5
39
2
10
126.472382
20
6.990704
11
129.639855
21
7.752518
0
LINE
8
boundary
62
5
39
2
10
129.639855
20
7.752518
11
132.752941
21
8.609340
0
LINE
8
boundary
62
5
39
2
10
132.752941
20
8.609340
11
135.891759
21
9.583229
0
LINE
8
boundary
62
5
39
2
10
135.891759
20
9.583229
11
138.942598
21
10.640824
0
LINE
8
boundary
62
5
39
2
10
138.942598
20
10.640824
11
142.011398
21
11.816883
0
LINE
8
boundary
62
5
39
2
10
142.011398
20
11.816883
11
144.986960
21
13.070726
0
LINE
8
boundary
62
5
39
2
10
144.986960
20
13.070726
11
147.946627
21
14.431938
0
LINE
8
boundary
62
5
39
2
10
147.946627
20
14.431938
11
150.860415
21
15.888762
0
LINE
8
boundary
62
5
39
2
10
150.860415
20
15.888762
11
153.725243
21
17.439658
0
LINE
8
boundary
62
5
39
2
10
153.725243
20
17.439658
11
156.538078
21
19.082983
0
LINE
8
boundary
62
5
39
2
10
156.538078
20
19.082983
11
159.295917
21
20.816983
0
LINE
8
boundary
62
5
39
2
10
159.295917
20
20.816983
11
161.995867
21
22.639843
0
LINE
8
boundary
62
5
39
2
10
161.995867
20
22.639843
11
164.635281
21
24.549793
0
LINE
8
boundary
62
5
39
2
10
164.635281
20
24.549793
11
167.210898
21
26.544456
0
LINE
8
boundary
62
5
39
2
10
167.210898
20
26.544456
11
169.720224
21
28.621908
0
LINE
8
boundary
62
5
39
2
10
169.720224
20
28.621908
11
172.160598
21
30.779936
0
LINE
8
boundary
62
5
39
2
10
172.160598
20
30.779936
11
174.550112
21
33.035802
0
LINE
8
boundary
62
5
39
2
10
174.550112
20
33.035802
11
176.844256
21
35.348695
0
LINE
8
boundary
62
5
39
2
10
176.844256
20
35.348695
11
179.061970
21
37.735121
0
LINE
8
boundary
62
5
39
2
10
179.061970
20
37.735121
11
181.200768
21
40.192388
0
LINE
8
boundary
62
5
39
2
10
181.200768
20
40.192388
11
183.258436
21
42.717968
0
LINE
8
boundary
62
5
39
2
10
183.258436
20
42.717968
11
185.215514
21
45.286473
0
LINE
8
boundary
62
5
39
2
10
185.215514
20
45.286473
11
187.105250
21
47.940038
0
LINE
8
boundary
62
5
39
2
10
187.105250
20
47.940038
11
188.907454
21
50.653461
0
LINE
8
boundary
62
5
39
2
10
188.907454
20
50.653461
11
190.620552
21
53.424350
0
LINE
8
boundary
62
5
39
2
10
190.620552
20
53.424350
11
192.256878
21
56.274558
0
LINE
8
boundary
62
5
39
2
10
192.256878
20
56.274558
11
193.771846
21
59.126271
0
LINE
8
boundary
62
5
39
2
10
193.771846
20
59.126271
11
195.219129
21
62.076649
0
LINE
8
boundary
62
5
39
2
10
195.219129
20
62.076649
11
196.557010
21
65.046842
0
LINE
8
boundary
62
5
39
2
10
196.557010
20
65.046842
11
197.797581
21
68.059184
0
LINE
8
boundary
62
5
39
2
10
197.797581
20
68.059184
11
198.929303
21
71.083202
0
LINE
8
boundary
62
5
39
2
10
198.929303
20
71.083202
11
199.972112
21
74.169477
0
LINE
8
boundary
62
5
39
2
10
199.972112
20
74.169477
11
200.922221
21
77.315674
0
LINE
8
boundary
62
5
39
2
10
200.922221
20
77.315674
11
201.761098
21
80.463511
0
LINE
8
boundary
62
5
39
2
10
201.761098
20
80.463511
11
202.490561
21
83.608885
0
LINE
8
boundary
62
5
39
2
10
202.490561
20
83.608885
11
203.129357
21
86.832737
0
LINE
8
boundary
62
5
39
2
10
203.129357
20
86.832737
11
203.657293
21
90.047375
0
LINE
8
boundary
62
5
39
2
10
203.657293
20
90.047375
11
204.076568
21
93.248887
0
LINE
8
boundary
62
5
39
2
10
204.076568
20
93.248887
11
204.397958
21
96.519667
0
LINE
8
boundary
62
5
39
2
10
204.397958
20
96.519667
11
204.608037
21
99.741675
0
LINE
8
boundary
62
5
39
2
10
204.608037
20
99.741675
11
204.715936
21
103.026436
0
LINE
8
boundary
62
5
39
2
10
204.715936
20
103.026436
11
204.715934
21
106.255579
0
LINE
8
boundary
62
5
39
2
10
204.715934
20
106.255579
11
204.610828
21
109.511277
0
LINE
8
boundary
62
5
39
2
10
204.610828
20
109.511277
11
204.397916
21
112.790903
0
LINE
8
boundary
62
5
39
2
10
204.397916
20
112.790903
11
204.083065
21
116.004366
0
LINE
8
boundary
62
5
39
2
10
204.083065
20
116.004366
11
203.657214
21
119.263192
0
LINE
8
boundary
62
5
39
2
10
203.657214
20
119.263192
11
203.133947
21
122.449357
0
LINE
8
boundary
62
5
39
2
10
203.133947
20
122.449357
11
202.502566
21
125.645276
0
LINE
8
boundary
62
5
39
2
10
202.502566
20
125.645276
11
201.760972
21
128.847043
0
LINE
8
boundary
62
5
39
2
10
201.760972
20
128.847043
11
200.929516
21
131.967005
0
LINE
8
boundary
62
5
39
2
10
200.929516
20
131.967005
11
199.989510
21
135.086122
0
LINE
8
boundary
62
5
39
2
10
199.989510
20
135.086122
11
198.939244
21
138.200324
0
LINE
8
boundary
62
5
39
2
10
198.939244
20
138.200324
11
197.797401
21
141.251350
0
LINE
8
boundary
62
5
39
2
10
197.797401
20
141.251350
11
196.567846
21
144.236928
0
LINE
8
boundary
62
5
39
2
10
196.567846
20
144.236928
11
195.230638
21
147.207841
0
LINE
8
boundary
62
5
39
2
10
195.230638
20
147.207841
11
193.797705
21
150.133123
0
LINE
8
boundary
62
5
39
2
10
193.797705
20
150.133123
11
192.256678
21
153.035863
0
LINE
8
boundary
62
5
39
2
10
192.256678
20
153.035863
11
190.649808
21
155.836588
0
LINE
8
boundary
62
5
39
2
10
190.649808
20
155.836588
11
188.923125
21
158.632993
0
LINE
8
boundary
62
5
39
2
10
188.923125
20
158.632993
11
187.121521
21
161.347178
0
LINE
8
boundary
62
5
39
2
10
187.121521
20
161.347178
11
185.232574
21
164.001198
0
LINE
8
boundary
62
5
39
2
10
185.232574
20
164.001198
11
183.258171
21
166.592415
0
LINE
8
boundary
62
5
39
2
10
183.258171
20
166.592415
11
181.218663
21
169.095705
0
LINE
8
boundary
62
5
39
2
10
181.218663
20
169.095705
11
179.080571
21
171.553567
0
LINE
8
boundary
62
5
39
2
10
179.080571
20
171.553567
11
176.863616
21
173.940534
0
LINE
8
boundary
62
5
39
2
10
176.863616
20
173.940534
11
174.569935
21
176.254276
0
LINE
8
boundary
62
5
39
2
10
174.569935
20
176.254276
11
172.202363
21
178.491942
0
LINE
8
boundary
62
5
39
2
10
172.202363
20
178.491942
11
169.741896
21
180.670198
0
LINE
8
boundary
62
5
39
2
10
169.741896
20
180.670198
11
167.233139
21
182.748366
0
LINE
8
boundary
62
5
39
2
10
167.233139
20
182.748366
11
164.658071
21
184.743771
0
LINE
8
boundary
62
5
39
2
10
164.658071
20
184.743771
11
162.019426
21
186.654304
0
LINE
8
boundary
62
5
39
2
10
162.019426
20
186.654304
11
159.319905
21
188.477982
0
LINE
8
boundary
62
5
39
2
10
159.319905
20
188.477982
11
156.562537
21
190.212780
0
LINE
8
boundary
62
5
39
2
10
156.562537
20
190.212780
11
153.750159
21
191.856906
0
LINE
8
boundary
62
5
39
2
10
153.750159
20
191.856906
11
150.885759
21
193.408623
0
LINE
8
boundary
62
5
39
2
10
150.885759
20
193.408623
11
147.972367
21
194.866276
0
LINE
8
boundary
62
5
39
2
10
147.972367
20
194.866276
11
145.013075
21
196.228334
0
LINE
8
boundary
62
5
39
2
10
145.013075
20
196.228334
11
142.011015
21
197.493337
0
LINE
8
boundary
62
5
39
2
10
142.011015
20
197.493337
11
138.996037
21
198.649741
0
LINE
8
boundary
62
5
39
2
10
138.996037
20
198.649741
11
135.891369
21
199.726955
0
LINE
8
boundary
62
5
39
2
10
135.891369
20
199.726955
11
132.807540
21
200.684739
0
LINE
8
boundary
62
5
39
2
10
132.807540
20
200.684739
11
129.639361
21
201.557669
0
LINE
8
boundary
62
5
39
2
10
129.639361
20
201.557669
11
126.500029
21
202.312714
0
LINE
8
boundary
62
5
39
2
10
126.500029
20
202.312714
11
123.309450
21
202.971963
0
LINE
8
boundary
62
5
39
2
10
123.309450
20
202.971963
11
120.071344
21
203.531785
0
LINE
8
boundary
62
5
39
2
10
120.071344
20
203.531785
11
116.844680
21
203.981096
0
LINE
8
boundary
62
5
39
2
10
116.844680
20
203.981096
11
113.633884
21
204.322076
0
LINE
8
boundary
62
5
39
2
10
113.633884
20
204.322076
11
110.356234
21
204.563533
0
LINE
8
boundary
62
5
39
2
10
110.356234
20
204.563533
11
107.101231
21
204.696056
0
LINE
8
boundary
62
5
39
2
10
107.101231
20
204.696056
11
103.872550
21
204.722328
0
LINE
8
boundary
62
5
39
2
10
103.872550
20
204.722328
11
100.587325
21
204.643028
0
LINE
8
boundary
62
5
39
2
10
100.587325
20
204.643028
11
97.363424
21
204.459165
0
LINE
8
boundary
62
5
39
2
10
97.363424
20
204.459165
11
94.090260
21
204.166283
0
LINE
8
boundary
62
5
39
2
10
94.090260
20
204.166283
11
90.856904
21
203.769577
0
LINE
8
boundary
62
5
39
2
10
90.856904
20
203.769577
11
87.666203
21
203.272210
0
LINE
8
boundary
62
5
39
2
10
87.666203
20
203.272210
11
84.437287
21
202.661579
0
LINE
8
boundary
62
5
39
2
10
84.437287
20
202.661579
11
81.285610
21
201.957636
0
LINE
8
boundary
62
5
39
2
10
81.285610
20
201.957636
11
78.103362
21
201.138221
0
LINE
8
boundary
62
5
39
2
10
78.103362
20
201.138221
11
75.004260
21
200.230745
0
LINE
8
boundary
62
5
39
2
10
75.004260
20
200.230745
11
71.881978
21
199.205984
0
LINE
8
boundary
62
5
39
2
10
71.881978
20
199.205984
11
68.848485
21
198.098783
0
LINE
8
boundary
62
5
39
2
10
68.848485
20
198.098783
11
65.799497
21
196.873047
0
LINE
8
boundary
62
5
39
2
10
65.799497
20
196.873047
11
62.844651
21
195.570899
0
LINE
8
boundary
62
5
39
2
10
62.844651
20
195.570899
11
59.907355
21
194.161625
0
LINE
8
boundary
62
5
39
2
10
59.907355
20
194.161625
11
56.992419
21
192.644425
0
LINE
8
boundary
62
5
39
2
10
56.992419
20
192.644425
11
54.178375
21
191.060208
0
LINE
8
boundary
62
5
39
2
10
54.178375
20
191.060208
11
51.368259
21
189.356501
0
LINE
8
boundary
62
5
39
2
10
51.368259
20
189.356501
11
48.639571
21
187.577100
0
LINE
8
boundary
62
5
39
2
10
48.639571
20
187.577100
11
45.993730
21
185.726254
0
LINE
8
boundary
62
5
39
2
10
45.993730
20
185.726254
11
43.385978
21
183.773789
0
LINE
8
boundary
62
5
39
2
10
43.385978
20
183.773789
11
40.843161
21
181.737470
0
LINE
8
boundary
62
5
39
2
10
40.843161
20
181.737470
11
38.368046
21
179.619525
0
LINE
8
boundary
62
5
39
2
10
38.368046
20
179.619525
11
35.962822
21
177.421825
0
LINE
8
boundary
62
5
39
2
10
35.962822
20
177.421825
11
33.610320
21
175.127382
0
LINE
8
boundary
62
5
39
2
10
33.610320
20
175.127382
11
31.354055
21
172.777382
0
LINE
8
boundary
62
5
39
2
10
31.354055
20
172.777382
11
29.175537
21
170.355250
0
LINE
8
boundary
62
5
39
2
10
29.175537
20
170.355250
11
27.077017
21
167.863504
0
LINE
8
boundary
62
5
39
2
10
27.077017
20
167.863504
11
25.060833
21
165.304923
0
LINE
8
boundary
62
5
39
2
10
25.060833
20
165.304923
11
23.145874
21
162.704991
0
LINE
8
boundary
62
5
39
2
10
23.145874
20
162.704991
11
21.299619
21
160.021103
0
LINE
8
boundary
62
5
39
2
10
21.299619
20
160.021103
11
19.541427
21
157.278153
0
LINE
8
boundary
62
5
39
2
10
19.541427
20
157.278153
11
17.859111
21
154.455289
0
LINE
8
boundary
62
5
39
2
10
17.859111
20
154.455289
11
16.298075
21
151.628870
0
LINE
8
boundary
62
5
39
2
10
16.298075
20
151.628870
11
14.815735
21
148.727545
0
LINE
8
boundary
62
5
39
2
10
14.815735
20
148.727545
11
13.416727
21
145.754183
0
LINE
8
boundary
62
5
39
2
10
13.416727
20
145.754183
11
12.138698
21
142.788926
0
LINE
8
boundary
62
5
39
2
10
12.138698
20
142.788926
11
10.946289
21
139.756738
0
LINE
8
boundary
62
5
39
2
10
10.946289
20
139.756738
11
9.853564
21
136.688348
0
LINE
8
boundary
62
5
39
2
10
9.853564
20
136.688348
11
8.861045
21
133.585249
0
LINE
8
boundary
62
5
39
2
10
8.861045
20
133.585249
11
7.962361
21
130.424377
0
LINE
8
boundary
62
5
39
2
10
7.962361
20
130.424377
11
7.181671
21
127.290829
0
LINE
8
boundary
62
5
39
2
10
7.181671
20
127.290829
11
6.490579
21
124.078272
0
LINE
8
boundary
62
5
39
2
10
6.490579
20
124.078272
11
5.915425
21
120.900568
0
LINE
8
boundary
62
5
39
2
10
5.915425
20
120.900568
11
5.434794
21
117.649665
0
LINE
8
boundary
62
5
39
2
10
5.434794
20
117.649665
11
5.064425
21
114.413185
0
LINE
8
boundary
62
5
39
2
10
5.064425
20
114.413185
11
4.801894
21
111.194928
0
LINE
8
boundary
62
5
39
2
10
4.801894
20
111.194928
11
4.641934
21
107.941176
0
LINE
8
boundary
62
5
39
2
10
4.641934
20
107.941176
11
4.587966
21
104.683745
0
LINE
8
boundary
62
5
39
2
10
4.587966
20
104.683745
11
4.640530
21
101.397827
0
LINE
8
boundary
62
5
39
2
10
4.640530
20
101.397827
11
4.799542
21
98.144108
0
LINE
8
boundary
62
5
39
2
10
4.799542
20
98.144108
11
5.064374
21
94.897286
0
LINE
8
boundary
62
5
39
2
10
5.064374
20
94.897286
11
5.431494
21
91.689275
0
LINE
8
boundary
62
5
39
2
10
5.431494
20
91.689275
11
5.906146
21
88.466064
0
LINE
8
boundary
62
5
39
2
10
5.906146
20
88.466064
11
6.490504
21
85.232194
0
LINE
8
boundary
62
5
39
2
10
6.490504
20
85.232194
11
7.168721
21
82.075081
0
LINE
8
boundary
62
5
39
2
10
7.168721
20
82.075081
11
7.962234
21
78.886178
0
LINE
8
boundary
62
5
39
2
10
7.962234
20
78.886178
11
8.844478
21
75.779698
0
LINE
8
boundary
62
5
39
2
10
8.844478
20
75.779698
11
9.843800
21
72.649182
0
LINE
8
boundary
62
5
39
2
10
9.843800
20
72.649182
11
10.935615
21
69.580477
0
LINE
8
boundary
62
5
39
2
10
10.935615
20
69.580477
11
12.127192
21
66.547831
0
LINE
8
boundary
62
5
39
2
10
12.127192
20
66.547831
11
13.416560
21
63.556258
0
LINE
8
boundary
62
5
39
2
10
13.416560
20
63.556258
11
14.790552
21
60.633905
0
LINE
8
boundary
62
5
39
2
10
14.790552
20
60.633905
11
16.283974
21
57.706718
0
LINE
8
boundary
62
5
39
2
10
16.283974
20
57.706718
11
17.858954
21
54.855046
0
LINE
8
boundary
62
5
39
2
10
17.858954
20
54.855046
11
19.511350
21
52.080596
0
LINE
8
boundary
62
5
39
2
10
19.511350
20
52.080596
11
21.283154
21
49.312909
0
LINE
8
boundary
62
5
39
2
10
21.283154
20
49.312909
11
23.128692
21
46.628402
0
LINE
8
boundary
62
5
39
2
10
23.128692
20
46.628402
11
25.060520
21
44.005541
0
LINE
8
boundary
62
5
39
2
10
25.060520
20
44.005541
11
27.059087
21
41.469313
0
LINE
8
boundary
62
5
39
2
10
27.059087
20
41.469313
11
29.156871
21
38.976966
0
LINE
8
boundary
62
5
39
2
10
29.156871
20
38.976966
11
31.334617
21
36.554296
0
LINE
8
boundary
62
5
39
2
10
31.334617
20
36.554296
11
33.590116
21
34.203716
0
LINE
8
annotation
62
1
39
211
10
104.651874
20
182.903888
11
104.651874
21
184.332638
0
LINE
8
annotation
62
1
39
211
10
104.651874
20
182.903888
11
104.651874
21
184.332638
0
LINE
8
annotation
62
1
39
211
10
104.651874
20
184.332638
11
104.651874
21
182.903888
0
LINE
8
annotation
62
1
39
211
10
104.651874
20
182.903888
11
106.080624
21
182.903888
0
LINE
8
annotation
62
1
39
211
10
104.651874
20
26.406176
11
104.651874
21
24.977426
0
LINE
8
annotation
62
1
39
211
10
184.703093
20
104.655031
11
184.703093
21
106.083781
0
LINE
8
annotation
62
1
39
211
10
184.703093
20
104.655031
11
184.703093
21
106.083781
0
LINE
8
annotation
62
1
39
211
10
184.703093
20
106.083781
11
184.703093
21
104.655031
0
LINE
8
annotation
62
1
39
211
10
184.703093
20
104.655031
11
184.703093
21
103.226281
0
LINE
8
annotation
62
1
39
211
10
24.600344
20
104.655031
11
26.029094
21
104.655031
0
LINE
8
annotation
62
1
39
211
10
24.600344
20
104.655031
11
26.029094
21
104.655031
0
LINE
8
annotation
62
1
39
211
10
26.029094
20
104.655031
11
24.600344
21
104.655031
0
LINE
8
annotation
62
1
39
211
10
24.600344
20
104.655031
11
24.600344
21
103.226281
0
LINE
8
annotation
62
1
39
211
10
20.062184
20
93.372192
11
26.462527
21
93.372192
0
LINE
8
annotation
62
1
39
211
10
26.462527
20
93.372192
11
26.462527
21
93.372192
0
LINE
8
annotation
62
1
39
211
10
26.462527
20
93.372192
11
27.613644
21
93.475455
0
LINE
8
annotation
62
1
39
211
10
27.613644
20
93.475455
11
28.696805
21
93.773064
0
LINE
8
annotation
62
1
39
211
10
28.696805
20
93.773064
11
29.693995
21
94.246752
0
LINE
8
annotation
62
1
39
211
10
29.693995
20
94.246752
11
30.587198
21
94.878250
0
LINE
8
annotation
62
1
39
211
10
30.587198
20
94.878250
11
31.358399
21
95.649290
0
LINE
8
annotation
62
1
39
211
10
31.358399
20
95.649290
11
31.989582
21
96.541603
0
LINE
8
annotation
62
1
39
211
10
31.989582
20
96.541603
11
32.462732
21
97.536921
0
LINE
8
annotation
62
1
39
211
10
32.462732
20
97.536921
11
32.759833
21
98.616975
0
LINE
8
annotation
62
1
39
211
10
32.759833
20
98.616975
11
32.862870
21
99.763498
0
LINE
8
annotation
62
1
39
211
10
32.862870
20
99.763498
11
32.862870
21
102.968188
0
LINE
8
annotation
62
1
39
211
10
32.862870
20
102.968188
11
32.862870
21
102.968188
0
LINE
8
annotation
62
1
39
211
10
32.862870
20
102.968188
11
32.759833
21
104.114235
0
LINE
8
annotation
62
1
39
211
10
32.759833
20
104.114235
11
32.462732
21
105.194036
0
LINE
8
annotation
62
1
39
211
10
32.462732
20
105.194036
11
31.989582
21
106.189280
0
LINE
8
annotation
62
1
39
211
10
31.989582
20
106.189280
11
31.358399
21
107.081652
0
LINE
8
annotation
62
1
39
211
10
31.358399
20
107.081652
11
30.587198
21
107.852841
0
LINE
8
annotation
62
1
39
211
10
30.587198
20
107.852841
11
29.693995
21
108.484532
0
LINE
8
annotation
62
1
39
211
10
29.693995
20
108.484532
11
28.696805
21
108.958413
0
LINE
8
annotation
62
1
39
211
10
28.696805
20
108.958413
11
27.613644
21
109.256172
0
LINE
8
annotation
62
1
39
211
10
27.613644
20
109.256172
11
26.462527
21
109.359494
0
LINE
8
annotation
62
1
39
211
10
26.462527
20
109.359494
11
23.257837
21
109.359494
0
LINE
8
annotation
62
1
39
211
10
23.257837
20
109.359494
11
26.462527
21
109.359494
0
LINE
8
annotation
62
1
39
211
10
26.462527
20
109.359494
11
26.462527
21
109.359494
0
LINE
8
annotation
62
1
39
211
10
26.462527
20
109.359494
11
27.613644
21
109.462841
0
LINE
8
annotation
62
1
39
211
10
27.613644
20
109.462841
11
28.696805
21
109.760773
0
LINE
8
annotation
62
1
39
211
10
28.696805
20
109.760773
11
29.693995
21
110.235125
0
LINE
8
annotation
62
1
39
211
10
29.693995
20
110.235125
11
30.587198
21
110.867734
0
LINE
8
annotation
62
1
39
211
10
30.587198
20
110.867734
11
31.358399
21
111.640435
0
LINE
8
annotation
62
1
39
211
10
31.358399
20
111.640435
11
31.989582
21
112.535064
0
LINE
8
annotation
62
1
39
211
10
31.989582
20
112.535064
11
32.462732
21
113.533456
0
LINE
8
annotation
62
1
39
211
10
32.462732
20
113.533456
11
32.759833
21
114.617448
0
LINE
8
annotation
62
1
39
211
10
32.759833
20
114.617448
11
32.862870
21
115.768875
0
LINE
8
annotation
62
1
39
211
10
32.862870
20
115.768875
11
32.862870
21
115.768875
0
LINE
8
annotation
62
1
39
211
10
32.862870
20
115.768875
11
32.759833
21
116.914921
0
LINE
8
annotation
62
1
39
211
10
32.759833
20
116.914921
11
32.462732
21
117.994723
0
LINE
8
annotation
62
1
39
211
10
32.462732
20
117.994723
11
31.989582
21
118.989966
0
LINE
8
annotation
62
1
39
211
10
31.989582
20
118.989966
11
31.358399
21
119.882339
0
LINE
8
annotation
62
1
39
211
10
31.358399
20
119.882339
11
30.587198
21
120.653527
0
LINE
8
annotation
62
1
39
211
10
30.587198
20
120.653527
11
29.693995
21
121.285218
0
LINE
8
annotation
62
1
39
211
10
29.693995
20
121.285218
11
28.696805
21
121.759100
0
LINE
8
annotation
62
1
39
211
10
28.696805
20
121.759100
11
27.613644
21
122.056858
0
LINE
8
annotation
62
1
39
211
10
27.613644
20
122.056858
11
26.462527
21
122.160180
0
LINE
8
annotation
62
1
39
211
10
26.462527
20
122.160180
11
20.062184
21
122.160180
0
LINE
8
hole
62
5
39
2
10
179.654685
20
305.661016
11
180.226185
21
305.661016
0
LINE
8
hole
62
5
39
2
10
180.226185
20
305.661016
11
180.226185
21
306.232516
0
LINE
8
hole
62
5
39
2
10
180.226185
20
306.232516
11
179.654685
21
306.232516
0
LINE
8
hole
62
5
39
2
10
179.654685
20
306.232516
11
179.654685
21
305.661016
0
LINE
8
hole
62
5
39
2
10
24.568118
20
305.615724
11
25.139618
21
305.615724
0
LINE
8
hole
62
5
39
2
10
25.139618
20
305.615724
11
25.139618
21
306.187224
0
LINE
8
hole
62
5
39
2
10
25.139618
20
306.187224
11
24.568118
21
306.187224
0
LINE
8
hole
62
5
39
2
10
24.568118
20
306.187224
11
24.568118
21
305.615724
0
LINE
8
hole
62
5
39
2
10
102.109584
20
383.671738
11
102.681084
21
383.671738
0
LINE
8
hole
62
5
39
2
10
102.681084
20
383.671738
11
102.681084
21
384.243238
0
LINE
8
hole
62
5
39
2
10
102.681084
20
384.243238
11
102.109584
21
384.243238
0
LINE
8
hole
62
5
39
2
10
102.109584
20
384.243238
11
102.109584
21
383.671738
0
LINE
8
hole
62
5
39
2
10
102.109584
20
227.174025
11
102.681084
21
227.174025
0
LINE
8
hole
62
5
39
2
10
102.681084
20
227.174025
11
102.681084
21
227.745525
0
LINE
8
hole
62
5
39
2
10
102.681084
20
227.745525
11
102.109584
21
227.745525
0
LINE
8
hole
62
5
39
2
10
102.109584
20
227.745525
11
102.109584
21
227.174025
0
LINE
8
hole
62
5
39
2
10
56.448040
20
253.650639
11
54.778125
21
255.173805
0
LINE
8
hole
62
5
39
2
10
54.778125
20
255.173805
11
53.158469
21
256.750714
0
LINE
8
hole
62
5
39
2
10
53.158469
20
256.750714
11
51.534820
21
258.438035
0
LINE
8
hole
62
5
39
2
10
51.534820
20
258.438035
11
50.077396
21
260.058450
0
LINE
8
hole
62
5
39
2
10
50.077396
20
260.058450
11
48.619032
21
261.786019
0
LINE
8
hole
62
5
39
2
10
48.619032
20
261.786019
11
47.218040
21
263.559661
0
LINE
8
hole
62
5
39
2
10
47.218040
20
263.559661
11
45.875180
21
265.378450
0
LINE
8
hole
62
5
39
2
10
45.875180
20
265.378450
11
44.592403
21
267.239742
0
LINE
8
hole
62
5
39
2
10
44.592403
20
267.239742
11
43.371040
21
269.141545
0
LINE
8
hole
62
5
39
2
10
43.371040
20
269.141545
11
42.212068
21
271.082351
0
LINE
8
hole
62
5
39
2
10
42.212068
20
271.082351
11
41.116757
21
273.060110
0
LINE
8
hole
62
5
39
2
10
41.116757
20
273.060110
11
40.049821
21
275.144098
0
LINE
8
hole
62
5
39
2
10
40.049821
20
275.144098
11
39.087961
21
277.189936
0
LINE
8
hole
62
5
39
2
10
39.087961
20
277.189936
11
38.225340
21
279.191380
0
LINE
8
hole
62
5
39
2
10
38.225340
20
279.191380
11
37.392044
21
281.305517
0
LINE
8
hole
62
5
39
2
10
37.392044
20
281.305517
11
36.635740
21
283.423900
0
LINE
8
hole
62
5
39
2
10
36.635740
20
283.423900
11
35.945455
21
285.575663
0
LINE
8
hole
62
5
39
2
10
35.945455
20
285.575663
11
35.303192
21
287.827498
0
LINE
8
hole
62
5
39
2
10
35.303192
20
287.827498
11
34.776324
21
289.942278
0
LINE
8
hole
62
5
39
2
10
34.776324
20
289.942278
11
34.298912
21
292.152116
0
LINE
8
hole
62
5
39
2
10
34.298912
20
292.152116
11
33.879355
21
294.455443
0
LINE
8
hole
62
5
39
2
10
33.879355
20
294.455443
11
33.549366
21
296.691901
0
LINE
8
hole
62
5
39
2
10
33.549366
20
296.691901
11
33.301580
21
298.857190
0
LINE
8
hole
62
5
39
2
10
33.301580
20
298.857190
11
33.108594
21
301.190878
0
LINE
8
hole
62
5
39
2
10
33.108594
20
301.190878
11
33.002207
21
303.367988
0
LINE
8
hole
62
5
39
2
10
33.002207
20
303.367988
11
32.961480
21
305.708995
0
LINE
8
hole
62
5
39
2
10
32.961480
20
305.708995
11
32.996959
21
307.888120
0
LINE
8
hole
62
5
39
2
10
32.996959
20
307.888120
11
33.108633
21
310.226991
0
LINE
8
hole
62
5
39
2
10
33.108633
20
310.226991
11
33.285829
21
312.399310
0
LINE
8
hole
62
5
39
2
10
33.285829
20
312.399310
11
33.549462
21
314.726078
0
LINE
8
hole
62
5
39
2
10
33.549462
20
314.726078
11
33.867616
21
316.882144
0
LINE
8
hole
62
5
39
2
10
33.867616
20
316.882144
11
34.267680
21
319.107286
0
LINE
8
hole
62
5
39
2
10
34.267680
20
319.107286
11
34.756847
21
321.396837
0
LINE
8
hole
62
5
39
2
10
34.756847
20
321.396837
11
35.303376
21
323.590461
0
LINE
8
hole
62
5
39
2
10
35.303376
20
323.590461
11
35.898801
21
325.686961
0
LINE
8
hole
62
5
39
2
10
35.898801
20
325.686961
11
36.609031
21
327.918312
0
LINE
8
hole
62
5
39
2
10
36.609031
20
327.918312
11
37.362533
21
330.036666
0
LINE
8
hole
62
5
39
2
10
37.362533
20
330.036666
11
38.193459
21
332.151930
0
LINE
8
hole
62
5
39
2
10
38.193459
20
332.151930
11
39.088259
21
334.227987
0
LINE
8
hole
62
5
39
2
10
39.088259
20
334.227987
11
40.015572
21
336.200276
0
LINE
8
hole
62
5
39
2
10
40.015572
20
336.200276
11
41.041258
21
338.215038
0
LINE
8
hole
62
5
39
2
10
41.041258
20
338.215038
11
42.170862
21
340.265734
0
LINE
8
hole
62
5
39
2
10
42.170862
20
340.265734
11
43.327665
21
342.208016
0
LINE
8
hole
62
5
39
2
10
43.327665
20
342.208016
11
44.547007
21
344.111515
0
LINE
8
hole
62
5
39
2
10
44.547007
20
344.111515
11
45.827587
21
345.974221
0
LINE
8
hole
62
5
39
2
10
45.827587
20
345.974221
11
47.168198
21
347.794361
0
LINE
8
hole
62
5
39
2
10
47.168198
20
347.794361
11
48.567419
21
349.569980
0
LINE
8
hole
62
5
39
2
10
48.567419
20
349.569980
11
50.023526
21
351.298938
0
LINE
8
hole
62
5
39
2
10
50.023526
20
351.298938
11
51.535316
21
352.979760
0
LINE
8
hole
62
5
39
2
10
51.535316
20
352.979760
11
53.044727
21
354.551872
0
LINE
8
hole
62
5
39
2
10
53.044727
20
354.551872
11
54.718780
21
356.189208
0
LINE
8
hole
62
5
39
2
10
54.718780
20
356.189208
11
56.387173
21
357.714522
0
LINE
8
hole
62
5
39
2
10
56.387173
20
357.714522
11
58.104224
21
359.184650
0
LINE
8
hole
62
5
39
2
10
58.104224
20
359.184650
11
59.805101
21
360.547525
0
LINE
8
hole
62
5
39
2
10
59.805101
20
360.547525
11
61.677595
21
361.953614
0
LINE
8
hole
62
5
39
2
10
61.677595
20
361.953614
11
63.463686
21
363.203024
0
LINE
8
hole
62
5
39
2
10
63.463686
20
363.203024
11
65.355496
21
364.439836
0
LINE
8
hole
62
5
39
2
10
65.355496
20
364.439836
11
67.287059
21
365.614706
0
LINE
8
hole
62
5
39
2
10
67.287059
20
365.614706
11
69.325917
21
366.765540
0
LINE
8
hole
62
5
39
2
10
69.325917
20
366.765540
11
71.258963
21
367.772368
0
LINE
8
hole
62
5
39
2
10
71.258963
20
367.772368
11
73.368762
21
368.788280
0
LINE
8
hole
62
5
39
2
10
73.368762
20
368.788280
11
75.437363
21
369.699868
0
LINE
8
hole
62
5
39
2
10
75.437363
20
369.699868
11
77.459270
21
370.513358
0
LINE
8
hole
62
5
39
2
10
77.459270
20
370.513358
11
79.657958
21
371.318676
0
LINE
8
hole
62
5
39
2
10
79.657958
20
371.318676
11
81.805711
21
372.024242
0
LINE
8
hole
62
5
39
2
10
81.805711
20
372.024242
11
83.897585
21
372.636777
0
LINE
8
hole
62
5
39
2
10
83.897585
20
372.636777
11
86.085888
21
373.203627
0
LINE
8
hole
62
5
39
2
10
86.085888
20
373.203627
11
88.370236
21
373.716539
0
LINE
8
hole
62
5
39
2
10
88.370236
20
373.716539
11
90.591425
21
374.137245
0
LINE
8
hole
62
5
39
2
10
90.591425
20
374.137245
11
92.825005
21
374.485400
0
LINE
8
hole
62
5
39
2
10
92.825005
20
374.485400
11
95.068740
21
374.760679
0
LINE
8
hole
62
5
39
2
10
95.068740
20
374.760679
11
97.239426
21
374.955528
0
LINE
8
hole
62
5
39
2
10
97.239426
20
374.955528
11
99.496427
21
375.086879
0
LINE
8
hole
62
5
39
2
10
99.496427
20
375.086879
11
101.836775
21
375.146673
0
LINE
8
hole
62
5
39
2
10
101.836775
20
375.146673
11
104.015880
21
375.128925
0
LINE
8
hole
62
5
39
2
10
104.015880
20
375.128925
11
106.274902
21
375.039590
0
LINE
8
hole
62
5
39
2
10
106.274902
20
375.039590
11
108.610055
21
374.870880
0
LINE
8
hole
62
5
39
2
10
108.610055
20
374.870880
11
110.857984
21
374.632172
0
LINE
8
hole
62
5
39
2
10
110.857984
20
374.632172
11
113.016979
21
374.331527
0
LINE
8
hole
62
5
39
2
10
113.016979
20
374.331527
11
115.324544
21
373.935911
0
LINE
8
hole
62
5
39
2
10
115.324544
20
373.935911
11
117.538364
21
373.479159
0
LINE
8
hole
62
5
39
2
10
117.538364
20
373.479159
11
119.657821
21
372.969416
0
LINE
8
hole
62
5
39
2
10
119.657821
20
372.969416
11
121.915757
21
372.350700
0
LINE
8
hole
62
5
39
2
10
121.915757
20
372.350700
11
123.997554
21
371.704142
0
LINE
8
hole
62
5
39
2
10
123.997554
20
371.704142
11
126.210577
21
370.939781
0
LINE
8
hole
62
5
39
2
10
126.210577
20
370.939781
11
128.245831
21
370.159155
0
LINE
8
hole
62
5
39
2
10
128.245831
20
370.159155
11
130.404469
21
369.252401
0
LINE
8
hole
62
5
39
2
10
130.404469
20
369.252401
11
132.457750
21
368.307353
0
LINE
8
hole
62
5
39
2
10
132.457750
20
368.307353
11
134.406997
21
367.332095
0
LINE
8
hole
62
5
39
2
10
134.406997
20
367.332095
11
136.396108
21
366.257544
0
LINE
8
hole
62
5
39
2
10
136.396108
20
366.257544
11
138.418573
21
365.078251
0
LINE
8
hole
62
5
39
2
10
138.418573
20
365.078251
11
140.263436
21
363.917569
0
LINE
8
hole
62
5
39
2
10
140.263436
20
363.917569
11
142.138276
21
362.654186
0
LINE
8
hole
62
5
39
2
10
142.138276
20
362.654186
11
144.036206
21
361.283225
0
LINE
8
hole
62
5
39
2
10
144.036206
20
361.283225
11
145.823092
21
359.898599
0
LINE
8
hole
62
5
39
2
10
145.823092
20
359.898599
11
147.501517
21
358.508250
0
LINE
8
hole
62
5
39
2
10
147.501517
20
358.508250
11
149.196251
21
357.012271
0
LINE
8
hole
62
5
39
2
10
149.196251
20
357.012271
11
150.841587
21
355.461731
0
LINE
8
hole
62
5
39
2
10
150.841587
20
355.461731
11
152.492221
21
353.801363
0
LINE
8
hole
62
5
39
2
10
152.492221
20
353.801363
11
153.976086
21
352.204626
0
LINE
8
hole
62
5
39
2
10
153.976086
20
352.204626
11
155.515224
21
350.440339
0
LINE
8
hole
62
5
39
2
10
155.515224
20
350.440339
11
156.892049
21
348.750436
0
LINE
8
hole
62
5
39
2
10
156.892049
20
348.750436
11
158.313197
21
346.889655
0
LINE
8
hole
62
5
39
2
10
158.313197
20
346.889655
11
159.623861
21
345.048133
0
LINE
8
hole
62
5
39
2
10
159.623861
20
345.048133
11
160.829412
21
343.231937
0
LINE
8
hole
62
5
39
2
10
160.829412
20
343.231937
11
162.062345
21
341.241434
0
LINE
8
hole
62
5
39
2
10
162.062345
20
341.241434
11
163.187315
21
339.280675
0
LINE
8
hole
62
5
39
2
10
163.187315
20
339.280675
11
164.247755
21
337.284550
0
LINE
8
hole
62
5
39
2
10
164.247755
20
337.284550
11
165.207268
21
335.327180
0
LINE
8
hole
62
5
39
2
10
165.207268
20
335.327180
11
166.171278
21
333.193439
0
LINE
8
hole
62
5
39
2
10
166.171278
20
333.193439
11
167.032058
21
331.103317
0
LINE
8
hole
62
5
39
2
10
167.032058
20
331.103317
11
167.824409
21
328.986162
0
LINE
8
hole
62
5
39
2
10
167.824409
20
328.986162
11
168.521492
21
326.921156
0
LINE
8
hole
62
5
39
2
10
168.521492
20
326.921156
11
169.176998
21
324.757417
0
LINE
8
hole
62
5
39
2
10
169.176998
20
324.757417
11
169.782421
21
322.495934
0
LINE
8
hole
62
5
39
2
10
169.782421
20
322.495934
11
170.274849
21
320.372688
0
LINE
8
hole
62
5
39
2
10
170.274849
20
320.372688
11
170.716240
21
318.155382
0
LINE
8
hole
62
5
39
2
10
170.716240
20
318.155382
11
171.098253
21
315.845586
0
LINE
8
hole
62
5
39
2
10
171.098253
20
315.845586
11
171.381332
21
313.684148
0
LINE
8
hole
62
5
39
2
10
171.381332
20
313.684148
11
171.612259
21
311.354283
0
LINE
8
hole
62
5
39
2
10
171.612259
20
311.354283
11
171.759347
21
309.098626
0
LINE
8
hole
62
5
39
2
10
171.759347
20
309.098626
11
171.830311
21
306.919833
0
LINE
8
hole
62
5
39
2
10
171.830311
20
306.919833
11
171.832948
21
304.578484
0
LINE
8
hole
62
5
39
2
10
171.832948
20
304.578484
11
171.759379
21
302.319234
0
LINE
8
hole
62
5
39
2
10
171.759379
20
302.319234
11
171.617574
21
300.144312
0
LINE
8
hole
62
5
39
2
10
171.617574
20
300.144312
11
171.399755
21
297.894080
0
LINE
8
hole
62
5
39
2
10
171.399755
20
297.894080
11
171.098361
21
295.572391
0
LINE
8
hole
62
5
39
2
10
171.098361
20
295.572391
11
170.745087
21
293.421266
0
LINE
8
hole
62
5
39
2
10
170.745087
20
293.421266
11
170.293241
21
291.123914
0
LINE
8
hole
62
5
39
2
10
170.293241
20
291.123914
11
169.782569
21
288.921911
0
LINE
8
hole
62
5
39
2
10
169.782569
20
288.921911
11
169.221237
21
286.815598
0
LINE
8
hole
62
5
39
2
10
169.221237
20
286.815598
11
168.547560
21
284.573386
0
LINE
8
hole
62
5
39
2
10
168.547560
20
284.573386
11
167.824575
21
282.431548
0
LINE
8
hole
62
5
39
2
10
167.824575
20
282.431548
11
167.060642
21
280.390274
0
LINE
8
hole
62
5
39
2
10
167.060642
20
280.390274
11
166.202277
21
278.299073
0
LINE
8
hole
62
5
39
2
10
166.202277
20
278.299073
11
165.276207
21
276.236713
0
LINE
8
hole
62
5
39
2
10
165.276207
20
276.236713
11
164.248088
21
274.133357
0
LINE
8
hole
62
5
39
2
10
164.248088
20
274.133357
11
163.225506
21
272.208463
0
LINE
8
hole
62
5
39
2
10
163.225506
20
272.208463
11
162.102852
21
270.246418
0
LINE
8
hole
62
5
39
2
10
162.102852
20
270.246418
11
160.916811
21
268.321759
0
LINE
8
hole
62
5
39
2
10
160.916811
20
268.321759
11
159.624272
21
266.369726
0
LINE
8
hole
62
5
39
2
10
159.624272
20
266.369726
11
158.360396
21
264.593907
0
LINE
8
hole
62
5
39
2
10
158.360396
20
264.593907
11
156.992297
21
262.794041
0
LINE
8
hole
62
5
39
2
10
156.992297
20
262.794041
11
155.515606
21
260.977385
0
LINE
8
hole
62
5
39
2
10
155.515606
20
260.977385
11
154.084397
21
259.333059
0
LINE
8
hole
62
5
39
2
10
154.084397
20
259.333059
11
152.492551
21
257.616245
0
LINE
8
hole
62
5
39
2
10
152.492551
20
257.616245
11
150.957503
21
256.068648
0
LINE
8
hole
62
5
39
2
10
150.957503
20
256.068648
11
149.257293
21
254.459017
0
LINE
8
hole
62
5
39
2
10
149.257293
20
254.459017
11
147.564314
21
252.961047
0
LINE
8
hole
62
5
39
2
10
147.564314
20
252.961047
11
145.823470
21
251.518961
0
LINE
8
hole
62
5
39
2
10
145.823470
20
251.518961
11
144.100650
21
250.183954
0
LINE
8
hole
62
5
39
2
10
144.100650
20
250.183954
11
142.271014
21
248.855929
0
LINE
8
hole
62
5
39
2
10
142.271014
20
248.855929
11
140.332361
21
247.543063
0
LINE
8
hole
62
5
39
2
10
140.332361
20
247.543063
11
138.419188
21
246.339381
0
LINE
8
hole
62
5
39
2
10
138.419188
20
246.339381
11
136.537246
21
245.239173
0
LINE
8
hole
62
5
39
2
10
136.537246
20
245.239173
11
134.479824
21
244.121614
0
LINE
8
hole
62
5
39
2
10
134.479824
20
244.121614
11
132.458400
21
243.110220
0
LINE
8
hole
62
5
39
2
10
132.458400
20
243.110220
11
130.478452
21
242.198899
0
LINE
8
hole
62
5
39
2
10
130.478452
20
242.198899
11
128.396042
21
241.318544
0
LINE
8
hole
62
5
39
2
10
128.396042
20
241.318544
11
126.211143
21
240.477688
0
LINE
8
hole
62
5
39
2
10
126.211143
20
240.477688
11
124.151502
21
239.763695
0
LINE
8
hole
62
5
39
2
10
124.151502
20
239.763695
11
121.916454
21
239.066762
0
LINE
8
hole
62
5
39
2
10
121.916454
20
239.066762
11
119.814712
21
238.488288
0
LINE
8
hole
62
5
39
2
10
119.814712
20
238.488288
11
117.538951
21
237.938220
0
LINE
8
hole
62
5
39
2
10
117.538951
20
237.938220
11
115.404425
21
237.497812
0
LINE
8
hole
62
5
39
2
10
115.404425
20
237.497812
11
113.176962
21
237.110679
0
LINE
8
hole
62
5
39
2
10
113.176962
20
237.110679
11
110.858461
21
236.785153
0
LINE
8
hole
62
5
39
2
10
110.858461
20
236.785153
11
108.691161
21
236.554977
0
LINE
8
hole
62
5
39
2
10
108.691161
20
236.554977
11
106.436617
21
236.386890
0
LINE
8
hole
62
5
39
2
10
106.436617
20
236.386890
11
104.097382
21
236.289009
0
LINE
8
hole
62
5
39
2
10
104.097382
20
236.289009
11
101.836649
21
236.270601
0
LINE
8
hole
62
5
39
2
10
101.836649
20
236.270601
11
99.657523
21
236.323813
0
LINE
8
hole
62
5
39
2
10
99.657523
20
236.323813
11
97.319636
21
236.454513
0
LINE
8
hole
62
5
39
2
10
97.319636
20
236.454513
11
95.068019
21
236.656658
0
LINE
8
hole
62
5
39
2
10
95.068019
20
236.656658
11
92.904821
21
236.922068
0
LINE
8
hole
62
5
39
2
10
92.904821
20
236.922068
11
90.670865
21
237.267640
0
LINE
8
hole
62
5
39
2
10
90.670865
20
237.267640
11
88.449357
21
237.685749
0
LINE
8
hole
62
5
39
2
10
88.449357
20
237.685749
11
86.242343
21
238.176009
0
LINE
8
hole
62
5
39
2
10
86.242343
20
238.176009
11
83.974586
21
238.757919
0
LINE
8
hole
62
5
39
2
10
83.974586
20
238.757919
11
81.805128
21
239.393193
0
LINE
8
hole
62
5
39
2
10
81.805128
20
239.393193
11
79.734477
21
240.073459
0
LINE
8
hole
62
5
39
2
10
79.734477
20
240.073459
11
77.609800
21
240.846163
0
LINE
8
hole
62
5
39
2
10
77.609800
20
240.846163
11
75.436699
21
241.717669
0
LINE
8
hole
62
5
39
2
10
75.436699
20
241.717669
11
73.442350
21
242.596560
0
LINE
8
hole
62
5
39
2
10
73.442350
20
242.596560
11
71.403414
21
243.572624
0
LINE
8
hole
62
5
39
2
10
71.403414
20
243.572624
11
69.325381
21
244.652018
0
LINE
8
hole
62
5
39
2
10
69.325381
20
244.652018
11
67.425989
21
245.721338
0
LINE
8
hole
62
5
39
2
10
67.425989
20
245.721338
11
65.422939
21
246.933426
0
LINE
8
hole
62
5
39
2
10
65.422939
20
246.933426
11
63.529326
21
248.168299
0
LINE
8
hole
62
5
39
2
10
63.529326
20
248.168299
11
61.677103
21
249.463994
0
LINE
8
hole
62
5
39
2
10
61.677103
20
249.463994
11
59.932781
21
250.770796
0
LINE
8
hole
62
5
39
2
10
59.932781
20
250.770796
11
58.103759
21
252.233000
0
LINE
8
hole
62
5
39
2
10
58.103759
20
252.233000
11
56.448040
21
253.650639
0
LINE
8
boundary
62
5
39
2
10
32.875629
20
236.908957
11
35.234624
21
234.601608
0
LINE
8
boundary
62
5
39
2
10
35.234624
20
234.601608
11
37.584721
21
232.453018
0
LINE
8
boundary
62
5
39
2
10
37.584721
20
232.453018
11
40.003434
21
230.382125
0
LINE
8
boundary
62
5
39
2
10
40.003434
20
230.382125
11
42.488344
21
228.390992
0
LINE
8
boundary
62
5
39
2
10
42.488344
20
228.390992
11
45.036828
21
226.481742
0
LINE
8
boundary
62
5
39
2
10
45.036828
20
226.481742
11
47.646028
21
224.656523
0
LINE
8
boundary
62
5
39
2
10
47.646028
20
224.656523
11
50.313101
21
222.917299
0
LINE
8
boundary
62
5
39
2
10
50.313101
20
222.917299
11
52.936746
21
221.325619
0
LINE
8
boundary
62
5
39
2
10
52.936746
20
221.325619
11
55.810434
21
219.703491
0
LINE
8
boundary
62
5
39
2
10
55.810434
20
219.703491
11
58.634468
21
218.232584
0
LINE
8
boundary
62
5
39
2
10
58.634468
20
218.232584
11
61.504888
21
216.854365
0
LINE
8
boundary
62
5
39
2
10
61.504888
20
216.854365
11
64.313007
21
215.616848
0
LINE
8
boundary
62
5
39
2
10
64.313007
20
215.616848
11
67.372915
21
214.381652
0
LINE
8
boundary
62
5
39
2
10
67.372915
20
214.381652
11
70.364224
21
213.289841
0
LINE
8
boundary
62
5
39
2
10
70.364224
20
213.289841
11
73.389213
21
212.296064
0
LINE
8
boundary
62
5
39
2
10
73.389213
20
212.296064
11
76.333984
21
211.433762
0
LINE
8
boundary
62
5
39
2
10
76.333984
20
211.433762
11
79.416504
21
210.635186
0
LINE
8
boundary
62
5
39
2
10
79.416504
20
210.635186
11
82.523464
21
209.937358
0
LINE
8
boundary
62
5
39
2
10
82.523464
20
209.937358
11
85.764926
21
209.319550
0
LINE
8
boundary
62
5
39
2
10
85.764926
20
209.319550
11
88.911165
21
208.829105
0
LINE
8
boundary
62
5
39
2
10
88.911165
20
208.829105
11
92.071709
21
208.441332
0
LINE
8
boundary
62
5
39
2
10
92.071709
20
208.441332
11
95.128127
21
208.166956
0
LINE
8
boundary
62
5
39
2
10
95.128127
20
208.166956
11
98.422171
21
207.975312
0
LINE
8
boundary
62
5
39
2
10
98.422171
20
207.975312
11
101.490022
21
207.900387
0
LINE
8
boundary
62
5
39
2
10
101.490022
20
207.900387
11
104.790020
21
207.923485
0
LINE
8
boundary
62
5
39
2
10
104.790020
20
207.923485
11
107.971619
21
208.053031
0
LINE
8
boundary
62
5
39
2
10
107.971619
20
208.053031
11
111.032094
21
208.277609
0
LINE
8
boundary
62
5
39
2
10
111.032094
20
208.277609
11
114.313756
21
208.622361
0
LINE
8
boundary
62
5
39
2
10
114.313756
20
208.622361
11
117.467659
21
209.061544
0
LINE
8
boundary
62
5
39
2
10
117.467659
20
209.061544
11
120.491273
21
209.583417
0
LINE
8
boundary
62
5
39
2
10
120.491273
20
209.583417
11
123.724053
21
210.246588
0
LINE
8
boundary
62
5
39
2
10
123.724053
20
210.246588
11
126.707577
21
210.964155
0
LINE
8
boundary
62
5
39
2
10
126.707577
20
210.964155
11
129.889989
21
211.836172
0
LINE
8
boundary
62
5
39
2
10
129.889989
20
211.836172
11
132.820598
21
212.746372
0
LINE
8
boundary
62
5
39
2
10
132.820598
20
212.746372
11
135.830107
21
213.785658
0
LINE
8
boundary
62
5
39
2
10
135.830107
20
213.785658
11
138.912663
21
214.963951
0
LINE
8
boundary
62
5
39
2
10
138.912663
20
214.963951
11
141.846936
21
216.200418
0
LINE
8
boundary
62
5
39
2
10
141.846936
20
216.200418
11
144.739581
21
217.531809
0
LINE
8
boundary
62
5
39
2
10
144.739581
20
217.531809
11
147.483609
21
218.904740
0
LINE
8
boundary
62
5
39
2
10
147.483609
20
218.904740
11
150.387074
21
220.473340
0
LINE
8
boundary
62
5
39
2
10
150.387074
20
220.473340
11
153.136021
21
222.080414
0
LINE
8
boundary
62
5
39
2
10
153.136021
20
222.080414
11
155.831121
21
223.776049
0
LINE
8
boundary
62
5
39
2
10
155.831121
20
223.776049
11
158.373956
21
225.493892
0
LINE
8
boundary
62
5
39
2
10
158.373956
20
225.493892
11
161.048834
21
227.426036
0
LINE
8
boundary
62
5
39
2
10
161.048834
20
227.426036
11
163.565822
21
229.376451
0
LINE
8
boundary
62
5
39
2
10
163.565822
20
229.376451
11
166.017994
21
231.407763
0
LINE
8
boundary
62
5
39
2
10
166.017994
20
231.407763
11
168.316023
21
233.441065
0
LINE
8
boundary
62
5
39
2
10
168.316023
20
233.441065
11
170.633379
21
235.624843
0
LINE
8
boundary
62
5
39
2
10
170.633379
20
235.624843
11
172.960043
21
237.965186
0
LINE
8
boundary
62
5
39
2
10
172.960043
20
237.965186
11
175.127677
21
240.297723
0
LINE
8
boundary
62
5
39
2
10
175.127677
20
240.297723
11
177.142150
21
242.612149
0
LINE
8
boundary
62
5
39
2
10
177.142150
20
242.612149
11
179.156316
21
245.078356
0
LINE
8
boundary
62
5
39
2
10
179.156316
20
245.078356
11
181.089309
21
247.609034
0
LINE
8
boundary
62
5
39
2
10
181.089309
20
247.609034
11
183.005777
21
250.295274
0
LINE
8
boundary
62
5
39
2
10
183.005777
20
250.295274
11
184.702641
21
252.851684
0
LINE
8
boundary
62
5
39
2
10
184.702641
20
252.851684
11
186.379522
21
255.558566
0
LINE
8
boundary
62
5
39
2
10
186.379522
20
255.558566
11
187.967524
21
258.318818
0
LINE
8
boundary
62
5
39
2
10
187.967524
20
258.318818
11
189.464701
21
261.129059
0
LINE
8
boundary
62
5
39
2
10
189.464701
20
261.129059
11
190.920501
21
264.090366
0
LINE
8
boundary
62
5
39
2
10
190.920501
20
264.090366
11
192.180658
21
266.887985
0
LINE
8
boundary
62
5
39
2
10
192.180658
20
266.887985
11
193.440811
21
269.938003
0
LINE
8
boundary
62
5
39
2
10
193.440811
20
269.938003
11
194.516281
21
272.811682
0
LINE
8
boundary
62
5
39
2
10
194.516281
20
272.811682
11
195.575315
21
275.937226
0
LINE
8
boundary
62
5
39
2
10
195.575315
20
275.937226
11
196.494991
21
278.985768
0
LINE
8
boundary
62
5
39
2
10
196.494991
20
278.985768
11
197.285117
21
281.950615
0
LINE
8
boundary
62
5
39
2
10
197.285117
20
281.950615
11
198.034313
21
285.164444
0
LINE
8
boundary
62
5
39
2
10
198.034313
20
285.164444
11
198.629865
21
288.174515
0
LINE
8
boundary
62
5
39
2
10
198.629865
20
288.174515
11
199.168385
21
291.430371
0
LINE
8
boundary
62
5
39
2
10
199.168385
20
291.430371
11
199.566822
21
294.472723
0
LINE
8
boundary
62
5
39
2
10
199.566822
20
294.472723
11
199.892357
21
297.756719
0
LINE
8
boundary
62
5
39
2
10
199.892357
20
297.756719
11
200.091993
21
300.818547
0
LINE
8
boundary
62
5
39
2
10
200.091993
20
300.818547
11
200.203167
21
304.116765
0
LINE
8
boundary
62
5
39
2
10
200.203167
20
304.116765
11
200.203157
21
307.300915
0
LINE
8
boundary
62
5
39
2
10
200.203157
20
307.300915
11
200.103283
21
310.367705
0
LINE
8
boundary
62
5
39
2
10
200.103283
20
310.367705
11
199.892315
21
313.661049
0
LINE
8
boundary
62
5
39
2
10
199.892315
20
313.661049
11
199.593115
21
316.714756
0
LINE
8
boundary
62
5
39
2
10
199.593115
20
316.714756
11
199.168309
21
319.987392
0
LINE
8
boundary
62
5
39
2
10
199.168309
20
319.987392
11
198.671066
21
323.015161
0
LINE
8
boundary
62
5
39
2
10
198.671066
20
323.015161
11
198.034224
21
326.253222
0
LINE
8
boundary
62
5
39
2
10
198.034224
20
326.253222
11
197.340963
21
329.242494
0
LINE
8
boundary
62
5
39
2
10
197.340963
20
329.242494
11
196.494855
21
332.431986
0
LINE
8
boundary
62
5
39
2
10
196.494855
20
332.431986
11
195.608643
21
335.369550
0
LINE
8
boundary
62
5
39
2
10
195.608643
20
335.369550
11
194.593801
21
338.387690
0
LINE
8
boundary
62
5
39
2
10
194.593801
20
338.387690
11
193.440627
21
341.479734
0
LINE
8
boundary
62
5
39
2
10
193.440627
20
341.479734
11
192.272204
21
344.316878
0
LINE
8
boundary
62
5
39
2
10
192.272204
20
344.316878
11
190.920284
21
347.327353
0
LINE
8
boundary
62
5
39
2
10
190.920284
20
347.327353
11
189.569733
21
350.082465
0
LINE
8
boundary
62
5
39
2
10
189.569733
20
350.082465
11
188.024850
21
352.998511
0
LINE
8
boundary
62
5
39
2
10
188.024850
20
352.998511
11
186.440219
21
355.760452
0
LINE
8
boundary
62
5
39
2
10
186.440219
20
355.760452
11
184.766467
21
358.469426
0
LINE
8
boundary
62
5
39
2
10
184.766467
20
358.469426
11
183.005478
21
361.122410
0
LINE
8
boundary
62
5
39
2
10
183.005478
20
361.122410
11
181.226293
21
363.622229
0
LINE
8
boundary
62
5
39
2
10
181.226293
20
363.622229
11
179.229261
21
366.249367
0
LINE
8
boundary
62
5
39
2
10
179.229261
20
366.249367
11
177.217917
21
368.718066
0
LINE
8
boundary
62
5
39
2
10
177.217917
20
368.718066
11
175.127335
21
371.119919
0
LINE
8
boundary
62
5
39
2
10
175.127335
20
371.119919
11
173.038603
21
373.367533
0
LINE
8
boundary
62
5
39
2
10
173.038603
20
373.367533
11
170.798889
21
375.630896
0
LINE
8
boundary
62
5
39
2
10
170.798889
20
375.630896
11
168.402443
21
377.899733
0
LINE
8
boundary
62
5
39
2
10
168.402443
20
377.899733
11
166.017680
21
380.009769
0
LINE
8
boundary
62
5
39
2
10
166.017680
20
380.009769
11
163.654552
21
381.967315
0
LINE
8
boundary
62
5
39
2
10
163.654552
20
381.967315
11
161.139898
21
383.920658
0
LINE
8
boundary
62
5
39
2
10
161.139898
20
383.920658
11
158.563005
21
385.791124
0
LINE
8
boundary
62
5
39
2
10
158.563005
20
385.791124
11
155.830855
21
387.641382
0
LINE
8
boundary
62
5
39
2
10
155.830855
20
387.641382
11
153.233458
21
389.275544
0
LINE
8
boundary
62
5
39
2
10
153.233458
20
389.275544
11
150.486688
21
390.885674
0
LINE
8
boundary
62
5
39
2
10
150.486688
20
390.885674
11
147.688723
21
392.405686
0
LINE
8
boundary
62
5
39
2
10
147.688723
20
392.405686
11
144.739122
21
393.885674
0
LINE
8
boundary
62
5
39
2
10
144.739122
20
393.885674
11
141.951853
21
395.168549
0
LINE
8
boundary
62
5
39
2
10
141.951853
20
395.168549
11
139.018744
21
396.408601
0
LINE
8
boundary
62
5
39
2
10
139.018744
20
396.408601
11
136.047353
21
397.552312
0
LINE
8
boundary
62
5
39
2
10
136.047353
20
397.552312
11
132.930538
21
398.636749
0
LINE
8
boundary
62
5
39
2
10
132.930538
20
398.636749
11
129.889678
21
399.581182
0
LINE
8
boundary
62
5
39
2
10
129.889678
20
399.581182
11
126.930995
21
400.395505
0
LINE
8
boundary
62
5
39
2
10
126.930995
20
400.395505
11
123.723640
21
401.170762
0
LINE
8
boundary
62
5
39
2
10
123.723640
20
401.170762
11
120.718516
21
401.790800
0
LINE
8
boundary
62
5
39
2
10
120.718516
20
401.790800
11
117.467149
21
402.355794
0
LINE
8
boundary
62
5
39
2
10
117.467149
20
402.355794
11
114.428147
21
402.778973
0
LINE
8
boundary
62
5
39
2
10
114.428147
20
402.778973
11
111.261880
21
403.119024
0
LINE
8
boundary
62
5
39
2
10
111.261880
20
403.119024
11
107.971297
21
403.364240
0
LINE
8
boundary
62
5
39
2
10
107.971297
20
403.364240
11
104.905135
21
403.489088
0
LINE
8
boundary
62
5
39
2
10
104.905135
20
403.489088
11
101.721148
21
403.518762
0
LINE
8
boundary
62
5
39
2
10
101.721148
20
403.518762
11
98.422595
21
403.441961
0
LINE
8
boundary
62
5
39
2
10
98.422595
20
403.441961
11
95.358871
21
403.267236
0
LINE
8
boundary
62
5
39
2
10
95.358871
20
403.267236
11
92.072030
21
402.975969
0
LINE
8
boundary
62
5
39
2
10
92.072030
20
402.975969
11
89.026529
21
402.602308
0
LINE
8
boundary
62
5
39
2
10
89.026529
20
402.602308
11
85.879687
21
402.115602
0
LINE
8
boundary
62
5
39
2
10
85.879687
20
402.115602
11
82.750247
21
401.526691
0
LINE
8
boundary
62
5
39
2
10
82.750247
20
401.526691
11
79.528968
21
400.811062
0
LINE
8
boundary
62
5
39
2
10
79.528968
20
400.811062
11
76.445445
21
400.016138
0
LINE
8
boundary
62
5
39
2
10
76.445445
20
400.016138
11
73.389708
21
399.121350
0
LINE
8
boundary
62
5
39
2
10
73.389708
20
399.121350
11
70.474564
21
398.163674
0
LINE
8
boundary
62
5
39
2
10
70.474564
20
398.163674
11
67.482013
21
397.075435
0
LINE
8
boundary
62
5
39
2
10
67.482013
20
397.075435
11
64.526395
21
395.890322
0
LINE
8
boundary
62
5
39
2
10
64.526395
20
395.890322
11
61.505272
21
394.563065
0
LINE
8
boundary
62
5
39
2
10
61.505272
20
394.563065
11
58.739166
21
393.234960
0
LINE
8
boundary
62
5
39
2
10
58.739166
20
393.234960
11
55.913361
21
391.767380
0
LINE
8
boundary
62
5
39
2
10
55.913361
20
391.767380
11
53.136643
21
390.208497
0
LINE
8
boundary
62
5
39
2
10
53.136643
20
390.208497
11
50.313534
21
388.500233
0
LINE
8
boundary
62
5
39
2
10
50.313534
20
388.500233
11
47.743231
21
386.824128
0
LINE
8
boundary
62
5
39
2
10
47.743231
20
386.824128
11
45.131992
21
385.002077
0
LINE
8
boundary
62
5
39
2
10
45.131992
20
385.002077
11
42.581370
21
383.095953
0
LINE
8
boundary
62
5
39
2
10
42.581370
20
383.095953
11
40.094064
21
381.107765
0
LINE
8
boundary
62
5
39
2
10
40.094064
20
381.107765
11
37.672872
21
379.039716
0
LINE
8
boundary
62
5
39
2
10
37.672872
20
379.039716
11
35.320346
21
376.894019
0
LINE
8
boundary
62
5
39
2
10
35.320346
20
376.894019
11
33.038622
21
374.672628
0
LINE
8
boundary
62
5
39
2
10
33.038622
20
374.672628
11
30.750618
21
372.295000
0
LINE
8
boundary
62
5
39
2
10
30.750618
20
372.295000
11
28.698607
21
370.013542
0
LINE
8
boundary
62
5
39
2
10
28.698607
20
370.013542
11
26.644440
21
367.580316
0
LINE
8
boundary
62
5
39
2
10
26.644440
20
367.580316
11
24.599109
21
364.990835
0
LINE
8
boundary
62
5
39
2
10
24.599109
20
364.990835
11
22.710786
21
362.427052
0
LINE
8
boundary
62
5
39
2
10
22.710786
20
362.427052
11
20.972454
21
359.898515
0
LINE
8
boundary
62
5
39
2
10
20.972454
20
359.898515
11
19.251697
21
357.219234
0
LINE
8
boundary
62
5
39
2
10
19.251697
20
357.219234
11
17.619099
21
354.485436
0
LINE
8
boundary
62
5
39
2
10
17.619099
20
354.485436
11
16.076231
21
351.699708
0
LINE
8
boundary
62
5
39
2
10
16.076231
20
351.699708
11
14.572490
21
348.762653
0
LINE
8
boundary
62
5
39
2
10
14.572490
20
348.762653
11
13.266789
21
345.985588
0
LINE
8
boundary
62
5
39
2
10
13.266789
20
345.985588
11
11.957253
21
342.956742
0
LINE
8
boundary
62
5
39
2
10
11.957253
20
342.956742
11
10.791659
21
339.990107
0
LINE
8
boundary
62
5
39
2
10
10.791659
20
339.990107
11
9.725366
21
336.993063
0
LINE
8
boundary
62
5
39
2
10
9.725366
20
336.993063
11
8.791365
21
334.070042
0
LINE
8
boundary
62
5
39
2
10
8.791365
20
334.070042
11
7.886257
21
330.896897
0
LINE
8
boundary
62
5
39
2
10
7.886257
20
330.896897
11
7.144397
21
327.919207
0
LINE
8
boundary
62
5
39
2
10
7.144397
20
327.919207
11
6.447657
21
324.693899
0
LINE
8
boundary
62
5
39
2
10
6.447657
20
324.693899
11
5.901150
21
321.674445
0
LINE
8
boundary
62
5
39
2
10
5.901150
20
321.674445
11
5.432573
21
318.524727
0
LINE
8
boundary
62
5
39
2
10
5.432573
20
318.524727
11
5.053666
21
315.246845
0
LINE
8
boundary
62
5
39
2
10
5.053666
20
315.246845
11
4.804193
21
312.188483
0
LINE
8
boundary
62
5
39
2
10
4.804193
20
312.188483
11
4.644987
21
309.008285
0
LINE
8
boundary
62
5
39
2
10
4.644987
20
309.008285
11
4.589383
21
305.824400
0
LINE
8
boundary
62
5
39
2
10
4.589383
20
305.824400
11
4.639326
21
302.524884
0
LINE
8
boundary
62
5
39
2
10
4.639326
20
302.524884
11
4.794761
21
299.344440
0
LINE
8
boundary
62
5
39
2
10
4.794761
20
299.344440
11
5.053613
21
296.170922
0
LINE
8
boundary
62
5
39
2
10
5.053613
20
296.170922
11
5.402511
21
293.122111
0
LINE
8
boundary
62
5
39
2
10
5.402511
20
293.122111
11
5.880490
21
289.857014
0
LINE
8
boundary
62
5
39
2
10
5.880490
20
289.857014
11
6.447556
21
286.723865
0
LINE
8
boundary
62
5
39
2
10
6.447556
20
286.723865
11
7.092093
21
283.723605
0
LINE
8
boundary
62
5
39
2
10
7.092093
20
283.723605
11
7.886126
21
280.520856
0
LINE
8
boundary
62
5
39
2
10
7.886126
20
280.520856
11
8.724511
21
277.568807
0
LINE
8
boundary
62
5
39
2
10
8.724511
20
277.568807
11
9.725264
21
274.424505
0
LINE
8
boundary
62
5
39
2
10
9.725264
20
274.424505
11
10.752736
21
271.536570
0
LINE
8
boundary
62
5
39
2
10
10.752736
20
271.536570
11
11.914747
21
268.568706
0
LINE
8
boundary
62
5
39
2
10
11.914747
20
268.568706
11
13.171692
21
265.642804
0
LINE
8
boundary
62
5
39
2
10
13.171692
20
265.642804
11
14.572306
21
262.654986
0
LINE
8
boundary
62
5
39
2
10
14.572306
20
262.654986
11
15.967639
21
259.921966
0
LINE
8
boundary
62
5
39
2
10
15.967639
20
259.921966
11
17.559728
21
257.031530
0
LINE
8
boundary
62
5
39
2
10
17.559728
20
257.031530
11
19.189052
21
254.295824
0
LINE
8
boundary
62
5
39
2
10
19.189052
20
254.295824
11
20.906666
21
251.614447
0
LINE
8
boundary
62
5
39
2
10
20.906666
20
251.614447
11
22.710542
21
248.990549
0
LINE
8
boundary
62
5
39
2
10
22.710542
20
248.990549
11
24.530225
21
246.519942
0
LINE
8
boundary
62
5
39
2
10
24.530225
20
246.519942
11
26.498188
21
244.016458
0
LINE
8
boundary
62
5
39
2
10
26.498188
20
244.016458
11
28.621004
21
241.490004
0
LINE
8
boundary
62
5
39
2
10
28.621004
20
241.490004
11
30.750271
21
239.122631
0
LINE
8
boundary
62
5
39
2
10
30.750271
20
239.122631
11
32.875629
21
236.908957
0
LINE
8
annotation
62
1
39
211
10
179.940435
20
305.946766
11
179.940435
21
307.375516
0
LINE
8
annotation
62
1
39
211
10
24.853868
20
305.901474
11
26.282618
21
305.901474
0
LINE
8
annotation
62
1
39
211
10
102.395334
20
383.957488
11
102.395334
21
385.386238
0
LINE
8
annotation
62
1
39
211
10
102.395334
20
383.957488
11
102.395334
21
385.386238
0
LINE
8
annotation
62
1
39
211
10
102.395334
20
385.386238
11
102.395334
21
383.957488
0
LINE
8
annotation
62
1
39
211
10
102.395334
20
383.957488
11
103.824084
21
383.957488
0
LINE
8
annotation
62
1
39
211
10
102.395334
20
227.459775
11
102.395334
21
226.031025
0
LINE
8
annotation
62
1
39
211
10
191.184163
20
288.565298
11
178.672124
21
288.565298
0
LINE
8
annotation
62
1
39
211
10
178.672124
20
288.565298
11
190.233658
21
307.177884
0
LINE
8
annotation
62
1
39
211
10
190.233658
20
307.177884
11
190.233658
21
307.177884
0
LINE
8
annotation
62
1
39
211
10
190.233658
20
307.177884
11
190.247479
21
307.194987
0
LINE
8
annotation
62
1
39
211
10
190.247479
20
307.194987
11
190.260733
21
307.212235
0
LINE
8
annotation
62
1
39
211
10
190.260733
20
307.212235
11
190.273508
21
307.229774
0
LINE
8
annotation
62
1
39
211
10
190.273508
20
307.229774
11
190.285889
21
307.247749
0
LINE
8
annotation
62
1
39
211
10
190.285889
20
307.247749
11
190.297966
21
307.266306
0
LINE
8
annotation
62
1
39
211
10
190.297966
20
307.266306
11
190.309824
21
307.285589
0
LINE
8
annotation
62
1
39
211
10
190.309824
20
307.285589
11
190.321551
21
307.305746
0
LINE
8
annotation
62
1
39
211
10
190.321551
20
307.305746
11
190.333235
21
307.326920
0
LINE
8
annotation
62
1
39
211
10
190.333235
20
307.326920
11
190.344962
21
307.349257
0
LINE
8
annotation
62
1
39
211
10
190.344962
20
307.349257
11
190.344962
21
307.349257
0
LINE
8
annotation
62
1
39
211
10
190.344962
20
307.349257
11
190.822336
21
308.374218
0
LINE
8
annotation
62
1
39
211
10
190.822336
20
308.374218
11
191.101209
21
309.436679
0
LINE
8
annotation
62
1
39
211
10
191.101209
20
309.436679
11
191.188416
21
310.512635
0
LINE
8
annotation
62
1
39
211
10
191.188416
20
310.512635
11
191.090792
21
311.578077
0
LINE
8
annotation
62
1
39
211
10
191.090792
20
311.578077
11
190.815172
21
312.608999
0
LINE
8
annotation
62
1
39
211
10
190.815172
20
312.608999
11
190.368388
21
313.581393
0
LINE
8
annotation
62
1
39
211
10
190.368388
20
313.581393
11
189.757276
21
314.471252
0
LINE
8
annotation
62
1
39
211
10
189.757276
20
314.471252
11
188.988670
21
315.254569
0
LINE
8
annotation
62
1
39
211
10
188.988670
20
315.254569
11
188.069404
21
315.907337
0
LINE
8
annotation
62
1
39
211
10
188.069404
20
315.907337
11
188.069404
21
315.907337
0
LINE
8
annotation
62
1
39
211
10
188.069404
20
315.907337
11
187.041594
21
316.377926
0
LINE
8
annotation
62
1
39
211
10
187.041594
20
316.377926
11
185.977504
21
316.652503
0
LINE
8
annotation
62
1
39
211
10
185.977504
20
316.652503
11
184.900923
21
316.737245
0
LINE
8
annotation
62
1
39
211
10
184.900923
20
316.737245
11
183.835640
21
316.638335
0
LINE
8
annotation
62
1
39
211
10
183.835640
20
316.638335
11
182.805445
21
316.361951
0
LINE
8
annotation
62
1
39
211
10
182.805445
20
316.361951
11
181.834127
21
315.914273
0
LINE
8
annotation
62
1
39
211
10
181.834127
20
315.914273
11
180.945475
21
315.301481
0
LINE
8
annotation
62
1
39
211
10
180.945475
20
315.301481
11
180.163278
21
314.529756
0
LINE
8
annotation
62
1
39
211
10
180.163278
20
314.529756
11
179.511325
21
313.605277
0
LINE
8
annotation
62
1
39
211
10
179.511325
20
313.605277
11
178.689791
21
312.029347
0
LINE
8
hole
62
5
39
2
10
173.213220
20
498.016902
11
173.784720
21
498.016902
0
LINE
8
hole
62
5
39
2
10
173.784720
20
498.016902
11
173.784720
21
498.588402
0
LINE
8
hole
62
5
39
2
10
173.784720
20
498.588402
11
173.213220
21
498.588402
0
LINE
8
hole
62
5
39
2
10
173.213220
20
498.588402
11
173.213220
21
498.016902
0
LINE
8
hole
62
5
39
2
10
18.126653
20
497.971611
11
18.698153
21
497.971611
0
LINE
8
hole
62
5
39
2
10
18.698153
20
497.971611
11
18.698153
21
498.543111
0
LINE
8
hole
62
5
39
2
10
18.698153
20
498.543111
11
18.126653
21
498.543111
0
LINE
8
hole
62
5
39
2
10
18.126653
20
498.543111
11
18.126653
21
497.971611
0
LINE
8
hole
62
5
39
2
10
38.722956
20
448.245555
11
37.131695
21
450.135008
0
LINE
8
hole
62
5
39
2
10
37.131695
20
450.135008
11
35.891701
21
451.708595
0
LINE
8
hole
62
5
39
2
10
35.891701
20
451.708595
11
35.326170
21
452.450812
0
LINE
8
hole
62
5
39
2
10
35.326170
20
452.450812
11
34.137829
21
454.064238
0
LINE
8
hole
62
5
39
2
10
34.137829
20
454.064238
11
33.002715
21
455.715376
0
LINE
8
hole
62
5
39
2
10
33.002715
20
455.715376
11
32.486831
21
456.492578
0
LINE
8
hole
62
5
39
2
10
32.486831
20
456.492578
11
31.406009
21
458.179852
0
LINE
8
hole
62
5
39
2
10
31.406009
20
458.179852
11
30.380684
21
459.901434
0
LINE
8
hole
62
5
39
2
10
30.380684
20
459.901434
11
29.173317
21
462.056084
0
LINE
8
hole
62
5
39
2
10
29.173317
20
462.056084
11
28.036548
21
464.249278
0
LINE
8
hole
62
5
39
2
10
28.036548
20
464.249278
11
27.625983
21
465.086835
0
LINE
8
hole
62
5
39
2
10
27.625983
20
465.086835
11
26.773407
21
466.900169
0
LINE
8
hole
62
5
39
2
10
26.773407
20
466.900169
11
25.980323
21
468.740313
0
LINE
8
hole
62
5
39
2
10
25.980323
20
468.740313
11
25.059971
21
471.041532
0
LINE
8
hole
62
5
39
2
10
25.059971
20
471.041532
11
24.219907
21
473.357633
0
LINE
8
hole
62
5
39
2
10
24.219907
20
473.357633
11
23.454427
21
475.703706
0
LINE
8
hole
62
5
39
2
10
23.454427
20
475.703706
11
22.764956
21
478.075825
0
LINE
8
hole
62
5
39
2
10
22.764956
20
478.075825
11
22.524762
21
478.977143
0
LINE
8
hole
62
5
39
2
10
22.524762
20
478.977143
11
22.040339
21
480.921571
0
LINE
8
hole
62
5
39
2
10
22.040339
20
480.921571
11
21.521512
21
483.336721
0
LINE
8
hole
62
5
39
2
10
21.521512
20
483.336721
11
21.164697
21
485.308134
0
LINE
8
hole
62
5
39
2
10
21.164697
20
485.308134
11
20.789112
21
487.749522
0
LINE
8
hole
62
5
39
2
10
20.789112
20
487.749522
11
20.667956
21
488.674679
0
LINE
8
hole
62
5
39
2
10
20.667956
20
488.674679
11
20.440131
21
490.665505
0
LINE
8
hole
62
5
39
2
10
20.440131
20
490.665505
11
20.277249
21
492.662553
0
LINE
8
hole
62
5
39
2
10
20.277249
20
492.662553
11
20.216554
21
493.593412
0
LINE
8
hole
62
5
39
2
10
20.216554
20
493.593412
11
20.118734
21
495.594886
0
LINE
8
hole
62
5
39
2
10
20.118734
20
495.594886
11
20.086134
21
497.598062
0
LINE
8
hole
62
5
39
2
10
20.086134
20
497.598062
11
20.086138
21
498.531240
0
LINE
8
hole
62
5
39
2
10
20.086138
20
498.531240
11
20.118757
21
500.534755
0
LINE
8
hole
62
5
39
2
10
20.118757
20
500.534755
11
20.216561
21
502.535768
0
LINE
8
hole
62
5
39
2
10
20.216561
20
502.535768
11
20.277275
21
503.466926
0
LINE
8
hole
62
5
39
2
10
20.277275
20
503.466926
11
20.440175
21
505.464015
0
LINE
8
hole
62
5
39
2
10
20.440175
20
505.464015
11
20.667978
21
507.454560
0
LINE
8
hole
62
5
39
2
10
20.667978
20
507.454560
11
20.789149
21
508.379777
0
LINE
8
hole
62
5
39
2
10
20.789149
20
508.379777
11
21.081665
21
510.362130
0
LINE
8
hole
62
5
39
2
10
21.081665
20
510.362130
11
21.521630
21
512.792907
0
LINE
8
hole
62
5
39
2
10
21.521630
20
512.792907
11
21.942413
21
514.751619
0
LINE
8
hole
62
5
39
2
10
21.942413
20
514.751619
11
22.524802
21
517.152094
0
LINE
8
hole
62
5
39
2
10
22.524802
20
517.152094
11
22.765078
21
518.053699
0
LINE
8
hole
62
5
39
2
10
22.765078
20
518.053699
11
23.312503
21
519.981193
0
LINE
8
hole
62
5
39
2
10
23.312503
20
519.981193
11
24.064431
21
522.334349
0
LINE
8
hole
62
5
39
2
10
24.064431
20
522.334349
11
24.888821
21
524.651876
0
LINE
8
hole
62
5
39
2
10
24.888821
20
524.651876
11
25.795837
21
526.960724
0
LINE
8
hole
62
5
39
2
10
25.795837
20
526.960724
11
26.773565
21
529.229221
0
LINE
8
hole
62
5
39
2
10
26.773565
20
529.229221
11
27.626152
21
531.042562
0
LINE
8
hole
62
5
39
2
10
27.626152
20
531.042562
11
28.036749
21
531.880172
0
LINE
8
hole
62
5
39
2
10
28.036749
20
531.880172
11
28.947891
21
533.664804
0
LINE
8
hole
62
5
39
2
10
28.947891
20
533.664804
11
30.142243
21
535.827266
0
LINE
8
hole
62
5
39
2
10
30.142243
20
535.827266
11
31.406229
21
537.949531
0
LINE
8
hole
62
5
39
2
10
31.406229
20
537.949531
11
32.487046
21
539.636778
0
LINE
8
hole
62
5
39
2
10
32.487046
20
539.636778
11
33.002939
21
540.413993
0
LINE
8
hole
62
5
39
2
10
33.002939
20
540.413993
11
34.138102
21
542.065195
0
LINE
8
hole
62
5
39
2
10
34.138102
20
542.065195
11
35.326291
21
543.678386
0
LINE
8
hole
62
5
39
2
10
35.326291
20
543.678386
11
35.891825
21
544.420600
0
LINE
8
hole
62
5
39
2
10
35.891825
20
544.420600
11
37.132063
21
545.994482
0
LINE
8
hole
62
5
39
2
10
37.132063
20
545.994482
11
38.422627
21
547.526868
0
LINE
8
hole
62
5
39
2
10
38.422627
20
547.526868
11
40.063128
21
549.373528
0
LINE
8
hole
62
5
39
2
10
40.063128
20
549.373528
11
40.698310
21
550.057023
0
LINE
8
hole
62
5
39
2
10
40.698310
20
550.057023
11
42.086036
21
551.502402
0
LINE
8
hole
62
5
39
2
10
42.086036
20
551.502402
11
43.853980
21
553.227687
0
LINE
8
hole
62
5
39
2
10
43.853980
20
553.227687
11
45.677205
21
554.894559
0
LINE
8
hole
62
5
39
2
10
45.677205
20
554.894559
11
47.199205
21
556.197672
0
LINE
8
hole
62
5
39
2
10
47.199205
20
556.197672
11
47.917591
21
556.792762
0
LINE
8
hole
62
5
39
2
10
47.917591
20
556.792762
11
49.481364
21
558.045792
0
LINE
8
hole
62
5
39
2
10
49.481364
20
558.045792
11
51.458280
21
559.526827
0
LINE
8
hole
62
5
39
2
10
51.458280
20
559.526827
11
53.482540
21
560.942841
0
LINE
8
hole
62
5
39
2
10
53.482540
20
560.942841
11
55.551608
21
562.292106
0
LINE
8
hole
62
5
39
2
10
55.551608
20
562.292106
11
57.663617
21
563.573369
0
LINE
8
hole
62
5
39
2
10
57.663617
20
563.573369
11
59.816289
21
564.785241
0
LINE
8
hole
62
5
39
2
10
59.816289
20
564.785241
11
61.593119
21
565.710715
0
LINE
8
hole
62
5
39
2
10
61.593119
20
565.710715
11
63.813479
21
566.793634
0
LINE
8
hole
62
5
39
2
10
63.813479
20
566.793634
11
64.660810
21
567.183627
0
LINE
8
hole
62
5
39
2
10
64.660810
20
567.183627
11
66.494511
21
567.991709
0
LINE
8
hole
62
5
39
2
10
66.494511
20
567.991709
11
68.786136
21
568.913737
0
LINE
8
hole
62
5
39
2
10
68.786136
20
568.913737
11
70.668230
21
569.600680
0
LINE
8
hole
62
5
39
2
10
70.668230
20
569.600680
11
71.549877
21
569.906306
0
LINE
8
hole
62
5
39
2
10
71.549877
20
569.906306
11
73.453504
21
570.531691
0
LINE
8
hole
62
5
39
2
10
73.453504
20
570.531691
11
75.376535
21
571.094780
0
LINE
8
hole
62
5
39
2
10
75.376535
20
571.094780
11
77.764591
21
571.726087
0
LINE
8
hole
62
5
39
2
10
77.764591
20
571.726087
11
78.671520
21
571.944210
0
LINE
8
hole
62
5
39
2
10
78.671520
20
571.944210
11
80.627196
21
572.381018
0
LINE
8
hole
62
5
39
2
10
80.627196
20
572.381018
11
82.595874
21
572.753891
0
LINE
8
hole
62
5
39
2
10
82.595874
20
572.753891
11
85.033890
21
573.149313
0
LINE
8
hole
62
5
39
2
10
85.033890
20
573.149313
11
87.483881
21
573.465193
0
LINE
8
hole
62
5
39
2
10
87.483881
20
573.465193
11
88.411455
21
573.563701
0
LINE
8
hole
62
5
39
2
10
88.411455
20
573.563701
11
90.407197
21
573.742859
0
LINE
8
hole
62
5
39
2
10
90.407197
20
573.742859
11
92.407484
21
573.856937
0
LINE
8
hole
62
5
39
2
10
92.407484
20
573.856937
11
94.876358
21
573.932424
0
LINE
8
hole
62
5
39
2
10
94.876358
20
573.932424
11
95.809298
21
573.940014
0
LINE
8
hole
62
5
39
2
10
95.809298
20
573.940014
11
97.812778
21
573.923704
0
LINE
8
hole
62
5
39
2
10
97.812778
20
573.923704
11
100.280840
21
573.823221
0
LINE
8
hole
62
5
39
2
10
100.280840
20
573.823221
11
102.279286
21
573.676579
0
LINE
8
hole
62
5
39
2
10
102.279286
20
573.676579
11
103.208667
21
573.593154
0
LINE
8
hole
62
5
39
2
10
103.208667
20
573.593154
11
105.201002
21
573.381574
0
LINE
8
hole
62
5
39
2
10
105.201002
20
573.381574
11
107.185619
21
573.105210
0
LINE
8
hole
62
5
39
2
10
107.185619
20
573.105210
11
108.107279
21
572.961540
0
LINE
8
hole
62
5
39
2
10
108.107279
20
572.961540
11
110.081854
21
572.620732
0
LINE
8
hole
62
5
39
2
10
110.081854
20
572.620732
11
112.501265
21
572.121567
0
LINE
8
hole
62
5
39
2
10
112.501265
20
572.121567
11
114.902869
21
571.543962
0
LINE
8
hole
62
5
39
2
10
114.902869
20
571.543962
11
116.834848
21
571.012224
0
LINE
8
hole
62
5
39
2
10
116.834848
20
571.012224
11
117.730363
21
570.749997
0
LINE
8
hole
62
5
39
2
10
117.730363
20
570.749997
11
119.643651
21
570.155768
0
LINE
8
hole
62
5
39
2
10
119.643651
20
570.155768
11
121.536939
21
569.499458
0
LINE
8
hole
62
5
39
2
10
121.536939
20
569.499458
11
122.413495
21
569.179521
0
LINE
8
hole
62
5
39
2
10
122.413495
20
569.179521
11
124.284064
21
568.462062
0
LINE
8
hole
62
5
39
2
10
124.284064
20
568.462062
11
126.130677
21
567.683933
0
LINE
8
hole
62
5
39
2
10
126.130677
20
567.683933
11
126.984299
21
567.307756
0
LINE
8
hole
62
5
39
2
10
126.984299
20
567.307756
11
128.804536
21
566.469982
0
LINE
8
hole
62
5
39
2
10
128.804536
20
566.469982
11
130.596313
21
565.573501
0
LINE
8
hole
62
5
39
2
10
130.596313
20
565.573501
11
132.775260
21
564.410395
0
LINE
8
hole
62
5
39
2
10
132.775260
20
564.410395
11
134.915339
21
563.176896
0
LINE
8
hole
62
5
39
2
10
134.915339
20
563.176896
11
137.014273
21
561.874292
0
LINE
8
hole
62
5
39
2
10
137.014273
20
561.874292
11
137.795885
21
561.364595
0
LINE
8
hole
62
5
39
2
10
137.795885
20
561.364595
11
139.456088
21
560.243042
0
LINE
8
hole
62
5
39
2
10
139.456088
20
560.243042
11
141.079050
21
559.067921
0
LINE
8
hole
62
5
39
2
10
141.079050
20
559.067921
11
141.825807
21
558.508478
0
LINE
8
hole
62
5
39
2
10
141.825807
20
558.508478
11
143.409585
21
557.281219
0
LINE
8
hole
62
5
39
2
10
143.409585
20
557.281219
11
145.311846
21
555.705439
0
LINE
8
hole
62
5
39
2
10
145.311846
20
555.705439
11
147.161853
21
554.068560
0
LINE
8
hole
62
5
39
2
10
147.161853
20
554.068560
11
148.618558
21
552.692587
0
LINE
8
hole
62
5
39
2
10
148.618558
20
552.692587
11
149.286348
21
552.040910
0
LINE
8
hole
62
5
39
2
10
149.286348
20
552.040910
11
150.697280
21
550.618443
0
LINE
8
hole
62
5
39
2
10
150.697280
20
550.618443
11
152.378884
21
548.808925
0
LINE
8
hole
62
5
39
2
10
152.378884
20
548.808925
11
154.000702
21
546.945641
0
LINE
8
hole
62
5
39
2
10
154.000702
20
546.945641
11
155.561053
21
545.030515
0
LINE
8
hole
62
5
39
2
10
155.561053
20
545.030515
11
156.775326
21
543.436877
0
LINE
8
hole
62
5
39
2
10
156.775326
20
543.436877
11
158.220084
21
541.433139
0
LINE
8
hole
62
5
39
2
10
158.220084
20
541.433139
11
158.748554
21
540.664438
0
LINE
8
hole
62
5
39
2
10
158.748554
20
540.664438
11
159.856657
21
538.995052
0
LINE
8
hole
62
5
39
2
10
159.856657
20
538.995052
11
160.909909
21
537.290368
0
LINE
8
hole
62
5
39
2
10
160.909909
20
537.290368
11
161.387358
21
536.488722
0
LINE
8
hole
62
5
39
2
10
161.387358
20
536.488722
11
162.384480
21
534.750785
0
LINE
8
hole
62
5
39
2
10
162.384480
20
534.750785
11
163.543383
21
532.569329
0
LINE
8
hole
62
5
39
2
10
163.543383
20
532.569329
11
164.425250
21
530.770316
0
LINE
8
hole
62
5
39
2
10
164.425250
20
530.770316
11
165.453537
21
528.524479
0
LINE
8
hole
62
5
39
2
10
165.453537
20
528.524479
11
166.408228
21
526.246241
0
LINE
8
hole
62
5
39
2
10
166.408228
20
526.246241
11
166.749501
21
525.377688
0
LINE
8
hole
62
5
39
2
10
166.749501
20
525.377688
11
167.451699
21
523.501382
0
LINE
8
hole
62
5
39
2
10
167.451699
20
523.501382
11
168.092509
21
521.603077
0
LINE
8
hole
62
5
39
2
10
168.092509
20
521.603077
11
168.820545
21
519.242403
0
LINE
8
hole
62
5
39
2
10
168.820545
20
519.242403
11
169.075402
21
518.345041
0
LINE
8
hole
62
5
39
2
10
169.075402
20
518.345041
11
169.591400
21
516.408883
0
LINE
8
hole
62
5
39
2
10
169.591400
20
516.408883
11
170.044033
21
514.457185
0
LINE
8
hole
62
5
39
2
10
170.044033
20
514.457185
11
170.538402
21
512.036815
0
LINE
8
hole
62
5
39
2
10
170.538402
20
512.036815
11
170.704533
21
511.118939
0
LINE
8
hole
62
5
39
2
10
170.704533
20
511.118939
11
171.029298
21
509.141562
0
LINE
8
hole
62
5
39
2
10
171.029298
20
509.141562
11
171.350066
21
506.692273
0
LINE
8
hole
62
5
39
2
10
171.350066
20
506.692273
11
171.545455
21
504.698056
0
LINE
8
hole
62
5
39
2
10
171.545455
20
504.698056
11
171.621293
21
503.768354
0
LINE
8
hole
62
5
39
2
10
171.621293
20
503.768354
11
171.751686
21
501.768732
0
LINE
8
hole
62
5
39
2
10
171.751686
20
501.768732
11
171.832091
21
499.299866
0
LINE
8
hole
62
5
39
2
10
171.832091
20
499.299866
11
171.832100
21
496.829684
0
LINE
8
hole
62
5
39
2
10
171.832100
20
496.829684
11
171.766901
21
494.827160
0
LINE
8
hole
62
5
39
2
10
171.766901
20
494.827160
11
171.621321
21
492.361125
0
LINE
8
hole
62
5
39
2
10
171.621321
20
492.361125
11
171.545484
21
491.431378
0
LINE
8
hole
62
5
39
2
10
171.545484
20
491.431378
11
171.350122
21
489.437245
0
LINE
8
hole
62
5
39
2
10
171.350122
20
489.437245
11
171.089959
21
487.450622
0
LINE
8
hole
62
5
39
2
10
171.089959
20
487.450622
11
170.704628
21
485.010578
0
LINE
8
hole
62
5
39
2
10
170.704628
20
485.010578
11
170.538455
21
484.092438
0
LINE
8
hole
62
5
39
2
10
170.538455
20
484.092438
11
170.149572
21
482.126968
0
LINE
8
hole
62
5
39
2
10
170.149572
20
482.126968
11
169.591505
21
479.720550
0
LINE
8
hole
62
5
39
2
10
169.591505
20
479.720550
11
169.075512
21
477.784363
0
LINE
8
hole
62
5
39
2
10
169.075512
20
477.784363
11
168.820681
21
476.887075
0
LINE
8
hole
62
5
39
2
10
168.820681
20
476.887075
11
168.241916
21
474.968566
0
LINE
8
hole
62
5
39
2
10
168.241916
20
474.968566
11
167.451905
21
472.628244
0
LINE
8
hole
62
5
39
2
10
167.451905
20
472.628244
11
166.749583
21
470.751581
0
LINE
8
hole
62
5
39
2
10
166.749583
20
470.751581
11
166.408340
21
469.883082
0
LINE
8
hole
62
5
39
2
10
166.408340
20
469.883082
11
165.645354
21
468.030411
0
LINE
8
hole
62
5
39
2
10
165.645354
20
468.030411
11
164.630859
21
465.778195
0
LINE
8
hole
62
5
39
2
10
164.630859
20
465.778195
11
163.543607
21
463.560163
0
LINE
8
hole
62
5
39
2
10
163.543607
20
463.560163
11
162.603625
21
461.790753
0
LINE
8
hole
62
5
39
2
10
162.603625
20
461.790753
11
161.387491
21
459.640545
0
LINE
8
hole
62
5
39
2
10
161.387491
20
459.640545
11
160.910005
21
458.838829
0
LINE
8
hole
62
5
39
2
10
160.910005
20
458.838829
11
159.856937
21
457.134407
0
LINE
8
hole
62
5
39
2
10
159.856937
20
457.134407
11
158.748837
21
455.465016
0
LINE
8
hole
62
5
39
2
10
158.748837
20
455.465016
11
158.220205
21
454.696065
0
LINE
8
hole
62
5
39
2
10
158.220205
20
454.696065
11
157.058444
21
453.063750
0
LINE
8
hole
62
5
39
2
10
157.058444
20
453.063750
11
155.561293
21
451.098825
0
LINE
8
hole
62
5
39
2
10
155.561293
20
451.098825
11
154.295818
21
449.545590
0
LINE
8
hole
62
5
39
2
10
154.295818
20
449.545590
11
152.685634
21
447.672501
0
LINE
8
hole
62
5
39
2
10
152.685634
20
447.672501
11
151.015302
21
445.852788
0
LINE
8
hole
62
5
39
2
10
151.015302
20
445.852788
11
149.286524
21
444.088301
0
LINE
8
hole
62
5
39
2
10
149.286524
20
444.088301
11
148.618706
21
443.436591
0
LINE
8
hole
62
5
39
2
10
148.618706
20
443.436591
11
147.162226
21
442.060794
0
LINE
8
hole
62
5
39
2
10
147.162226
20
442.060794
11
145.661723
21
440.733148
0
LINE
8
hole
62
5
39
2
10
145.661723
20
440.733148
11
143.769273
21
439.145762
0
LINE
8
hole
62
5
39
2
10
143.769273
20
439.145762
11
141.825969
21
437.620683
0
LINE
8
hole
62
5
39
2
10
141.825969
20
437.620683
11
141.079390
21
437.061371
0
LINE
8
hole
62
5
39
2
10
141.079390
20
437.061371
11
139.456502
21
435.886291
0
LINE
8
hole
62
5
39
2
10
139.456502
20
435.886291
11
137.796070
21
434.764566
0
LINE
8
hole
62
5
39
2
10
137.796070
20
434.764566
11
137.014685
21
434.255009
0
LINE
8
hole
62
5
39
2
10
137.014685
20
434.255009
11
135.318667
21
433.187942
0
LINE
8
hole
62
5
39
2
10
135.318667
20
433.187942
11
133.186006
21
431.941158
0
LINE
8
hole
62
5
39
2
10
133.186006
20
431.941158
11
131.014092
21
430.764580
0
LINE
8
hole
62
5
39
2
10
131.014092
20
430.764580
11
128.804889
21
429.659224
0
LINE
8
hole
62
5
39
2
10
128.804889
20
429.659224
11
126.984710
21
428.821452
0
LINE
8
hole
62
5
39
2
10
126.984710
20
428.821452
11
126.130829
21
428.445159
0
LINE
8
hole
62
5
39
2
10
126.130829
20
428.445159
11
124.284609
21
427.667191
0
LINE
8
hole
62
5
39
2
10
124.284609
20
427.667191
11
122.413689
21
426.949579
0
LINE
8
hole
62
5
39
2
10
122.413689
20
426.949579
11
121.537134
21
426.629640
0
LINE
8
hole
62
5
39
2
10
121.537134
20
426.629640
11
119.644207
21
425.973448
0
LINE
8
hole
62
5
39
2
10
119.644207
20
425.973448
11
117.730562
21
425.379092
0
LINE
8
hole
62
5
39
2
10
117.730562
20
425.379092
11
116.835032
21
425.116859
0
LINE
8
hole
62
5
39
2
10
116.835032
20
425.116859
11
114.903457
21
424.585229
0
LINE
8
hole
62
5
39
2
10
114.903457
20
424.585229
11
112.955462
21
424.116703
0
LINE
8
hole
62
5
39
2
10
112.955462
20
424.116703
11
110.539425
21
423.602686
0
LINE
8
hole
62
5
39
2
10
110.539425
20
423.602686
11
108.107720
21
423.167566
0
LINE
8
hole
62
5
39
2
10
108.107720
20
423.167566
11
107.186017
21
423.023886
0
LINE
8
hole
62
5
39
2
10
107.186017
20
423.023886
11
105.201487
21
422.747521
0
LINE
8
hole
62
5
39
2
10
105.201487
20
422.747521
11
103.208875
21
422.535899
0
LINE
8
hole
62
5
39
2
10
103.208875
20
422.535899
11
102.279494
21
422.452470
0
LINE
8
hole
62
5
39
2
10
102.279494
20
422.452470
11
100.281426
21
422.305847
0
LINE
8
hole
62
5
39
2
10
100.281426
20
422.305847
11
98.279455
21
422.224322
0
LINE
8
hole
62
5
39
2
10
98.279455
20
422.224322
11
95.809384
21
422.189024
0
LINE
8
hole
62
5
39
2
10
95.809384
20
422.189024
11
94.876256
21
422.196618
0
LINE
8
hole
62
5
39
2
10
94.876256
20
422.196618
11
92.872951
21
422.245547
0
LINE
8
hole
62
5
39
2
10
92.872951
20
422.245547
11
90.406687
21
422.386216
0
LINE
8
hole
62
5
39
2
10
90.406687
20
422.386216
11
88.411071
21
422.565373
0
LINE
8
hole
62
5
39
2
10
88.411071
20
422.565373
11
87.483437
21
422.663889
0
LINE
8
hole
62
5
39
2
10
87.483437
20
422.663889
11
85.494583
21
422.907897
0
LINE
8
hole
62
5
39
2
10
85.494583
20
422.907897
11
83.053716
21
423.288406
0
LINE
8
hole
62
5
39
2
10
83.053716
20
423.288406
11
80.626695
21
423.748112
0
LINE
8
hole
62
5
39
2
10
80.626695
20
423.748112
11
78.671376
21
424.184855
0
LINE
8
hole
62
5
39
2
10
78.671376
20
424.184855
11
77.764112
21
424.403062
0
LINE
8
hole
62
5
39
2
10
77.764112
20
424.403062
11
75.823828
21
424.903262
0
LINE
8
hole
62
5
39
2
10
75.823828
20
424.903262
11
73.453129
21
425.597456
0
LINE
8
hole
62
5
39
2
10
73.453129
20
425.597456
11
71.549455
21
426.222872
0
LINE
8
hole
62
5
39
2
10
71.549455
20
426.222872
11
70.668076
21
426.528408
0
LINE
8
hole
62
5
39
2
10
70.668076
20
426.528408
11
68.785683
21
427.215479
0
LINE
8
hole
62
5
39
2
10
68.785683
20
427.215479
11
66.926821
21
427.963390
0
LINE
8
hole
62
5
39
2
10
66.926821
20
427.963390
11
64.660617
21
428.945490
0
LINE
8
hole
62
5
39
2
10
64.660617
20
428.945490
11
63.813015
21
429.335614
0
LINE
8
hole
62
5
39
2
10
63.813015
20
429.335614
11
62.006710
21
430.202890
0
LINE
8
hole
62
5
39
2
10
62.006710
20
430.202890
11
59.815737
21
431.344097
0
LINE
8
hole
62
5
39
2
10
59.815737
20
431.344097
11
58.069969
21
432.326909
0
LINE
8
hole
62
5
39
2
10
58.069969
20
432.326909
11
55.950047
21
433.595228
0
LINE
8
hole
62
5
39
2
10
55.950047
20
433.595228
11
53.872798
21
434.931710
0
LINE
8
hole
62
5
39
2
10
53.872798
20
434.931710
11
51.840353
21
436.334941
0
LINE
8
hole
62
5
39
2
10
51.840353
20
436.334941
11
49.854260
21
437.803897
0
LINE
8
hole
62
5
39
2
10
49.854260
20
437.803897
11
47.917427
21
439.336398
0
LINE
8
hole
62
5
39
2
10
47.917427
20
439.336398
11
47.198870
21
439.931630
0
LINE
8
hole
62
5
39
2
10
47.198870
20
439.931630
11
45.676818
21
441.234807
0
LINE
8
hole
62
5
39
2
10
45.676818
20
441.234807
11
44.198130
21
442.586712
0
LINE
8
hole
62
5
39
2
10
44.198130
20
442.586712
11
42.419569
21
444.301160
0
LINE
8
hole
62
5
39
2
10
42.419569
20
444.301160
11
40.697958
21
446.072383
0
LINE
8
hole
62
5
39
2
10
40.697958
20
446.072383
11
40.062986
21
446.755663
0
LINE
8
hole
62
5
39
2
10
40.062986
20
446.755663
11
38.722956
21
448.245555
0
LINE
8
boundary
62
5
39
2
10
31.087412
20
433.717806
11
32.805160
21
432.041489
0
LINE
8
boundary
62
5
39
2
10
32.805160
20
432.041489
11
33.216357
21
431.640209
0
LINE
8
boundary
62
5
39
2
10
33.216357
20
431.640209
11
33.640384
21
431.252540
0
LINE
8
boundary
62
5
39
2
10
33.640384
20
431.252540
11
35.411622
21
429.633170
0
LINE
8
boundary
62
5
39
2
10
35.411622
20
429.633170
11
35.847913
21
429.259621
0
LINE
8
boundary
62
5
39
2
10
35.847913
20
429.259621
11
37.671206
21
427.698530
0
LINE
8
boundary
62
5
39
2
10
37.671206
20
427.698530
11
38.119542
21
427.339283
0
LINE
8
boundary
62
5
39
2
10
38.119542
20
427.339283
11
39.992460
21
425.838539
0
LINE
8
boundary
62
5
39
2
10
39.992460
20
425.838539
11
40.452298
21
425.494040
0
LINE
8
boundary
62
5
39
2
10
40.452298
20
425.494040
11
42.372936
21
424.055151
0
LINE
8
boundary
62
5
39
2
10
42.372936
20
424.055151
11
44.339529
21
422.679444
0
LINE
8
boundary
62
5
39
2
10
44.339529
20
422.679444
11
44.810308
21
422.350118
0
LINE
8
boundary
62
5
39
2
10
44.810308
20
422.350118
11
46.820835
21
421.039018
0
LINE
8
boundary
62
5
39
2
10
46.820835
20
421.039018
11
47.301922
21
420.725296
0
LINE
8
boundary
62
5
39
2
10
47.301922
20
420.725296
11
47.792983
21
420.427389
0
LINE
8
boundary
62
5
39
2
10
47.792983
20
420.427389
11
49.845160
21
419.182413
0
LINE
8
boundary
62
5
39
2
10
49.845160
20
419.182413
11
50.345822
21
418.900552
0
LINE
8
boundary
62
5
39
2
10
50.345822
20
418.900552
11
52.437045
21
417.723256
0
LINE
8
boundary
62
5
39
2
10
52.437045
20
417.723256
11
54.565779
21
416.614484
0
LINE
8
boundary
62
5
39
2
10
54.565779
20
416.614484
11
55.075299
21
416.349098
0
LINE
8
boundary
62
5
39
2
10
55.075299
20
416.349098
11
55.593274
21
416.100392
0
LINE
8
boundary
62
5
39
2
10
55.593274
20
416.100392
11
57.756710
21
415.061642
0
LINE
8
boundary
62
5
39
2
10
57.756710
20
415.061642
11
59.953022
21
414.093738
0
LINE
8
boundary
62
5
39
2
10
59.953022
20
414.093738
11
60.478665
21
413.862098
0
LINE
8
boundary
62
5
39
2
10
60.478665
20
413.862098
11
61.011548
21
413.647692
0
LINE
8
boundary
62
5
39
2
10
61.011548
20
413.647692
11
63.238239
21
412.751807
0
LINE
8
boundary
62
5
39
2
10
63.238239
20
412.751807
11
65.492850
21
411.928868
0
LINE
8
boundary
62
5
39
2
10
65.492850
20
411.928868
11
66.032538
21
411.731887
0
LINE
8
boundary
62
5
39
2
10
66.032538
20
411.731887
11
66.578402
21
411.552554
0
LINE
8
boundary
62
5
39
2
10
66.578402
20
411.552554
11
68.858327
21
410.803548
0
LINE
8
boundary
62
5
39
2
10
68.858327
20
410.803548
11
71.161746
21
410.129042
0
LINE
8
boundary
62
5
39
2
10
71.161746
20
410.129042
11
71.713162
21
409.967576
0
LINE
8
boundary
62
5
39
2
10
71.713162
20
409.967576
11
72.269539
21
409.824139
0
LINE
8
boundary
62
5
39
2
10
72.269539
20
409.824139
11
74.593368
21
409.225063
0
LINE
8
boundary
62
5
39
2
10
74.593368
20
409.225063
11
76.935858
21
408.701841
0
LINE
8
boundary
62
5
39
2
10
76.935858
20
408.701841
11
77.496444
21
408.576631
0
LINE
8
boundary
62
5
39
2
10
77.496444
20
408.576631
11
78.060829
21
408.469729
0
LINE
8
boundary
62
5
39
2
10
78.060829
20
408.469729
11
80.419059
21
408.023064
0
LINE
8
boundary
62
5
39
2
10
80.419059
20
408.023064
11
82.790295
21
407.653423
0
LINE
8
boundary
62
5
39
2
10
82.790295
20
407.653423
11
83.358089
21
407.564913
0
LINE
8
boundary
62
5
39
2
10
83.358089
20
407.564913
11
85.740062
21
407.272658
0
LINE
8
boundary
62
5
39
2
10
85.740062
20
407.272658
11
86.310513
21
407.202668
0
LINE
8
boundary
62
5
39
2
10
86.310513
20
407.202668
11
88.701069
21
406.988054
0
LINE
8
boundary
62
5
39
2
10
88.701069
20
406.988054
11
89.273109
21
406.936703
0
LINE
8
boundary
62
5
39
2
10
89.273109
20
406.936703
11
89.846537
21
406.903997
0
LINE
8
boundary
62
5
39
2
10
89.846537
20
406.903997
11
92.242930
21
406.767329
0
LINE
8
boundary
62
5
39
2
10
92.242930
20
406.767329
11
92.817323
21
406.753299
0
LINE
8
boundary
62
5
39
2
10
92.817323
20
406.753299
11
95.216681
21
406.694702
0
LINE
8
boundary
62
5
39
2
10
95.216681
20
406.694702
11
97.616674
21
406.714234
0
LINE
8
boundary
62
5
39
2
10
97.616674
20
406.714234
11
98.191240
21
406.718911
0
LINE
8
boundary
62
5
39
2
10
98.191240
20
406.718911
11
98.765256
21
406.742285
0
LINE
8
boundary
62
5
39
2
10
98.765256
20
406.742285
11
101.163368
21
406.839939
0
LINE
8
boundary
62
5
39
2
10
101.163368
20
406.839939
11
103.557093
21
407.015592
0
LINE
8
boundary
62
5
39
2
10
103.557093
20
407.015592
11
104.129972
21
407.057632
0
LINE
8
boundary
62
5
39
2
10
104.129972
20
407.057632
11
106.516483
21
407.311081
0
LINE
8
boundary
62
5
39
2
10
106.516483
20
407.311081
11
107.087781
21
407.371757
0
LINE
8
boundary
62
5
39
2
10
107.087781
20
407.371757
11
107.656803
21
407.450992
0
LINE
8
boundary
62
5
39
2
10
107.656803
20
407.450992
11
110.034046
21
407.782030
0
LINE
8
boundary
62
5
39
2
10
110.034046
20
407.782030
11
110.600263
21
407.879759
0
LINE
8
boundary
62
5
39
2
10
110.600263
20
407.879759
11
112.965187
21
408.287963
0
LINE
8
boundary
62
5
39
2
10
112.965187
20
408.287963
11
115.315799
21
408.772943
0
LINE
8
boundary
62
5
39
2
10
115.315799
20
408.772943
11
115.878385
21
408.889021
0
LINE
8
boundary
62
5
39
2
10
115.878385
20
408.889021
11
116.436802
21
409.023325
0
LINE
8
boundary
62
5
39
2
10
116.436802
20
409.023325
11
118.770422
21
409.584606
0
LINE
8
boundary
62
5
39
2
10
118.770422
20
409.584606
11
119.324490
21
409.737105
0
LINE
8
boundary
62
5
39
2
10
119.324490
20
409.737105
11
121.638401
21
410.373967
0
LINE
8
boundary
62
5
39
2
10
121.638401
20
410.373967
11
123.930253
21
411.085780
0
LINE
8
boundary
62
5
39
2
10
123.930253
20
411.085780
11
124.478968
21
411.256204
0
LINE
8
boundary
62
5
39
2
10
124.478968
20
411.256204
11
126.746594
21
412.042283
0
LINE
8
boundary
62
5
39
2
10
126.746594
20
412.042283
11
127.289413
21
412.230457
0
LINE
8
boundary
62
5
39
2
10
127.289413
20
412.230457
11
127.825823
21
412.436196
0
LINE
8
boundary
62
5
39
2
10
127.825823
20
412.436196
11
130.066817
21
413.295743
0
LINE
8
boundary
62
5
39
2
10
130.066817
20
413.295743
11
130.596316
21
413.518866
0
LINE
8
boundary
62
5
39
2
10
130.596316
20
413.518866
11
132.807952
21
414.450831
0
LINE
8
boundary
62
5
39
2
10
132.807952
20
414.450831
11
134.988146
21
415.454296
0
LINE
8
boundary
62
5
39
2
10
134.988146
20
415.454296
11
135.509963
21
415.694474
0
LINE
8
boundary
62
5
39
2
10
135.509963
20
415.694474
11
137.656240
21
416.768332
0
LINE
8
boundary
62
5
39
2
10
137.656240
20
416.768332
11
138.170029
21
417.025400
0
LINE
8
boundary
62
5
39
2
10
138.170029
20
417.025400
11
140.280529
21
418.168719
0
LINE
8
boundary
62
5
39
2
10
140.280529
20
418.168719
11
140.785546
21
418.442301
0
LINE
8
boundary
62
5
39
2
10
140.785546
20
418.442301
11
141.281374
21
418.732166
0
LINE
8
boundary
62
5
39
2
10
141.281374
20
418.732166
11
143.353503
21
419.943554
0
LINE
8
boundary
62
5
39
2
10
143.353503
20
419.943554
11
143.839843
21
420.249536
0
LINE
8
boundary
62
5
39
2
10
143.839843
20
420.249536
11
145.871215
21
421.527595
0
LINE
8
boundary
62
5
39
2
10
145.871215
20
421.527595
11
146.347275
21
421.849203
0
LINE
8
boundary
62
5
39
2
10
146.347275
20
421.849203
11
148.336002
21
423.192717
0
LINE
8
boundary
62
5
39
2
10
148.336002
20
423.192717
11
150.279811
21
424.600147
0
LINE
8
boundary
62
5
39
2
10
150.279811
20
424.600147
11
150.745179
21
424.937104
0
LINE
8
boundary
62
5
39
2
10
150.745179
20
424.937104
11
151.199352
21
425.289040
0
LINE
8
boundary
62
5
39
2
10
151.199352
20
425.289040
11
153.096548
21
426.759188
0
LINE
8
boundary
62
5
39
2
10
153.096548
20
426.759188
11
154.944634
21
428.290087
0
LINE
8
boundary
62
5
39
2
10
154.944634
20
428.290087
11
155.387105
21
428.656621
0
LINE
8
boundary
62
5
39
2
10
155.387105
20
428.656621
11
155.817373
21
429.037323
0
LINE
8
boundary
62
5
39
2
10
155.817373
20
429.037323
11
157.614862
21
430.627770
0
LINE
8
boundary
62
5
39
2
10
157.614862
20
430.627770
11
158.032666
21
431.022426
0
LINE
8
boundary
62
5
39
2
10
158.032666
20
431.022426
11
159.777308
21
432.670397
0
LINE
8
boundary
62
5
39
2
10
159.777308
20
432.670397
11
161.467310
21
434.374211
0
LINE
8
boundary
62
5
39
2
10
161.467310
20
434.374211
11
161.871947
21
434.782159
0
LINE
8
boundary
62
5
39
2
10
161.871947
20
434.782159
11
163.505730
21
436.540229
0
LINE
8
boundary
62
5
39
2
10
163.505730
20
436.540229
11
163.896821
21
436.961073
0
LINE
8
boundary
62
5
39
2
10
163.896821
20
436.961073
11
165.472701
21
438.771599
0
LINE
8
boundary
62
5
39
2
10
165.472701
20
438.771599
11
165.849787
21
439.204835
0
LINE
8
boundary
62
5
39
2
10
165.849787
20
439.204835
11
166.212562
21
439.650101
0
LINE
8
boundary
62
5
39
2
10
166.212562
20
439.650101
11
167.728586
21
441.510876
0
LINE
8
boundary
62
5
39
2
10
167.728586
20
441.510876
11
168.076876
21
441.967977
0
LINE
8
boundary
62
5
39
2
10
168.076876
20
441.967977
11
169.531414
21
443.876929
0
LINE
8
boundary
62
5
39
2
10
169.531414
20
443.876929
11
169.864559
21
444.345010
0
LINE
8
boundary
62
5
39
2
10
169.864559
20
444.345010
11
171.256159
21
446.300289
0
LINE
8
boundary
62
5
39
2
10
171.256159
20
446.300289
11
172.583393
21
448.299814
0
LINE
8
boundary
62
5
39
2
10
172.583393
20
448.299814
11
172.901146
21
448.778525
0
LINE
8
boundary
62
5
39
2
10
172.901146
20
448.778525
11
173.203109
21
449.267259
0
LINE
8
boundary
62
5
39
2
10
173.203109
20
449.267259
11
174.464683
21
451.309145
0
LINE
8
boundary
62
5
39
2
10
174.464683
20
451.309145
11
175.658960
21
453.390722
0
LINE
8
boundary
62
5
39
2
10
175.658960
20
453.390722
11
175.944893
21
453.889091
0
LINE
8
boundary
62
5
39
2
10
175.944893
20
453.889091
11
176.214416
21
454.396436
0
LINE
8
boundary
62
5
39
2
10
176.214416
20
454.396436
11
177.340467
21
456.516081
0
LINE
8
boundary
62
5
39
2
10
177.340467
20
456.516081
11
177.593352
21
457.031965
0
LINE
8
boundary
62
5
39
2
10
177.593352
20
457.031965
11
178.649722
21
459.186990
0
LINE
8
boundary
62
5
39
2
10
178.649722
20
459.186990
11
179.635333
21
461.375099
0
LINE
8
boundary
62
5
39
2
10
179.635333
20
461.375099
11
179.871298
21
461.898960
0
LINE
8
boundary
62
5
39
2
10
179.871298
20
461.898960
11
180.785240
21
464.118189
0
LINE
8
boundary
62
5
39
2
10
180.785240
20
464.118189
11
181.004014
21
464.649413
0
LINE
8
boundary
62
5
39
2
10
181.004014
20
464.649413
11
181.845233
21
466.897170
0
LINE
8
boundary
62
5
39
2
10
181.845233
20
466.897170
11
182.046598
21
467.435236
0
LINE
8
boundary
62
5
39
2
10
182.046598
20
467.435236
11
182.230367
21
467.979626
0
LINE
8
boundary
62
5
39
2
10
182.230367
20
467.979626
11
182.998008
21
470.253703
0
LINE
8
boundary
62
5
39
2
10
182.998008
20
470.253703
11
183.163941
21
470.803730
0
LINE
8
boundary
62
5
39
2
10
183.163941
20
470.803730
11
183.857076
21
473.101384
0
LINE
8
boundary
62
5
39
2
10
183.857076
20
473.101384
11
184.475147
21
475.420599
0
LINE
8
boundary
62
5
39
2
10
184.475147
20
475.420599
11
184.623062
21
475.975647
0
LINE
8
boundary
62
5
39
2
10
184.623062
20
475.975647
11
185.165252
21
478.313534
0
LINE
8
boundary
62
5
39
2
10
185.165252
20
478.313534
11
185.295044
21
478.873192
0
LINE
8
boundary
62
5
39
2
10
185.295044
20
478.873192
11
185.406564
21
479.436836
0
LINE
8
boundary
62
5
39
2
10
185.406564
20
479.436836
11
185.872408
21
481.791337
0
LINE
8
boundary
62
5
39
2
10
185.872408
20
481.791337
11
185.965521
21
482.358311
0
LINE
8
boundary
62
5
39
2
10
185.965521
20
482.358311
11
186.354434
21
484.726483
0
LINE
8
boundary
62
5
39
2
10
186.354434
20
484.726483
11
186.429061
21
485.296326
0
LINE
8
boundary
62
5
39
2
10
186.429061
20
485.296326
11
186.740697
21
487.675924
0
LINE
8
boundary
62
5
39
2
10
186.740697
20
487.675924
11
186.974706
21
490.064295
0
LINE
8
boundary
62
5
39
2
10
186.974706
20
490.064295
11
187.030729
21
490.636126
0
LINE
8
boundary
62
5
39
2
10
187.030729
20
490.636126
11
187.068115
21
491.209479
0
LINE
8
boundary
62
5
39
2
10
187.068115
20
491.209479
11
187.224269
21
493.604536
0
LINE
8
boundary
62
5
39
2
10
187.224269
20
493.604536
11
187.302389
21
496.003305
0
LINE
8
boundary
62
5
39
2
10
187.302389
20
496.003305
11
187.321083
21
496.577439
0
LINE
8
boundary
62
5
39
2
10
187.321083
20
496.577439
11
187.321082
21
497.151837
0
LINE
8
boundary
62
5
39
2
10
187.321082
20
497.151837
11
187.321070
21
499.551969
0
LINE
8
boundary
62
5
39
2
10
187.321070
20
499.551969
11
187.302365
21
500.126315
0
LINE
8
boundary
62
5
39
2
10
187.302365
20
500.126315
11
187.224244
21
502.524917
0
LINE
8
boundary
62
5
39
2
10
187.224244
20
502.524917
11
187.068098
21
504.919759
0
LINE
8
boundary
62
5
39
2
10
187.068098
20
504.919759
11
187.030713
21
505.493092
0
LINE
8
boundary
62
5
39
2
10
187.030713
20
505.493092
11
186.974688
21
506.064924
0
LINE
8
boundary
62
5
39
2
10
186.974688
20
506.064924
11
186.740640
21
508.453628
0
LINE
8
boundary
62
5
39
2
10
186.740640
20
508.453628
11
186.429012
21
510.833116
0
LINE
8
boundary
62
5
39
2
10
186.429012
20
510.833116
11
186.354397
21
511.402819
0
LINE
8
boundary
62
5
39
2
10
186.354397
20
511.402819
11
185.965409
21
513.771378
0
LINE
8
boundary
62
5
39
2
10
185.965409
20
513.771378
11
185.872332
21
514.338125
0
LINE
8
boundary
62
5
39
2
10
185.872332
20
514.338125
11
185.406510
21
516.692456
0
LINE
8
boundary
62
5
39
2
10
185.406510
20
516.692456
11
185.295004
21
517.256022
0
LINE
8
boundary
62
5
39
2
10
185.295004
20
517.256022
11
185.165199
21
517.815738
0
LINE
8
boundary
62
5
39
2
10
185.165199
20
517.815738
11
184.622952
21
520.153825
0
LINE
8
boundary
62
5
39
2
10
184.622952
20
520.153825
11
184.475009
21
520.708961
0
LINE
8
boundary
62
5
39
2
10
184.475009
20
520.708961
11
183.856995
21
523.027954
0
LINE
8
boundary
62
5
39
2
10
183.856995
20
523.027954
11
183.163776
21
525.325825
0
LINE
8
boundary
62
5
39
2
10
183.163776
20
525.325825
11
182.997868
21
525.875764
0
LINE
8
boundary
62
5
39
2
10
182.997868
20
525.875764
11
182.230289
21
528.149637
0
LINE
8
boundary
62
5
39
2
10
182.230289
20
528.149637
11
182.046538
21
528.693970
0
LINE
8
boundary
62
5
39
2
10
182.046538
20
528.693970
11
181.845150
21
529.232091
0
LINE
8
boundary
62
5
39
2
10
181.845150
20
529.232091
11
181.003881
21
531.479970
0
LINE
8
boundary
62
5
39
2
10
181.003881
20
531.479970
11
180.785104
21
532.011195
0
LINE
8
boundary
62
5
39
2
10
180.785104
20
532.011195
11
179.871163
21
534.230381
0
LINE
8
boundary
62
5
39
2
10
179.871163
20
534.230381
11
179.635182
21
534.754275
0
LINE
8
boundary
62
5
39
2
10
179.635182
20
534.754275
11
178.649513
21
536.942497
0
LINE
8
boundary
62
5
39
2
10
178.649513
20
536.942497
11
177.593213
21
539.097333
0
LINE
8
boundary
62
5
39
2
10
177.593213
20
539.097333
11
177.340299
21
539.613267
0
LINE
8
boundary
62
5
39
2
10
177.340299
20
539.613267
11
176.214326
21
541.732758
0
LINE
8
boundary
62
5
39
2
10
176.214326
20
541.732758
11
175.944783
21
542.240136
0
LINE
8
boundary
62
5
39
2
10
175.944783
20
542.240136
11
175.658887
21
542.738437
0
LINE
8
boundary
62
5
39
2
10
175.658887
20
542.738437
11
174.464438
21
544.820303
0
LINE
8
boundary
62
5
39
2
10
174.464438
20
544.820303
11
173.203032
21
546.861900
0
LINE
8
boundary
62
5
39
2
10
173.203032
20
546.861900
11
172.901026
21
547.350699
0
LINE
8
boundary
62
5
39
2
10
172.901026
20
547.350699
11
172.583315
21
547.829343
0
LINE
8
boundary
62
5
39
2
10
172.583315
20
547.829343
11
171.255939
21
549.829078
0
LINE
8
boundary
62
5
39
2
10
171.255939
20
549.829078
11
169.864234
21
551.784467
0
LINE
8
boundary
62
5
39
2
10
169.864234
20
551.784467
11
169.531151
21
552.252456
0
LINE
8
boundary
62
5
39
2
10
169.531151
20
552.252456
11
168.076626
21
554.161387
0
LINE
8
boundary
62
5
39
2
10
168.076626
20
554.161387
11
167.728421
21
554.618376
0
LINE
8
boundary
62
5
39
2
10
167.728421
20
554.618376
11
166.212340
21
556.479203
0
LINE
8
boundary
62
5
39
2
10
166.212340
20
556.479203
11
165.849538
21
556.924499
0
LINE
8
boundary
62
5
39
2
10
165.849538
20
556.924499
11
165.472461
21
557.357721
0
LINE
8
boundary
62
5
39
2
10
165.472461
20
557.357721
11
163.896648
21
559.168143
0
LINE
8
boundary
62
5
39
2
10
163.896648
20
559.168143
11
163.505407
21
559.589146
0
LINE
8
boundary
62
5
39
2
10
163.505407
20
559.589146
11
161.871686
21
561.347143
0
LINE
8
boundary
62
5
39
2
10
161.871686
20
561.347143
11
161.467100
21
561.755033
0
LINE
8
boundary
62
5
39
2
10
161.467100
20
561.755033
11
159.776949
21
563.458986
0
LINE
8
boundary
62
5
39
2
10
159.776949
20
563.458986
11
158.032358
21
565.106909
0
LINE
8
boundary
62
5
39
2
10
158.032358
20
565.106909
11
157.614682
21
565.501439
0
LINE
8
boundary
62
5
39
2
10
157.614682
20
565.501439
11
155.817044
21
567.091999
0
LINE
8
boundary
62
5
39
2
10
155.817044
20
567.091999
11
155.386892
21
567.472600
0
LINE
8
boundary
62
5
39
2
10
155.386892
20
567.472600
11
154.944548
21
567.839024
0
LINE
8
boundary
62
5
39
2
10
154.944548
20
567.839024
11
153.096142
21
569.370176
0
LINE
8
boundary
62
5
39
2
10
153.096142
20
569.370176
11
151.199200
21
570.840108
0
LINE
8
boundary
62
5
39
2
10
151.199200
20
570.840108
11
150.745027
21
571.192042
0
LINE
8
boundary
62
5
39
2
10
150.745027
20
571.192042
11
150.279643
21
571.529010
0
LINE
8
boundary
62
5
39
2
10
150.279643
20
571.529010
11
148.335590
21
572.936604
0
LINE
8
boundary
62
5
39
2
10
148.335590
20
572.936604
11
146.347025
21
574.279993
0
LINE
8
boundary
62
5
39
2
10
146.347025
20
574.279993
11
145.870899
21
574.601641
0
LINE
8
boundary
62
5
39
2
10
145.870899
20
574.601641
11
143.839493
21
575.879710
0
LINE
8
boundary
62
5
39
2
10
143.839493
20
575.879710
11
143.353216
21
576.185649
0
LINE
8
boundary
62
5
39
2
10
143.353216
20
576.185649
11
141.281250
21
577.396937
0
LINE
8
boundary
62
5
39
2
10
141.281250
20
577.396937
11
140.785276
21
577.686888
0
LINE
8
boundary
62
5
39
2
10
140.785276
20
577.686888
11
140.280142
21
577.960532
0
LINE
8
boundary
62
5
39
2
10
140.280142
20
577.960532
11
138.169802
21
579.103743
0
LINE
8
boundary
62
5
39
2
10
138.169802
20
579.103743
11
137.655817
21
579.360905
0
LINE
8
boundary
62
5
39
2
10
137.655817
20
579.360905
11
135.509549
21
580.434752
0
LINE
8
boundary
62
5
39
2
10
135.509549
20
580.434752
11
134.987663
21
580.674957
0
LINE
8
boundary
62
5
39
2
10
134.987663
20
580.674957
11
132.807563
21
581.678366
0
LINE
8
boundary
62
5
39
2
10
132.807563
20
581.678366
11
130.595969
21
582.610303
0
LINE
8
boundary
62
5
39
2
10
130.595969
20
582.610303
11
130.066506
21
582.833408
0
LINE
8
boundary
62
5
39
2
10
130.066506
20
582.833408
11
127.825629
21
583.692905
0
LINE
8
boundary
62
5
39
2
10
127.825629
20
583.692905
11
127.289221
21
583.898646
0
LINE
8
boundary
62
5
39
2
10
127.289221
20
583.898646
11
126.746362
21
584.086829
0
LINE
8
boundary
62
5
39
2
10
126.746362
20
584.086829
11
124.478611
21
584.872950
0
LINE
8
boundary
62
5
39
2
10
124.478611
20
584.872950
11
123.929953
21
585.043353
0
LINE
8
boundary
62
5
39
2
10
123.929953
20
585.043353
11
121.637938
21
585.755200
0
LINE
8
boundary
62
5
39
2
10
121.637938
20
585.755200
11
119.324133
21
586.392034
0
LINE
8
boundary
62
5
39
2
10
119.324133
20
586.392034
11
118.770161
21
586.544503
0
LINE
8
boundary
62
5
39
2
10
118.770161
20
586.544503
11
116.436460
21
587.105782
0
LINE
8
boundary
62
5
39
2
10
116.436460
20
587.105782
11
115.878005
21
587.240093
0
LINE
8
boundary
62
5
39
2
10
115.878005
20
587.240093
11
115.315512
21
587.356149
0
LINE
8
boundary
62
5
39
2
10
115.315512
20
587.356149
11
112.964853
21
587.841132
0
LINE
8
boundary
62
5
39
2
10
112.964853
20
587.841132
11
110.599666
21
588.249375
0
LINE
8
boundary
62
5
39
2
10
110.599666
20
588.249375
11
110.033635
21
588.347069
0
LINE
8
boundary
62
5
39
2
10
110.033635
20
588.347069
11
107.656596
21
588.678062
0
LINE
8
boundary
62
5
39
2
10
107.656596
20
588.678062
11
107.087576
21
588.757296
0
LINE
8
boundary
62
5
39
2
10
107.087576
20
588.757296
11
106.516238
21
588.817973
0
LINE
8
boundary
62
5
39
2
10
106.516238
20
588.817973
11
104.129517
21
589.071441
0
LINE
8
boundary
62
5
39
2
10
104.129517
20
589.071441
11
103.556546
21
589.113485
0
LINE
8
boundary
62
5
39
2
10
103.556546
20
589.113485
11
101.163049
21
589.289114
0
LINE
8
boundary
62
5
39
2
10
101.163049
20
589.289114
11
98.764876
21
589.386765
0
LINE
8
boundary
62
5
39
2
10
98.764876
20
589.386765
11
98.190932
21
589.410134
0
LINE
8
boundary
62
5
39
2
10
98.190932
20
589.410134
11
97.616606
21
589.414810
0
LINE
8
boundary
62
5
39
2
10
97.616606
20
589.414810
11
95.216701
21
589.434332
0
LINE
8
boundary
62
5
39
2
10
95.216701
20
589.434332
11
92.817726
21
589.375743
0
LINE
8
boundary
62
5
39
2
10
92.817726
20
589.375743
11
92.243182
21
589.361710
0
LINE
8
boundary
62
5
39
2
10
92.243182
20
589.361710
11
89.846907
21
589.225061
0
LINE
8
boundary
62
5
39
2
10
89.846907
20
589.225061
11
89.273498
21
589.192356
0
LINE
8
boundary
62
5
39
2
10
89.273498
20
589.192356
11
88.701439
21
589.141004
0
LINE
8
boundary
62
5
39
2
10
88.701439
20
589.141004
11
86.310845
21
588.926409
0
LINE
8
boundary
62
5
39
2
10
86.310845
20
588.926409
11
85.740759
21
588.856468
0
LINE
8
boundary
62
5
39
2
10
85.740759
20
588.856468
11
83.358459
21
588.564182
0
LINE
8
boundary
62
5
39
2
10
83.358459
20
588.564182
11
82.790893
21
588.475711
0
LINE
8
boundary
62
5
39
2
10
82.790893
20
588.475711
11
80.419374
21
588.106021
0
LINE
8
boundary
62
5
39
2
10
80.419374
20
588.106021
11
78.061202
21
587.659372
0
LINE
8
boundary
62
5
39
2
10
78.061202
20
587.659372
11
77.496727
21
587.552452
0
LINE
8
boundary
62
5
39
2
10
77.496727
20
587.552452
11
76.935975
21
587.427210
0
LINE
8
boundary
62
5
39
2
10
76.935975
20
587.427210
11
74.593876
21
586.904093
0
LINE
8
boundary
62
5
39
2
10
74.593876
20
586.904093
11
72.269720
21
586.304938
0
LINE
8
boundary
62
5
39
2
10
72.269720
20
586.304938
11
71.713341
21
586.161504
0
LINE
8
boundary
62
5
39
2
10
71.713341
20
586.161504
11
71.161926
21
586.000040
0
LINE
8
boundary
62
5
39
2
10
71.161926
20
586.000040
11
68.858825
21
585.325637
0
LINE
8
boundary
62
5
39
2
10
68.858825
20
585.325637
11
66.578511
21
584.576520
0
LINE
8
boundary
62
5
39
2
10
66.578511
20
584.576520
11
66.032806
21
584.397243
0
LINE
8
boundary
62
5
39
2
10
66.032806
20
584.397243
11
65.493189
21
584.200290
0
LINE
8
boundary
62
5
39
2
10
65.493189
20
584.200290
11
63.238558
21
583.377350
0
LINE
8
boundary
62
5
39
2
10
63.238558
20
583.377350
11
61.011888
21
582.481485
0
LINE
8
boundary
62
5
39
2
10
61.011888
20
582.481485
11
60.478985
21
582.267073
0
LINE
8
boundary
62
5
39
2
10
60.478985
20
582.267073
11
59.953360
21
582.035440
0
LINE
8
boundary
62
5
39
2
10
59.953360
20
582.035440
11
57.757089
21
581.067570
0
LINE
8
boundary
62
5
39
2
10
57.757089
20
581.067570
11
55.593388
21
580.028690
0
LINE
8
boundary
62
5
39
2
10
55.593388
20
580.028690
11
55.075500
21
579.780031
0
LINE
8
boundary
62
5
39
2
10
55.075500
20
579.780031
11
54.565892
21
579.514602
0
LINE
8
boundary
62
5
39
2
10
54.565892
20
579.514602
11
52.437486
21
578.406015
0
LINE
8
boundary
62
5
39
2
10
52.437486
20
578.406015
11
50.346200
21
577.228684
0
LINE
8
boundary
62
5
39
2
10
50.346200
20
577.228684
11
49.845381
21
576.946738
0
LINE
8
boundary
62
5
39
2
10
49.845381
20
576.946738
11
47.793359
21
575.701875
0
LINE
8
boundary
62
5
39
2
10
47.793359
20
575.701875
11
47.302185
21
575.403899
0
LINE
8
boundary
62
5
39
2
10
47.302185
20
575.403899
11
46.820937
21
575.090074
0
LINE
8
boundary
62
5
39
2
10
46.820937
20
575.090074
11
44.810603
21
573.779111
0
LINE
8
boundary
62
5
39
2
10
44.810603
20
573.779111
11
44.339793
21
573.449764
0
LINE
8
boundary
62
5
39
2
10
44.339793
20
573.449764
11
42.373326
21
572.074160
0
LINE
8
boundary
62
5
39
2
10
42.373326
20
572.074160
11
40.452552
21
570.635183
0
LINE
8
boundary
62
5
39
2
10
40.452552
20
570.635183
11
39.992757
21
570.290723
0
LINE
8
boundary
62
5
39
2
10
39.992757
20
570.290723
11
38.119910
21
568.790038
0
LINE
8
boundary
62
5
39
2
10
38.119910
20
568.790038
11
37.671403
21
568.430656
0
LINE
8
boundary
62
5
39
2
10
37.671403
20
568.430656
11
35.848373
21
566.869810
0
LINE
8
boundary
62
5
39
2
10
35.848373
20
566.869810
11
35.411952
21
566.496150
0
LINE
8
boundary
62
5
39
2
10
35.411952
20
566.496150
11
33.640517
21
564.876620
0
LINE
8
boundary
62
5
39
2
10
33.640517
20
564.876620
11
33.216504
21
564.488963
0
LINE
8
boundary
62
5
39
2
10
33.216504
20
564.488963
11
32.805333
21
564.087715
0
LINE
8
boundary
62
5
39
2
10
32.805333
20
564.087715
11
31.087675
21
562.411493
0
LINE
8
boundary
62
5
39
2
10
31.087675
20
562.411493
11
30.689728
21
561.997016
0
LINE
8
boundary
62
5
39
2
10
30.689728
20
561.997016
11
29.027683
21
560.265922
0
LINE
8
boundary
62
5
39
2
10
29.027683
20
560.265922
11
27.422636
21
558.481403
0
LINE
8
boundary
62
5
39
2
10
27.422636
20
558.481403
11
27.038418
21
558.054222
0
LINE
8
boundary
62
5
39
2
10
27.038418
20
558.054222
11
26.668294
21
557.614744
0
LINE
8
boundary
62
5
39
2
10
26.668294
20
557.614744
11
25.122383
21
555.779147
0
LINE
8
boundary
62
5
39
2
10
25.122383
20
555.779147
11
23.636965
21
553.894121
0
LINE
8
boundary
62
5
39
2
10
23.636965
20
553.894121
11
23.281294
21
553.442766
0
LINE
8
boundary
62
5
39
2
10
23.281294
20
553.442766
11
21.857903
21
551.510257
0
LINE
8
boundary
62
5
39
2
10
21.857903
20
551.510257
11
21.517252
21
551.047749
0
LINE
8
boundary
62
5
39
2
10
21.517252
20
551.047749
11
21.191831
21
550.574404
0
LINE
8
boundary
62
5
39
2
10
21.191831
20
550.574404
11
19.832132
21
548.596580
0
LINE
8
boundary
62
5
39
2
10
19.832132
20
548.596580
11
18.537533
21
546.575611
0
LINE
8
boundary
62
5
39
2
10
18.537533
20
546.575611
11
18.227622
21
546.091810
0
LINE
8
boundary
62
5
39
2
10
18.227622
20
546.091810
11
17.933614
21
545.598161
0
LINE
8
boundary
62
5
39
2
10
17.933614
20
545.598161
11
16.705610
21
543.536297
0
LINE
8
boundary
62
5
39
2
10
16.705610
20
543.536297
11
15.545196
21
541.435271
0
LINE
8
boundary
62
5
39
2
10
15.545196
20
541.435271
11
15.267449
21
540.932382
0
LINE
8
boundary
62
5
39
2
10
15.267449
20
540.932382
11
15.006172
21
540.420633
0
LINE
8
boundary
62
5
39
2
10
15.006172
20
540.420633
11
13.914947
21
538.283276
0
LINE
8
boundary
62
5
39
2
10
13.914947
20
538.283276
11
12.893715
21
536.111234
0
LINE
8
boundary
62
5
39
2
10
12.893715
20
536.111234
11
12.649247
21
535.591267
0
LINE
8
boundary
62
5
39
2
10
12.649247
20
535.591267
11
12.421860
21
535.063693
0
LINE
8
boundary
62
5
39
2
10
12.421860
20
535.063693
11
11.471942
21
532.859714
0
LINE
8
boundary
62
5
39
2
10
11.471942
20
532.859714
11
11.261502
21
532.324083
0
LINE
8
boundary
62
5
39
2
10
11.261502
20
532.324083
11
10.381917
21
530.085268
0
LINE
8
boundary
62
5
39
2
10
10.381917
20
530.085268
11
10.189793
21
529.545234
0
LINE
8
boundary
62
5
39
2
10
10.189793
20
529.545234
11
9.387027
21
527.288768
0
LINE
8
boundary
62
5
39
2
10
9.387027
20
527.288768
11
9.212195
21
526.741623
0
LINE
8
boundary
62
5
39
2
10
9.212195
20
526.741623
11
8.481668
21
524.455336
0
LINE
8
boundary
62
5
39
2
10
8.481668
20
524.455336
11
7.825941
21
522.146550
0
LINE
8
boundary
62
5
39
2
10
7.825941
20
522.146550
11
7.668987
21
521.593914
0
LINE
8
boundary
62
5
39
2
10
7.668987
20
521.593914
11
7.530094
21
521.036424
0
LINE
8
boundary
62
5
39
2
10
7.530094
20
521.036424
11
6.949911
21
518.707677
0
LINE
8
boundary
62
5
39
2
10
6.949911
20
518.707677
11
6.829262
21
518.146070
0
LINE
8
boundary
62
5
39
2
10
6.829262
20
518.146070
11
6.325158
21
515.799447
0
LINE
8
boundary
62
5
39
2
10
6.325158
20
515.799447
11
5.897689
21
513.437721
0
LINE
8
boundary
62
5
39
2
10
5.897689
20
513.437721
11
5.795372
21
512.872414
0
LINE
8
boundary
62
5
39
2
10
5.795372
20
512.872414
11
5.711497
21
512.303998
0
LINE
8
boundary
62
5
39
2
10
5.711497
20
512.303998
11
5.361171
21
509.929859
0
LINE
8
boundary
62
5
39
2
10
5.361171
20
509.929859
11
5.088261
21
507.545174
0
LINE
8
boundary
62
5
39
2
10
5.088261
20
507.545174
11
5.022959
21
506.974558
0
LINE
8
boundary
62
5
39
2
10
5.022959
20
506.974558
11
4.976257
21
506.402022
0
LINE
8
boundary
62
5
39
2
10
4.976257
20
506.402022
11
4.781141
21
504.009927
0
LINE
8
boundary
62
5
39
2
10
4.781141
20
504.009927
11
4.663972
21
501.612645
0
LINE
8
boundary
62
5
39
2
10
4.663972
20
501.612645
11
4.635925
21
501.038760
0
LINE
8
boundary
62
5
39
2
10
4.635925
20
501.038760
11
4.626569
21
500.464268
0
LINE
8
boundary
62
5
39
2
10
4.626569
20
500.464268
11
4.587500
21
498.064778
0
LINE
8
boundary
62
5
39
2
10
4.587500
20
498.064778
11
4.626559
21
495.664953
0
LINE
8
boundary
62
5
39
2
10
4.626559
20
495.664953
11
4.635915
21
495.090458
0
LINE
8
boundary
62
5
39
2
10
4.635915
20
495.090458
11
4.663958
21
494.516593
0
LINE
8
boundary
62
5
39
2
10
4.663958
20
494.516593
11
4.781114
21
492.119527
0
LINE
8
boundary
62
5
39
2
10
4.781114
20
492.119527
11
4.976228
21
489.727372
0
LINE
8
boundary
62
5
39
2
10
4.976228
20
489.727372
11
5.022932
21
489.154781
0
LINE
8
boundary
62
5
39
2
10
5.022932
20
489.154781
11
5.088256
21
488.583936
0
LINE
8
boundary
62
5
39
2
10
5.088256
20
488.583936
11
5.361108
21
486.199651
0
LINE
8
boundary
62
5
39
2
10
5.361108
20
486.199651
11
5.711483
21
483.825110
0
LINE
8
boundary
62
5
39
2
10
5.711483
20
483.825110
11
5.795323
21
483.256921
0
LINE
8
boundary
62
5
39
2
10
5.795323
20
483.256921
11
5.897625
21
482.691685
0
LINE
8
boundary
62
5
39
2
10
5.897625
20
482.691685
11
6.325093
21
480.329899
0
LINE
8
boundary
62
5
39
2
10
6.325093
20
480.329899
11
6.829149
21
477.983496
0
LINE
8
boundary
62
5
39
2
10
6.829149
20
477.983496
11
6.949821
21
477.421780
0
LINE
8
boundary
62
5
39
2
10
6.949821
20
477.421780
11
7.530058
21
475.092721
0
LINE
8
boundary
62
5
39
2
10
7.530058
20
475.092721
11
7.668903
21
474.535416
0
LINE
8
boundary
62
5
39
2
10
7.668903
20
474.535416
11
7.825837
21
473.982831
0
LINE
8
boundary
62
5
39
2
10
7.825837
20
473.982831
11
8.481570
21
471.674021
0
LINE
8
boundary
62
5
39
2
10
8.481570
20
471.674021
11
9.211995
21
469.388044
0
LINE
8
boundary
62
5
39
2
10
9.211995
20
469.388044
11
9.386919
21
468.840602
0
LINE
8
boundary
62
5
39
2
10
9.386919
20
468.840602
11
10.189552
21
466.584481
0
LINE
8
boundary
62
5
39
2
10
10.189552
20
466.584481
11
10.381797
21
466.044099
0
LINE
8
boundary
62
5
39
2
10
10.381797
20
466.044099
11
11.261254
21
463.805571
0
LINE
8
boundary
62
5
39
2
10
11.261254
20
463.805571
11
11.471778
21
463.269724
0
LINE
8
boundary
62
5
39
2
10
11.471778
20
463.269724
11
12.421747
21
461.065583
0
LINE
8
boundary
62
5
39
2
10
12.421747
20
461.065583
11
12.649165
21
460.537935
0
LINE
8
boundary
62
5
39
2
10
12.649165
20
460.537935
11
12.893625
21
460.017985
0
LINE
8
boundary
62
5
39
2
10
12.893625
20
460.017985
11
13.914731
21
457.846208
0
LINE
8
boundary
62
5
39
2
10
13.914731
20
457.846208
11
15.006120
21
455.708514
0
LINE
8
boundary
62
5
39
2
10
15.006120
20
455.708514
11
15.267351
21
455.196850
0
LINE
8
boundary
62
5
39
2
10
15.267351
20
455.196850
11
15.545133
21
454.693891
0
LINE
8
boundary
62
5
39
2
10
15.545133
20
454.693891
11
16.705371
21
452.593153
0
LINE
8
boundary
62
5
39
2
10
16.705371
20
452.593153
11
17.933574
21
450.530938
0
LINE
8
boundary
62
5
39
2
10
17.933574
20
450.530938
11
18.227476
21
450.037468
0
LINE
8
boundary
62
5
39
2
10
18.227476
20
450.037468
11
18.537310
21
449.553777
0
LINE
8
boundary
62
5
39
2
10
18.537310
20
449.553777
11
19.831932
21
447.532751
0
LINE
8
boundary
62
5
39
2
10
19.831932
20
447.532751
11
21.191631
21
445.554916
0
LINE
8
boundary
62
5
39
2
10
21.191631
20
445.554916
11
21.517052
21
445.081566
0
LINE
8
boundary
62
5
39
2
10
21.517052
20
445.081566
11
21.857667
21
444.619106
0
LINE
8
boundary
62
5
39
2
10
21.857667
20
444.619106
11
23.281112
21
442.686495
0
LINE
8
boundary
62
5
39
2
10
23.281112
20
442.686495
11
23.636732
21
442.235202
0
LINE
8
boundary
62
5
39
2
10
23.636732
20
442.235202
11
25.122077
21
440.350254
0
LINE
8
boundary
62
5
39
2
10
25.122077
20
440.350254
11
26.668193
21
438.514403
0
LINE
8
boundary
62
5
39
2
10
26.668193
20
438.514403
11
27.038279
21
438.074970
0
LINE
8
boundary
62
5
39
2
10
27.038279
20
438.074970
11
27.422496
21
437.647785
0
LINE
8
boundary
62
5
39
2
10
27.422496
20
437.647785
11
29.027342
21
435.863479
0
LINE
8
boundary
62
5
39
2
10
29.027342
20
435.863479
11
30.689522
21
434.132230
0
LINE
8
boundary
62
5
39
2
10
30.689522
20
434.132230
11
31.087412
21
433.717806
0
LINE
8
annotation
62
1
39
211
10
173.498970
20
498.302652
11
173.498970
21
499.731402
0
LINE
8
annotation
62
1
39
211
10
18.412403
20
498.257361
11
19.841153
21
498.257361
0
LINE
8
annotation
62
1
39
211
10
181.689310
20
487.761540
11
181.689310
21
514.078678
0
LINE
8
annotation
62
1
39
211
10
181.689310
20
514.078678
11
175.838673
21
508.226391
0
LINE
8
frame
62
5
39
2
10
0.000000
20
0.000000
11
300.000000
21
0.000000
0
LINE
8
frame
62
5
39
2
10
300.000000
20
0.000000
11
300.000000
21
600.000000
0
LINE
8
frame
62
5
39
2
10
300.000000
20
600.000000
11
0.000000
21
600.000000
0
LINE
8
frame
62
5
39
2
10
0.000000
20
600.000000
11
0.000000
21
0.000000
0
ENDSEC
0
EOF
