0
SECTION
2
HEADER
9
$ACADVER
1
AC1009
0
ENDSEC
0
SECTION
2
TABLES
0
TABLE
2
VPORT
70
1
0
VPORT
2
ACTIVE
70
0
10
0.0
20
0.0
11
0.0
21
0.0
12
0.0
22
0.0
13
0.0
23
0.0
14
0.0
24
0.0
15
0.0
25
0.0
16
0.0
26
0.0
36
0.0
17
0.0
27
0.0
37
0.0
40
0.0
41
0.0
42
0.0
43
0.0
44
0.0
50
0.0
51
0.0
71
0
72
1000
73
1
74
3
75
0
76
0
77
0
78
0
0
ENDTAB
0
ENDSEC
0
SECTION
2
ENTITIES
0
LINE
8
hole
62
5
39
2
10
105.463146
20
185.987423
11
106.034646
21
185.987423
0
LINE
8
hole
62
5
39
2
10
106.034646
20
185.987423
11
106.034646
21
186.558923
0
LINE
8
hole
62
5
39
2
10
106.034646
20
186.558923
11
105.463146
21
186.558923
0
LINE
8
hole
62
5
39
2
10
105.463146
20
186.558923
11
105.463146
21
185.987423
0
LINE
8
hole
62
5
39
2
10
105.463146
20
24.955657
11
106.034646
21
24.955657
0
LINE
8
hole
62
5
39
2
10
106.034646
20
24.955657
11
106.034646
21
25.527157
0
LINE
8
hole
62
5
39
2
10
106.034646
20
25.527157
11
105.463146
21
25.527157
0
LINE
8
hole
62
5
39
2
10
105.463146
20
25.527157
11
105.463146
21
24.955657
0
LINE
8
hole
62
5
39
2
10
62.258299
20
56.012938
11
60.917533
21
57.213726
0
LINE
8
hole
62
5
39
2
10
60.917533
20
57.213726
11
60.306695
21
57.789177
0
LINE
8
hole
62
5
39
2
10
60.306695
20
57.789177
11
59.015042
21
59.042648
0
LINE
8
hole
62
5
39
2
10
59.015042
20
59.042648
11
58.427562
21
59.641928
0
LINE
8
hole
62
5
39
2
10
58.427562
20
59.641928
11
57.187103
21
60.946038
0
LINE
8
hole
62
5
39
2
10
57.187103
20
60.946038
11
56.623913
21
61.568206
0
LINE
8
hole
62
5
39
2
10
56.623913
20
61.568206
11
55.436616
21
62.920936
0
LINE
8
hole
62
5
39
2
10
55.436616
20
62.920936
11
54.898590
21
63.565019
0
LINE
8
hole
62
5
39
2
10
54.898590
20
63.565019
11
53.766375
21
64.964188
0
LINE
8
hole
62
5
39
2
10
53.766375
20
64.964188
11
53.254399
21
65.629129
0
LINE
8
hole
62
5
39
2
10
53.254399
20
65.629129
11
52.179062
21
67.072423
0
LINE
8
hole
62
5
39
2
10
52.179062
20
67.072423
11
51.693926
21
67.757195
0
LINE
8
hole
62
5
39
2
10
51.693926
20
67.757195
11
50.677195
21
69.242402
0
LINE
8
hole
62
5
39
2
10
50.677195
20
69.242402
11
50.219665
21
69.945918
0
LINE
8
hole
62
5
39
2
10
50.219665
20
69.945918
11
49.263182
21
71.470568
0
LINE
8
hole
62
5
39
2
10
49.263182
20
71.470568
11
48.833964
21
72.191750
0
LINE
8
hole
62
5
39
2
10
48.833964
20
72.191750
11
47.939244
21
73.753518
0
LINE
8
hole
62
5
39
2
10
47.939244
20
73.753518
11
47.539059
21
74.491158
0
LINE
8
hole
62
5
39
2
10
47.539059
20
74.491158
11
46.707532
21
76.087403
0
LINE
8
hole
62
5
39
2
10
46.707532
20
76.087403
11
46.336986
21
76.840374
0
LINE
8
hole
62
5
39
2
10
46.336986
20
76.840374
11
45.569996
21
78.468656
0
LINE
8
hole
62
5
39
2
10
45.569996
20
78.468656
11
45.229677
21
79.235763
0
LINE
8
hole
62
5
39
2
10
45.229677
20
79.235763
11
44.528442
21
80.893382
0
LINE
8
hole
62
5
39
2
10
44.528442
20
80.893382
11
44.218890
21
81.673417
0
LINE
8
hole
62
5
39
2
10
44.218890
20
81.673417
11
43.584553
21
83.357838
0
LINE
8
hole
62
5
39
2
10
43.584553
20
83.357838
11
43.306251
21
84.149583
0
LINE
8
hole
62
5
39
2
10
43.306251
20
84.149583
11
42.739797
21
85.857963
0
LINE
8
hole
62
5
39
2
10
42.739797
20
85.857963
11
42.493199
21
86.660121
0
LINE
8
hole
62
5
39
2
10
42.493199
20
86.660121
11
41.995559
21
88.389840
0
LINE
8
hole
62
5
39
2
10
41.995559
20
88.389840
11
41.781046
21
89.201167
0
LINE
8
hole
62
5
39
2
10
41.781046
20
89.201167
11
41.352999
21
90.949367
0
LINE
8
hole
62
5
39
2
10
41.352999
20
90.949367
11
41.170911
21
91.768586
0
LINE
8
hole
62
5
39
2
10
41.170911
20
91.768586
11
40.813181
21
93.532584
0
LINE
8
hole
62
5
39
2
10
40.813181
20
93.532584
11
40.663803
21
94.358420
0
LINE
8
hole
62
5
39
2
10
40.663803
20
94.358420
11
40.376898
21
96.135249
0
LINE
8
hole
62
5
39
2
10
40.376898
20
96.135249
11
40.260473
21
96.966340
0
LINE
8
hole
62
5
39
2
10
40.260473
20
96.966340
11
40.044912
21
98.753266
0
LINE
8
hole
62
5
39
2
10
40.044912
20
98.753266
11
39.961619
21
99.588329
0
LINE
8
hole
62
5
39
2
10
39.961619
20
99.588329
11
39.817709
21
101.382406
0
LINE
8
hole
62
5
39
2
10
39.817709
20
101.382406
11
39.767682
21
102.220124
0
LINE
8
hole
62
5
39
2
10
39.767682
20
102.220124
11
39.695694
21
104.018583
0
LINE
8
hole
62
5
39
2
10
39.695694
20
104.018583
11
39.679013
21
104.857626
0
LINE
8
hole
62
5
39
2
10
39.679013
20
104.857626
11
39.679003
21
106.657467
0
LINE
8
hole
62
5
39
2
10
39.679003
20
106.657467
11
39.695691
21
107.496538
0
LINE
8
hole
62
5
39
2
10
39.695691
20
107.496538
11
39.767723
21
109.294981
0
LINE
8
hole
62
5
39
2
10
39.767723
20
109.294981
11
39.817755
21
110.132693
0
LINE
8
hole
62
5
39
2
10
39.817755
20
110.132693
11
39.961663
21
111.926778
0
LINE
8
hole
62
5
39
2
10
39.961663
20
111.926778
11
40.044961
21
112.761843
0
LINE
8
hole
62
5
39
2
10
40.044961
20
112.761843
11
40.260549
21
114.548764
0
LINE
8
hole
62
5
39
2
10
40.260549
20
114.548764
11
40.376979
21
115.379857
0
LINE
8
hole
62
5
39
2
10
40.376979
20
115.379857
11
40.663915
21
117.156717
0
LINE
8
hole
62
5
39
2
10
40.663915
20
117.156717
11
40.813294
21
117.982520
0
LINE
8
hole
62
5
39
2
10
40.813294
20
117.982520
11
41.171065
21
119.746482
0
LINE
8
hole
62
5
39
2
10
41.171065
20
119.746482
11
41.353162
21
120.565715
0
LINE
8
hole
62
5
39
2
10
41.353162
20
120.565715
11
41.781199
21
122.313923
0
LINE
8
hole
62
5
39
2
10
41.781199
20
122.313923
11
41.995716
21
123.125247
0
LINE
8
hole
62
5
39
2
10
41.995716
20
123.125247
11
42.493384
21
124.854959
0
LINE
8
hole
62
5
39
2
10
42.493384
20
124.854959
11
42.739986
21
125.657112
0
LINE
8
hole
62
5
39
2
10
42.739986
20
125.657112
11
43.306457
21
127.365526
0
LINE
8
hole
62
5
39
2
10
43.306457
20
127.365526
11
43.584757
21
128.157242
0
LINE
8
hole
62
5
39
2
10
43.584757
20
128.157242
11
44.219127
21
129.841622
0
LINE
8
hole
62
5
39
2
10
44.219127
20
129.841622
11
44.528694
21
130.621672
0
LINE
8
hole
62
5
39
2
10
44.528694
20
130.621672
11
45.229915
21
132.279300
0
LINE
8
hole
62
5
39
2
10
45.229915
20
132.279300
11
45.570233
21
133.046401
0
LINE
8
hole
62
5
39
2
10
45.570233
20
133.046401
11
46.337252
21
134.674667
0
LINE
8
hole
62
5
39
2
10
46.337252
20
134.674667
11
46.707802
21
135.427631
0
LINE
8
hole
62
5
39
2
10
46.707802
20
135.427631
11
47.539342
21
137.023906
0
LINE
8
hole
62
5
39
2
10
47.539342
20
137.023906
11
47.939533
21
137.761546
0
LINE
8
hole
62
5
39
2
10
47.939533
20
137.761546
11
48.834285
21
139.323270
0
LINE
8
hole
62
5
39
2
10
48.834285
20
139.323270
11
49.263487
21
140.044415
0
LINE
8
hole
62
5
39
2
10
49.263487
20
140.044415
11
50.219967
21
141.569081
0
LINE
8
hole
62
5
39
2
10
50.219967
20
141.569081
11
50.677512
21
142.272612
0
LINE
8
hole
62
5
39
2
10
50.677512
20
142.272612
11
51.694266
21
143.757799
0
LINE
8
hole
62
5
39
2
10
51.694266
20
143.757799
11
52.179403
21
144.442563
0
LINE
8
hole
62
5
39
2
10
52.179403
20
144.442563
11
53.254778
21
145.885887
0
LINE
8
hole
62
5
39
2
10
53.254778
20
145.885887
11
53.766756
21
146.550822
0
LINE
8
hole
62
5
39
2
10
53.766756
20
146.550822
11
54.898962
21
147.949950
0
LINE
8
hole
62
5
39
2
10
54.898962
20
147.949950
11
55.436973
21
148.594007
0
LINE
8
hole
62
5
39
2
10
55.436973
20
148.594007
11
56.624302
21
149.946724
0
LINE
8
hole
62
5
39
2
10
56.624302
20
149.946724
11
57.187510
21
150.568901
0
LINE
8
hole
62
5
39
2
10
57.187510
20
150.568901
11
58.427956
21
151.873022
0
LINE
8
hole
62
5
39
2
10
58.427956
20
151.873022
11
59.015436
21
152.472296
0
LINE
8
hole
62
5
39
2
10
59.015436
20
152.472296
11
60.307140
21
153.725758
0
LINE
8
hole
62
5
39
2
10
60.307140
20
153.725758
11
60.917978
21
154.301199
0
LINE
8
hole
62
5
39
2
10
60.917978
20
154.301199
11
62.258727
21
155.501962
0
LINE
8
hole
62
5
39
2
10
62.258727
20
155.501962
11
62.891964
21
156.052669
0
LINE
8
hole
62
5
39
2
10
62.891964
20
156.052669
11
64.279733
21
157.198837
0
LINE
8
hole
62
5
39
2
10
64.279733
20
157.198837
11
64.934360
21
157.723930
0
LINE
8
hole
62
5
39
2
10
64.934360
20
157.723930
11
66.366824
21
158.813655
0
LINE
8
hole
62
5
39
2
10
66.366824
20
158.813655
11
67.041833
21
159.312325
0
LINE
8
hole
62
5
39
2
10
67.041833
20
159.312325
11
68.516821
21
160.343864
0
LINE
8
hole
62
5
39
2
10
68.516821
20
160.343864
11
69.211096
21
160.815284
0
LINE
8
hole
62
5
39
2
10
69.211096
20
160.815284
11
70.726102
21
161.786984
0
LINE
8
hole
62
5
39
2
10
70.726102
20
161.786984
11
71.438573
21
162.230434
0
LINE
8
hole
62
5
39
2
10
71.438573
20
162.230434
11
72.991295
21
163.140734
0
LINE
8
hole
62
5
39
2
10
72.991295
20
163.140734
11
73.720835
21
163.555507
0
LINE
8
hole
62
5
39
2
10
73.720835
20
163.555507
11
75.308685
21
164.402968
0
LINE
8
hole
62
5
39
2
10
75.308685
20
164.402968
11
76.054161
21
164.788421
0
LINE
8
hole
62
5
39
2
10
76.054161
20
164.788421
11
77.674715
21
165.571659
0
LINE
8
hole
62
5
39
2
10
77.674715
20
165.571659
11
78.434897
21
165.927159
0
LINE
8
hole
62
5
39
2
10
78.434897
20
165.927159
11
80.085421
21
166.644945
0
LINE
8
hole
62
5
39
2
10
80.085421
20
166.644945
11
80.859139
21
166.969942
0
LINE
8
hole
62
5
39
2
10
80.859139
20
166.969942
11
82.537110
21
167.621106
0
LINE
8
hole
62
5
39
2
10
82.537110
20
167.621106
11
83.323136
21
167.915084
0
LINE
8
hole
62
5
39
2
10
83.323136
20
167.915084
11
85.025765
21
168.498608
0
LINE
8
hole
62
5
39
2
10
85.025765
20
168.498608
11
85.822861
21
168.761105
0
LINE
8
hole
62
5
39
2
10
85.822861
20
168.761105
11
87.547539
21
169.276018
0
LINE
8
hole
62
5
39
2
10
87.547539
20
169.276018
11
88.354460
21
169.506623
0
LINE
8
hole
62
5
39
2
10
88.354460
20
169.506623
11
90.098295
21
169.952145
0
LINE
8
hole
62
5
39
2
10
90.098295
20
169.952145
11
90.913724
21
170.150486
0
LINE
8
hole
62
5
39
2
10
90.913724
20
170.150486
11
92.674031
21
170.525863
0
LINE
8
hole
62
5
39
2
10
92.674031
20
170.525863
11
93.496700
21
170.691625
0
LINE
8
hole
62
5
39
2
10
93.496700
20
170.691625
11
95.270578
21
170.996284
0
LINE
8
hole
62
5
39
2
10
95.270578
20
170.996284
11
96.099190
21
171.129209
0
LINE
8
hole
62
5
39
2
10
96.099190
20
171.129209
11
97.883875
21
171.362635
0
LINE
8
hole
62
5
39
2
10
97.883875
20
171.362635
11
98.717142
21
171.462516
0
LINE
8
hole
62
5
39
2
10
98.717142
20
171.462516
11
100.509727
21
171.624360
0
LINE
8
hole
62
5
39
2
10
100.509727
20
171.624360
11
101.346275
21
171.691030
0
LINE
8
hole
62
5
39
2
10
101.346275
20
171.691030
11
103.143917
21
171.781007
0
LINE
8
hole
62
5
39
2
10
103.143917
20
171.781007
11
103.982453
21
171.814368
0
LINE
8
hole
62
5
39
2
10
103.982453
20
171.814368
11
105.781979
21
171.832370
0
LINE
8
hole
62
5
39
2
10
105.781979
20
171.832370
11
106.621093
21
171.832370
0
LINE
8
hole
62
5
39
2
10
106.621093
20
171.832370
11
108.419992
21
171.778388
0
LINE
8
hole
62
5
39
2
10
108.419992
20
171.778388
11
109.258495
21
171.745026
0
LINE
8
hole
62
5
39
2
10
109.258495
20
171.745026
11
111.053930
21
171.619068
0
LINE
8
hole
62
5
39
2
10
111.053930
20
171.619068
11
111.890480
21
171.552396
0
LINE
8
hole
62
5
39
2
10
111.890480
20
171.552396
11
113.679483
21
171.354729
0
LINE
8
hole
62
5
39
2
10
113.679483
20
171.354729
11
114.512722
21
171.254851
0
LINE
8
hole
62
5
39
2
10
114.512722
20
171.254851
11
116.292402
21
170.985772
0
LINE
8
hole
62
5
39
2
10
116.292402
20
170.985772
11
117.121014
21
170.852848
0
LINE
8
hole
62
5
39
2
10
117.121014
20
170.852848
11
118.888442
21
170.512756
0
LINE
8
hole
62
5
39
2
10
118.888442
20
170.512756
11
119.711142
21
170.346985
0
LINE
8
hole
62
5
39
2
10
119.711142
20
170.346985
11
121.463545
21
169.936450
0
LINE
8
hole
62
5
39
2
10
121.463545
20
169.936450
11
122.278976
21
169.738111
0
LINE
8
hole
62
5
39
2
10
122.278976
20
169.738111
11
124.013615
21
169.257809
0
LINE
8
hole
62
5
39
2
10
124.013615
20
169.257809
11
124.820518
21
169.027208
0
LINE
8
hole
62
5
39
2
10
124.820518
20
169.027208
11
126.534487
21
168.477871
0
LINE
8
hole
62
5
39
2
10
126.534487
20
168.477871
11
127.331579
21
168.215373
0
LINE
8
hole
62
5
39
2
10
127.331579
20
168.215373
11
129.022257
21
167.597908
0
LINE
8
hole
62
5
39
2
10
129.022257
20
167.597908
11
129.808285
21
167.303930
0
LINE
8
hole
62
5
39
2
10
129.808285
20
167.303930
11
131.472842
21
166.619301
0
LINE
8
hole
62
5
39
2
10
131.472842
20
166.619301
11
132.246588
21
166.294292
0
LINE
8
hole
62
5
39
2
10
132.246588
20
166.294292
11
133.882396
21
165.543624
0
LINE
8
hole
62
5
39
2
10
133.882396
20
165.543624
11
134.642577
21
165.188125
0
LINE
8
hole
62
5
39
2
10
134.642577
20
165.188125
11
136.247157
21
164.372618
0
LINE
8
hole
62
5
39
2
10
136.247157
20
164.372618
11
136.992609
21
163.987177
0
LINE
8
hole
62
5
39
2
10
136.992609
20
163.987177
11
138.563171
21
163.108132
0
LINE
8
hole
62
5
39
2
10
138.563171
20
163.108132
11
139.292708
21
162.693359
0
LINE
8
hole
62
5
39
2
10
139.292708
20
162.693359
11
140.826840
21
161.752153
0
LINE
8
hole
62
5
39
2
10
140.826840
20
161.752153
11
141.539329
21
161.308694
0
LINE
8
hole
62
5
39
2
10
141.539329
20
161.308694
11
143.034687
21
160.306886
0
LINE
8
hole
62
5
39
2
10
143.034687
20
160.306886
11
143.728968
21
159.835461
0
LINE
8
hole
62
5
39
2
10
143.728968
20
159.835461
11
145.182946
21
158.774624
0
LINE
8
hole
62
5
39
2
10
145.182946
20
158.774624
11
145.857932
21
158.275972
0
LINE
8
hole
62
5
39
2
10
145.857932
20
158.275972
11
147.268394
21
157.157801
0
LINE
8
hole
62
5
39
2
10
147.268394
20
157.157801
11
147.923024
21
156.632705
0
LINE
8
hole
62
5
39
2
10
147.923024
20
156.632705
11
149.287541
21
155.459010
0
LINE
8
hole
62
5
39
2
10
149.287541
20
155.459010
11
149.920776
21
154.908304
0
LINE
8
hole
62
5
39
2
10
149.920776
20
154.908304
11
151.237233
21
153.680950
0
LINE
8
hole
62
5
39
2
10
151.237233
20
153.680950
11
151.848096
21
153.105486
0
LINE
8
hole
62
5
39
2
10
151.848096
20
153.105486
11
153.114388
21
151.826442
0
LINE
8
hole
62
5
39
2
10
153.114388
20
151.826442
11
153.701867
21
151.227169
0
LINE
8
hole
62
5
39
2
10
153.701867
20
151.227169
11
154.916059
21
149.898476
0
LINE
8
hole
62
5
39
2
10
154.916059
20
149.898476
11
155.479250
21
149.276315
0
LINE
8
hole
62
5
39
2
10
155.479250
20
149.276315
11
156.639232
21
147.900122
0
LINE
8
hole
62
5
39
2
10
156.639232
20
147.900122
11
157.177242
21
147.256070
0
LINE
8
hole
62
5
39
2
10
157.177242
20
147.256070
11
158.281277
21
145.834552
0
LINE
8
hole
62
5
39
2
10
158.281277
20
145.834552
11
158.793276
21
145.169593
0
LINE
8
hole
62
5
39
2
10
158.793276
20
145.169593
11
159.839507
21
143.705061
0
LINE
8
hole
62
5
39
2
10
159.839507
20
143.705061
11
160.324645
21
143.020294
0
LINE
8
hole
62
5
39
2
10
160.324645
20
143.020294
11
161.311482
21
141.515059
0
LINE
8
hole
62
5
39
2
10
161.311482
20
141.515059
11
161.769014
21
140.811548
0
LINE
8
hole
62
5
39
2
10
161.769014
20
140.811548
11
162.694827
21
139.268039
0
LINE
8
hole
62
5
39
2
10
162.694827
20
139.268039
11
163.124029
21
138.546894
0
LINE
8
hole
62
5
39
2
10
163.124029
20
138.546894
11
163.987348
21
136.967580
0
LINE
8
hole
62
5
39
2
10
163.987348
20
136.967580
11
164.387539
21
136.229943
0
LINE
8
hole
62
5
39
2
10
164.387539
20
136.229943
11
165.186949
21
134.617371
0
LINE
8
hole
62
5
39
2
10
165.186949
20
134.617371
11
165.557511
21
133.864379
0
LINE
8
hole
62
5
39
2
10
165.557511
20
133.864379
11
166.291796
21
132.221089
0
LINE
8
hole
62
5
39
2
10
166.291796
20
132.221089
11
166.632117
21
131.453985
0
LINE
8
hole
62
5
39
2
10
166.632117
20
131.453985
11
167.300063
21
129.782636
0
LINE
8
hole
62
5
39
2
10
167.300063
20
129.782636
11
167.609618
21
129.002610
0
LINE
8
hole
62
5
39
2
10
167.609618
20
129.002610
11
168.210153
21
127.305879
0
LINE
8
hole
62
5
39
2
10
168.210153
20
127.305879
11
168.488452
21
126.514162
0
LINE
8
hole
62
5
39
2
10
168.488452
20
126.514162
11
169.020598
21
124.794781
0
LINE
8
hole
62
5
39
2
10
169.020598
20
124.794781
11
169.267210
21
123.992603
0
LINE
8
hole
62
5
39
2
10
169.267210
20
123.992603
11
169.730169
21
122.253281
0
LINE
8
hole
62
5
39
2
10
169.730169
20
122.253281
11
169.944686
21
121.441955
0
LINE
8
hole
62
5
39
2
10
169.944686
20
121.441955
11
170.337679
21
119.685506
0
LINE
8
hole
62
5
39
2
10
170.337679
20
119.685506
11
170.519773
21
118.866293
0
LINE
8
hole
62
5
39
2
10
170.519773
20
118.866293
11
170.842178
21
117.095529
0
LINE
8
hole
62
5
39
2
10
170.842178
20
117.095529
11
170.991556
21
116.269726
0
LINE
8
hole
62
5
39
2
10
170.991556
20
116.269726
11
171.242834
21
114.487505
0
LINE
8
hole
62
5
39
2
10
171.242834
20
114.487505
11
171.359264
21
113.656420
0
LINE
8
hole
62
5
39
2
10
171.359264
20
113.656420
11
171.539070
21
111.865523
0
LINE
8
hole
62
5
39
2
10
171.539070
20
111.865523
11
171.622373
21
111.030429
0
LINE
8
hole
62
5
39
2
10
171.622373
20
111.030429
11
171.730352
21
109.233822
0
LINE
8
hole
62
5
39
2
10
171.730352
20
109.233822
11
171.780381
21
108.396109
0
LINE
8
hole
62
5
39
2
10
171.780381
20
108.396109
11
171.816419
21
106.596542
0
LINE
8
hole
62
5
39
2
10
171.816419
20
106.596542
11
171.833107
21
105.757505
0
LINE
8
hole
62
5
39
2
10
171.833107
20
105.757505
11
171.816427
21
104.918465
0
LINE
8
hole
62
5
39
2
10
171.816427
20
104.918465
11
171.780429
21
103.119000
0
LINE
8
hole
62
5
39
2
10
171.780429
20
103.119000
11
171.730400
21
102.281261
0
LINE
8
hole
62
5
39
2
10
171.730400
20
102.281261
11
171.622405
21
100.484667
0
LINE
8
hole
62
5
39
2
10
171.622405
20
100.484667
11
171.539113
21
99.649604
0
LINE
8
hole
62
5
39
2
10
171.539113
20
99.649604
11
171.359365
21
97.858687
0
LINE
8
hole
62
5
39
2
10
171.359365
20
97.858687
11
171.242939
21
97.027593
0
LINE
8
hole
62
5
39
2
10
171.242939
20
97.027593
11
170.991651
21
95.245376
0
LINE
8
hole
62
5
39
2
10
170.991651
20
95.245376
11
170.842280
21
94.419571
0
LINE
8
hole
62
5
39
2
10
170.842280
20
94.419571
11
170.519900
21
92.648789
0
LINE
8
hole
62
5
39
2
10
170.519900
20
92.648789
11
170.337812
21
91.829575
0
LINE
8
hole
62
5
39
2
10
170.337812
20
91.829575
11
169.944835
21
90.073164
0
LINE
8
hole
62
5
39
2
10
169.944835
20
90.073164
11
169.730315
21
89.261810
0
LINE
8
hole
62
5
39
2
10
169.730315
20
89.261810
11
169.267388
21
87.522456
0
LINE
8
hole
62
5
39
2
10
169.267388
20
87.522456
11
169.020790
21
86.720295
0
LINE
8
hole
62
5
39
2
10
169.020790
20
86.720295
11
168.488634
21
85.000918
0
LINE
8
hole
62
5
39
2
10
168.488634
20
85.000918
11
168.210339
21
84.209199
0
LINE
8
hole
62
5
39
2
10
168.210339
20
84.209199
11
167.609826
21
82.512444
0
LINE
8
hole
62
5
39
2
10
167.609826
20
82.512444
11
167.300274
21
81.732413
0
LINE
8
hole
62
5
39
2
10
167.300274
20
81.732413
11
166.632346
21
80.061099
0
LINE
8
hole
62
5
39
2
10
166.632346
20
80.061099
11
166.292022
21
79.293972
0
LINE
8
hole
62
5
39
2
10
166.292022
20
79.293972
11
165.557768
21
77.650659
0
LINE
8
hole
62
5
39
2
10
165.557768
20
77.650659
11
165.187221
21
76.897687
0
LINE
8
hole
62
5
39
2
10
165.187221
20
76.897687
11
164.387798
21
75.285079
0
LINE
8
hole
62
5
39
2
10
164.387798
20
75.285079
11
163.987609
21
74.547433
0
LINE
8
hole
62
5
39
2
10
163.987609
20
74.547433
11
163.124311
21
72.968140
0
LINE
8
hole
62
5
39
2
10
163.124311
20
72.968140
11
162.695113
21
72.246991
0
LINE
8
hole
62
5
39
2
10
162.695113
20
72.246991
11
161.769321
21
70.703507
0
LINE
8
hole
62
5
39
2
10
161.769321
20
70.703507
11
161.311796
21
69.999995
0
LINE
8
hole
62
5
39
2
10
161.311796
20
69.999995
11
160.324987
21
68.494708
0
LINE
8
hole
62
5
39
2
10
160.324987
20
68.494708
11
159.839833
21
67.809912
0
LINE
8
hole
62
5
39
2
10
159.839833
20
67.809912
11
158.793595
21
66.345390
0
LINE
8
hole
62
5
39
2
10
158.793595
20
66.345390
11
158.281617
21
65.680447
0
LINE
8
hole
62
5
39
2
10
158.281617
20
65.680447
11
157.177613
21
64.258887
0
LINE
8
hole
62
5
39
2
10
157.177613
20
64.258887
11
156.639603
21
63.614824
0
LINE
8
hole
62
5
39
2
10
156.639603
20
63.614824
11
155.479617
21
62.238643
0
LINE
8
hole
62
5
39
2
10
155.479617
20
62.238643
11
154.916429
21
61.616479
0
LINE
8
hole
62
5
39
2
10
154.916429
20
61.616479
11
153.702289
21
60.287739
0
LINE
8
hole
62
5
39
2
10
153.702289
20
60.287739
11
153.114790
21
59.688438
0
LINE
8
hole
62
5
39
2
10
153.114790
20
59.688438
11
151.848499
21
58.409413
0
LINE
8
hole
62
5
39
2
10
151.848499
20
58.409413
11
151.237657
21
57.833959
0
LINE
8
hole
62
5
39
2
10
151.237657
20
57.833959
11
149.921197
21
56.606645
0
LINE
8
hole
62
5
39
2
10
149.921197
20
56.606645
11
149.287964
21
56.055934
0
LINE
8
hole
62
5
39
2
10
149.287964
20
56.055934
11
147.923433
21
54.882194
0
LINE
8
hole
62
5
39
2
10
147.923433
20
54.882194
11
147.268807
21
54.357094
0
LINE
8
hole
62
5
39
2
10
147.268807
20
54.357094
11
145.858400
21
53.238883
0
LINE
8
hole
62
5
39
2
10
145.858400
20
53.238883
11
145.183412
21
52.740220
0
LINE
8
hole
62
5
39
2
10
145.183412
20
52.740220
11
143.729430
21
51.679395
0
LINE
8
hole
62
5
39
2
10
143.729430
20
51.679395
11
143.035128
21
51.207950
0
LINE
8
hole
62
5
39
2
10
143.035128
20
51.207950
11
141.539816
21
50.206069
0
LINE
8
hole
62
5
39
2
10
141.539816
20
50.206069
11
140.827341
21
49.762611
0
LINE
8
hole
62
5
39
2
10
140.827341
20
49.762611
11
139.293200
21
48.821431
0
LINE
8
hole
62
5
39
2
10
139.293200
20
48.821431
11
138.563658
21
48.406648
0
LINE
8
hole
62
5
39
2
10
138.563658
20
48.406648
11
136.993090
21
47.527626
0
LINE
8
hole
62
5
39
2
10
136.993090
20
47.527626
11
136.247640
21
47.142179
0
LINE
8
hole
62
5
39
2
10
136.247640
20
47.142179
11
134.643141
21
46.326724
0
LINE
8
hole
62
5
39
2
10
134.643141
20
46.326724
11
133.882944
21
45.971212
0
LINE
8
hole
62
5
39
2
10
133.882944
20
45.971212
11
132.247036
21
45.220441
0
LINE
8
hole
62
5
39
2
10
132.247036
20
45.220441
11
131.473316
21
44.895437
0
LINE
8
hole
62
5
39
2
10
131.473316
20
44.895437
11
129.808740
21
44.210828
0
LINE
8
hole
62
5
39
2
10
129.808740
20
44.210828
11
129.022714
21
43.916843
0
LINE
8
hole
62
5
39
2
10
129.022714
20
43.916843
11
127.332095
21
43.299393
0
LINE
8
hole
62
5
39
2
10
127.332095
20
43.299393
11
126.535007
21
43.036892
0
LINE
8
hole
62
5
39
2
10
126.535007
20
43.036892
11
124.821035
21
42.487583
0
LINE
8
hole
62
5
39
2
10
124.821035
20
42.487583
11
124.014147
21
42.256979
0
LINE
8
hole
62
5
39
2
10
124.014147
20
42.256979
11
122.279521
21
41.776600
0
LINE
8
hole
62
5
39
2
10
122.279521
20
41.776600
11
121.464068
21
41.578249
0
LINE
8
hole
62
5
39
2
10
121.464068
20
41.578249
11
119.711662
21
41.167732
0
LINE
8
hole
62
5
39
2
10
119.711662
20
41.167732
11
118.888996
21
41.001965
0
LINE
8
hole
62
5
39
2
10
118.888996
20
41.001965
11
117.121518
21
40.661828
0
LINE
8
hole
62
5
39
2
10
117.121518
20
40.661828
11
116.292909
21
40.528896
0
LINE
8
hole
62
5
39
2
10
116.292909
20
40.528896
11
114.513258
21
40.259773
0
LINE
8
hole
62
5
39
2
10
114.513258
20
40.259773
11
113.680019
21
40.159890
0
LINE
8
hole
62
5
39
2
10
113.680019
20
40.159890
11
111.891057
21
39.962210
0
LINE
8
hole
62
5
39
2
10
111.891057
20
39.962210
11
111.054483
21
39.895531
0
LINE
8
hole
62
5
39
2
10
111.054483
20
39.895531
11
109.258992
21
39.769547
0
LINE
8
hole
62
5
39
2
10
109.258992
20
39.769547
11
108.420447
21
39.736180
0
LINE
8
hole
62
5
39
2
10
108.420447
20
39.736180
11
106.621219
21
39.682154
0
LINE
8
hole
62
5
39
2
10
106.621219
20
39.682154
11
105.781937
21
39.682152
0
LINE
8
hole
62
5
39
2
10
105.781937
20
39.682152
11
103.981975
21
39.700148
0
LINE
8
hole
62
5
39
2
10
103.981975
20
39.700148
11
103.143351
21
39.733517
0
LINE
8
hole
62
5
39
2
10
103.143351
20
39.733517
11
101.345701
21
39.823552
0
LINE
8
hole
62
5
39
2
10
101.345701
20
39.823552
11
100.509148
21
39.890228
0
LINE
8
hole
62
5
39
2
10
100.509148
20
39.890228
11
98.716593
21
40.052075
0
LINE
8
hole
62
5
39
2
10
98.716593
20
40.052075
11
97.883347
21
40.151959
0
LINE
8
hole
62
5
39
2
10
97.883347
20
40.151959
11
96.098671
21
40.385415
0
LINE
8
hole
62
5
39
2
10
96.098671
20
40.385415
11
95.270032
21
40.518352
0
LINE
8
hole
62
5
39
2
10
95.270032
20
40.518352
11
93.496163
21
40.822998
0
LINE
8
hole
62
5
39
2
10
93.496163
20
40.822998
11
92.673490
21
40.988769
0
LINE
8
hole
62
5
39
2
10
92.673490
20
40.988769
11
90.913182
21
41.364193
0
LINE
8
hole
62
5
39
2
10
90.913182
20
41.364193
11
90.097750
21
41.562537
0
LINE
8
hole
62
5
39
2
10
90.097750
20
41.562537
11
88.353915
21
42.008039
0
LINE
8
hole
62
5
39
2
10
88.353915
20
42.008039
11
87.547011
21
42.238647
0
LINE
8
hole
62
5
39
2
10
87.547011
20
42.238647
11
85.822363
21
42.753601
0
LINE
8
hole
62
5
39
2
10
85.822363
20
42.753601
11
85.025237
21
43.016115
0
LINE
8
hole
62
5
39
2
10
85.025237
20
43.016115
11
83.322603
21
43.599621
0
LINE
8
hole
62
5
39
2
10
83.322603
20
43.599621
11
82.536575
21
43.893608
0
LINE
8
hole
62
5
39
2
10
82.536575
20
43.893608
11
80.858628
21
44.544802
0
LINE
8
hole
62
5
39
2
10
80.858628
20
44.544802
11
80.084907
21
44.869807
0
LINE
8
hole
62
5
39
2
10
80.084907
20
44.869807
11
78.434359
21
45.587607
0
LINE
8
hole
62
5
39
2
10
78.434359
20
45.587607
11
77.674172
21
45.943113
0
LINE
8
hole
62
5
39
2
10
77.674172
20
45.943113
11
76.053664
21
46.726377
0
LINE
8
hole
62
5
39
2
10
76.053664
20
46.726377
11
75.308209
21
47.111826
0
LINE
8
hole
62
5
39
2
10
75.308209
20
47.111826
11
73.720353
21
47.959270
0
LINE
8
hole
62
5
39
2
10
73.720353
20
47.959270
11
72.990789
21
48.374065
0
LINE
8
hole
62
5
39
2
10
72.990789
20
48.374065
11
71.438093
21
49.284387
0
LINE
8
hole
62
5
39
2
10
71.438093
20
49.284387
11
70.725623
21
49.727841
0
LINE
8
hole
62
5
39
2
10
70.725623
20
49.727841
11
69.210596
21
50.699562
0
LINE
8
hole
62
5
39
2
10
69.210596
20
50.699562
11
68.516318
21
51.170994
0
LINE
8
hole
62
5
39
2
10
68.516318
20
51.170994
11
67.041382
21
52.202549
0
LINE
8
hole
62
5
39
2
10
67.041382
20
52.202549
11
66.366393
21
52.701210
0
LINE
8
hole
62
5
39
2
10
66.366393
20
52.701210
11
64.933921
21
53.790926
0
LINE
8
hole
62
5
39
2
10
64.933921
20
53.790926
11
64.279269
21
54.316047
0
LINE
8
hole
62
5
39
2
10
64.279269
20
54.316047
11
62.891533
21
55.462226
0
LINE
8
hole
62
5
39
2
10
62.891533
20
55.462226
11
62.258299
21
56.012938
0
LINE
8
boundary
62
5
39
2
10
36.672160
20
31.839108
11
37.430551
21
31.145744
0
LINE
8
boundary
62
5
39
2
10
37.430551
20
31.145744
11
39.097215
21
29.645059
0
LINE
8
boundary
62
5
39
2
10
39.097215
20
29.645059
11
39.877794
21
28.976730
0
LINE
8
boundary
62
5
39
2
10
39.877794
20
28.976730
11
41.591938
21
27.530512
0
LINE
8
boundary
62
5
39
2
10
41.591938
20
27.530512
11
42.393854
21
26.887945
0
LINE
8
boundary
62
5
39
2
10
42.393854
20
26.887945
11
44.153689
21
25.497705
0
LINE
8
boundary
62
5
39
2
10
44.153689
20
25.497705
11
44.976116
21
24.881566
0
LINE
8
boundary
62
5
39
2
10
44.976116
20
24.881566
11
46.779835
21
23.548724
0
LINE
8
boundary
62
5
39
2
10
46.779835
20
23.548724
11
47.621853
21
22.959701
0
LINE
8
boundary
62
5
39
2
10
47.621853
20
22.959701
11
49.467674
21
21.685675
0
LINE
8
boundary
62
5
39
2
10
49.467674
20
21.685675
11
50.328402
21
21.124382
0
LINE
8
boundary
62
5
39
2
10
50.328402
20
21.124382
11
52.214213
21
19.910483
0
LINE
8
boundary
62
5
39
2
10
52.214213
20
19.910483
11
53.092782
21
19.377487
0
LINE
8
boundary
62
5
39
2
10
53.092782
20
19.377487
11
55.016711
21
18.224969
0
LINE
8
boundary
62
5
39
2
10
55.016711
20
18.224969
11
55.912185
21
17.720842
0
LINE
8
boundary
62
5
39
2
10
55.912185
20
17.720842
11
57.872248
21
16.630895
0
LINE
8
boundary
62
5
39
2
10
57.872248
20
16.630895
11
58.783603
21
16.156211
0
LINE
8
boundary
62
5
39
2
10
58.783603
20
16.156211
11
60.777763
21
15.129969
0
LINE
8
boundary
62
5
39
2
10
60.777763
20
15.129969
11
61.704110
21
14.685187
0
LINE
8
boundary
62
5
39
2
10
61.704110
20
14.685187
11
63.730396
21
13.723749
0
LINE
8
boundary
62
5
39
2
10
63.730396
20
13.723749
11
64.670762
21
13.309340
0
LINE
8
boundary
62
5
39
2
10
64.670762
20
13.309340
11
66.726873
21
12.413670
0
LINE
8
boundary
62
5
39
2
10
66.726873
20
12.413670
11
67.680177
21
12.030113
0
LINE
8
boundary
62
5
39
2
10
67.680177
20
12.030113
11
69.764073
21
11.201132
0
LINE
8
boundary
62
5
39
2
10
69.764073
20
11.201132
11
70.729407
21
10.848787
0
LINE
8
boundary
62
5
39
2
10
70.729407
20
10.848787
11
72.838928
21
10.087370
0
LINE
8
boundary
62
5
39
2
10
72.838928
20
10.087370
11
73.815163
21
9.766652
0
LINE
8
boundary
62
5
39
2
10
73.815163
20
9.766652
11
75.948118
21
9.073594
0
LINE
8
boundary
62
5
39
2
10
75.948118
20
9.073594
11
76.934300
21
8.784814
0
LINE
8
boundary
62
5
39
2
10
76.934300
20
8.784814
11
79.088524
21
8.160852
0
LINE
8
boundary
62
5
39
2
10
79.088524
20
8.160852
11
80.083589
21
7.904324
0
LINE
8
boundary
62
5
39
2
10
80.083589
20
7.904324
11
82.256827
21
7.350080
0
LINE
8
boundary
62
5
39
2
10
82.256827
20
7.350080
11
83.259744
21
7.126070
0
LINE
8
boundary
62
5
39
2
10
83.259744
20
7.126070
11
85.449641
21
6.642120
0
LINE
8
boundary
62
5
39
2
10
85.449641
20
6.642120
11
86.459263
21
6.450887
0
LINE
8
boundary
62
5
39
2
10
86.459263
20
6.450887
11
88.663602
21
6.037737
0
LINE
8
boundary
62
5
39
2
10
88.663602
20
6.037737
11
89.678942
21
5.879457
0
LINE
8
boundary
62
5
39
2
10
89.678942
20
5.879457
11
91.895443
21
5.537524
0
LINE
8
boundary
62
5
39
2
10
91.895443
20
5.537524
11
92.915420
21
5.412381
0
LINE
8
boundary
62
5
39
2
10
92.915420
20
5.412381
11
95.141790
21
5.142028
0
LINE
8
boundary
62
5
39
2
10
95.141790
20
5.142028
11
96.165266
21
5.050148
0
LINE
8
boundary
62
5
39
2
10
96.165266
20
5.050148
11
98.399262
21
4.851702
0
LINE
8
boundary
62
5
39
2
10
98.399262
20
4.851702
11
99.425192
21
4.793190
0
LINE
8
boundary
62
5
39
2
10
99.425192
20
4.793190
11
101.664352
21
4.666775
0
LINE
8
boundary
62
5
39
2
10
101.664352
20
4.666775
11
102.691695
21
4.641686
0
LINE
8
boundary
62
5
39
2
10
102.691695
20
4.641686
11
104.933944
21
4.587500
0
LINE
8
boundary
62
5
39
2
10
104.933944
20
4.587500
11
107.176737
21
4.605569
0
LINE
8
boundary
62
5
39
2
10
107.176737
20
4.605569
11
108.204356
21
4.613933
0
LINE
8
boundary
62
5
39
2
10
108.204356
20
4.613933
11
110.445309
21
4.704235
0
LINE
8
boundary
62
5
39
2
10
110.445309
20
4.704235
11
111.472085
21
4.746043
0
LINE
8
boundary
62
5
39
2
10
111.472085
20
4.746043
11
113.708957
21
4.908491
0
LINE
8
boundary
62
5
39
2
10
113.708957
20
4.908491
11
114.733800
21
4.983698
0
LINE
8
boundary
62
5
39
2
10
114.733800
20
4.983698
11
116.964223
21
5.218150
0
LINE
8
boundary
62
5
39
2
10
116.964223
20
5.218150
11
117.986049
21
5.326672
0
LINE
8
boundary
62
5
39
2
10
117.986049
20
5.326672
11
120.207818
21
5.632842
0
LINE
8
boundary
62
5
39
2
10
120.207818
20
5.632842
11
121.225624
21
5.774575
0
LINE
8
boundary
62
5
39
2
10
121.225624
20
5.774575
11
123.436324
21
6.152167
0
LINE
8
boundary
62
5
39
2
10
123.436324
20
6.152167
11
124.448924
21
6.326941
0
LINE
8
boundary
62
5
39
2
10
124.448924
20
6.326941
11
126.646353
21
6.775551
0
LINE
8
boundary
62
5
39
2
10
126.646353
20
6.775551
11
127.652783
21
6.983209
0
LINE
8
boundary
62
5
39
2
10
127.652783
20
6.983209
11
129.834578
21
7.502373
0
LINE
8
boundary
62
5
39
2
10
129.834578
20
7.502373
11
130.833660
21
7.742662
0
LINE
8
boundary
62
5
39
2
10
130.833660
20
7.742662
11
132.997690
21
8.331840
0
LINE
8
boundary
62
5
39
2
10
132.997690
20
8.331840
11
133.988470
21
8.604539
0
LINE
8
boundary
62
5
39
2
10
133.988470
20
8.604539
11
136.132309
21
9.263145
0
LINE
8
boundary
62
5
39
2
10
136.132309
20
9.263145
11
137.113668
21
9.567940
0
LINE
8
boundary
62
5
39
2
10
137.113668
20
9.567940
11
139.235239
21
10.295251
0
LINE
8
boundary
62
5
39
2
10
139.235239
20
10.295251
11
140.206153
21
10.631824
0
LINE
8
boundary
62
5
39
2
10
140.206153
20
10.631824
11
142.303121
21
11.427127
0
LINE
8
boundary
62
5
39
2
10
142.303121
20
11.427127
11
143.262566
21
11.795129
0
LINE
8
boundary
62
5
39
2
10
143.262566
20
11.795129
11
145.332827
21
12.657570
0
LINE
8
boundary
62
5
39
2
10
145.332827
20
12.657570
11
146.279791
21
13.056605
0
LINE
8
boundary
62
5
39
2
10
146.279791
20
13.056605
11
148.321204
21
13.985280
0
LINE
8
boundary
62
5
39
2
10
148.321204
20
13.985280
11
149.254676
21
14.414932
0
LINE
8
boundary
62
5
39
2
10
149.254676
20
14.414932
11
151.265219
21
15.408888
0
LINE
8
boundary
62
5
39
2
10
151.265219
20
15.408888
11
152.184203
21
15.868688
0
LINE
8
boundary
62
5
39
2
10
152.184203
20
15.868688
11
154.161576
21
16.926901
0
LINE
8
boundary
62
5
39
2
10
154.161576
20
16.926901
11
155.065106
21
17.416370
0
LINE
8
boundary
62
5
39
2
10
155.065106
20
17.416370
11
157.007353
21
18.537752
0
LINE
8
boundary
62
5
39
2
10
157.007353
20
18.537752
11
157.894475
21
19.056375
0
LINE
8
boundary
62
5
39
2
10
157.894475
20
19.056375
11
159.799591
21
20.239762
0
LINE
8
boundary
62
5
39
2
10
159.799591
20
20.239762
11
160.669367
21
20.786988
0
LINE
8
boundary
62
5
39
2
10
160.669367
20
20.786988
11
162.535415
21
22.031119
0
LINE
8
boundary
62
5
39
2
10
162.535415
20
22.031119
11
163.386918
21
22.606363
0
LINE
8
boundary
62
5
39
2
10
163.386918
20
22.606363
11
165.211922
21
23.909960
0
LINE
8
boundary
62
5
39
2
10
165.211922
20
23.909960
11
166.044218
21
24.512595
0
LINE
8
boundary
62
5
39
2
10
166.044218
20
24.512595
11
167.826216
21
25.874316
0
LINE
8
boundary
62
5
39
2
10
167.826216
20
25.874316
11
168.638486
21
26.503739
0
LINE
8
boundary
62
5
39
2
10
168.638486
20
26.503739
11
170.375699
21
27.922150
0
LINE
8
boundary
62
5
39
2
10
170.375699
20
27.922150
11
171.167050
21
28.577686
0
LINE
8
boundary
62
5
39
2
10
171.167050
20
28.577686
11
172.857726
21
30.051342
0
LINE
8
boundary
62
5
39
2
10
172.857726
20
30.051342
11
173.627317
21
30.732281
0
LINE
8
boundary
62
5
39
2
10
173.627317
20
30.732281
11
175.269587
21
32.259628
0
LINE
8
boundary
62
5
39
2
10
175.269587
20
32.259628
11
176.016630
21
32.965283
0
LINE
8
boundary
62
5
39
2
10
176.016630
20
32.965283
11
177.608872
21
34.544750
0
LINE
8
boundary
62
5
39
2
10
177.608872
20
34.544750
11
178.332533
21
35.274327
0
LINE
8
boundary
62
5
39
2
10
178.332533
20
35.274327
11
179.873022
21
36.904247
0
LINE
8
boundary
62
5
39
2
10
179.873022
20
36.904247
11
180.572529
21
37.656968
0
LINE
8
boundary
62
5
39
2
10
180.572529
20
37.656968
11
182.059760
21
39.335698
0
LINE
8
boundary
62
5
39
2
10
182.059760
20
39.335698
11
182.734413
21
40.110810
0
LINE
8
boundary
62
5
39
2
10
182.734413
20
40.110810
11
184.166759
21
41.836567
0
LINE
8
boundary
62
5
39
2
10
184.166759
20
41.836567
11
184.815828
21
42.633228
0
LINE
8
boundary
62
5
39
2
10
184.815828
20
42.633228
11
186.191886
21
44.404257
0
LINE
8
boundary
62
5
39
2
10
186.191886
20
44.404257
11
186.814675
21
45.221620
0
LINE
8
boundary
62
5
39
2
10
186.814675
20
45.221620
11
188.132884
21
47.036032
0
LINE
8
boundary
62
5
39
2
10
188.132884
20
47.036032
11
188.728745
21
47.873238
0
LINE
8
boundary
62
5
39
2
10
188.728745
20
47.873238
11
189.987842
21
49.729169
0
LINE
8
boundary
62
5
39
2
10
189.987842
20
49.729169
11
190.556150
21
50.585352
0
LINE
8
boundary
62
5
39
2
10
190.556150
20
50.585352
11
191.754873
21
52.480927
0
LINE
8
boundary
62
5
39
2
10
191.754873
20
52.480927
11
192.294994
21
53.355127
0
LINE
8
boundary
62
5
39
2
10
192.294994
20
53.355127
11
193.431946
21
55.288300
0
LINE
8
boundary
62
5
39
2
10
193.431946
20
55.288300
11
193.943310
21
56.179591
0
LINE
8
boundary
62
5
39
2
10
193.943310
20
56.179591
11
195.017401
21
58.148389
0
LINE
8
boundary
62
5
39
2
10
195.017401
20
58.148389
11
195.499499
21
59.055880
0
LINE
8
boundary
62
5
39
2
10
195.499499
20
59.055880
11
196.509611
21
61.058257
0
LINE
8
boundary
62
5
39
2
10
196.509611
20
61.058257
11
196.961919
21
61.980959
0
LINE
8
boundary
62
5
39
2
10
196.961919
20
61.980959
11
197.907054
21
64.014878
0
LINE
8
boundary
62
5
39
2
10
197.907054
20
64.014878
11
198.329097
21
64.951839
0
LINE
8
boundary
62
5
39
2
10
198.329097
20
64.951839
11
199.208144
21
67.015104
0
LINE
8
boundary
62
5
39
2
10
199.208144
20
67.015104
11
199.599446
21
67.965254
0
LINE
8
boundary
62
5
39
2
10
199.599446
20
67.965254
11
200.411587
21
70.055774
0
LINE
8
boundary
62
5
39
2
10
200.411587
20
70.055774
11
200.771771
21
71.018214
0
LINE
8
boundary
62
5
39
2
10
200.771771
20
71.018214
11
201.516141
21
73.133803
0
LINE
8
boundary
62
5
39
2
10
201.516141
20
73.133803
11
201.844801
21
74.107433
0
LINE
8
boundary
62
5
39
2
10
201.844801
20
74.107433
11
202.520715
21
76.245978
0
LINE
8
boundary
62
5
39
2
10
202.520715
20
76.245978
11
202.817498
21
77.229746
0
LINE
8
boundary
62
5
39
2
10
202.817498
20
77.229746
11
203.424060
21
79.388898
0
LINE
8
boundary
62
5
39
2
10
203.424060
20
79.388898
11
203.688673
21
80.381838
0
LINE
8
boundary
62
5
39
2
10
203.688673
20
80.381838
11
204.225369
21
82.559399
0
LINE
8
boundary
62
5
39
2
10
204.225369
20
82.559399
11
204.457529
21
83.560461
0
LINE
8
boundary
62
5
39
2
10
204.457529
20
83.560461
11
204.923799
21
85.754174
0
LINE
8
boundary
62
5
39
2
10
204.923799
20
85.754174
11
205.123241
21
86.762205
0
LINE
8
boundary
62
5
39
2
10
205.123241
20
86.762205
11
205.518614
21
88.969809
0
LINE
8
boundary
62
5
39
2
10
205.518614
20
88.969809
11
205.685142
21
89.983825
0
LINE
8
boundary
62
5
39
2
10
205.685142
20
89.983825
11
206.009259
21
92.203106
0
LINE
8
boundary
62
5
39
2
10
206.009259
20
92.203106
11
206.142698
21
93.222026
0
LINE
8
boundary
62
5
39
2
10
206.142698
20
93.222026
11
206.395058
21
95.450514
0
LINE
8
boundary
62
5
39
2
10
206.395058
20
95.450514
11
206.495257
21
96.473182
0
LINE
8
boundary
62
5
39
2
10
206.495257
20
96.473182
11
206.675689
21
98.708638
0
LINE
8
boundary
62
5
39
2
10
206.675689
20
98.708638
11
206.742549
21
99.734091
0
LINE
8
boundary
62
5
39
2
10
206.742549
20
99.734091
11
206.850889
21
101.974191
0
LINE
8
boundary
62
5
39
2
10
206.850889
20
101.974191
11
206.884333
21
103.001218
0
LINE
8
boundary
62
5
39
2
10
206.884333
20
103.001218
11
206.920461
21
105.243642
0
LINE
8
boundary
62
5
39
2
10
206.920461
20
105.243642
11
206.920457
21
106.271241
0
LINE
8
boundary
62
5
39
2
10
206.920457
20
106.271241
11
206.884394
21
108.513788
0
LINE
8
boundary
62
5
39
2
10
206.884394
20
108.513788
11
206.850946
21
109.540860
0
LINE
8
boundary
62
5
39
2
10
206.850946
20
109.540860
11
206.742561
21
111.780973
0
LINE
8
boundary
62
5
39
2
10
206.742561
20
111.780973
11
206.675702
21
112.806356
0
LINE
8
boundary
62
5
39
2
10
206.675702
20
112.806356
11
206.495216
21
115.041813
0
LINE
8
boundary
62
5
39
2
10
206.495216
20
115.041813
11
206.395008
21
116.064541
0
LINE
8
boundary
62
5
39
2
10
206.395008
20
116.064541
11
206.142604
21
118.293019
0
LINE
8
boundary
62
5
39
2
10
206.142604
20
118.293019
11
206.009169
21
119.311885
0
LINE
8
boundary
62
5
39
2
10
206.009169
20
119.311885
11
205.685108
21
121.531084
0
LINE
8
boundary
62
5
39
2
10
205.685108
20
121.531084
11
205.518567
21
122.545130
0
LINE
8
boundary
62
5
39
2
10
205.518567
20
122.545130
11
205.123223
21
124.752827
0
LINE
8
boundary
62
5
39
2
10
205.123223
20
124.752827
11
204.923774
21
125.760875
0
LINE
8
boundary
62
5
39
2
10
204.923774
20
125.760875
11
204.457458
21
127.954596
0
LINE
8
boundary
62
5
39
2
10
204.457458
20
127.954596
11
204.225309
21
128.955589
0
LINE
8
boundary
62
5
39
2
10
204.225309
20
128.955589
11
203.688563
21
131.133150
0
LINE
8
boundary
62
5
39
2
10
203.688563
20
131.133150
11
203.423937
21
132.126120
0
LINE
8
boundary
62
5
39
2
10
203.423937
20
132.126120
11
202.817337
21
134.285253
0
LINE
8
boundary
62
5
39
2
10
202.817337
20
134.285253
11
202.520539
21
135.269058
0
LINE
8
boundary
62
5
39
2
10
202.520539
20
135.269058
11
201.844687
21
137.407531
0
LINE
8
boundary
62
5
39
2
10
201.844687
20
137.407531
11
201.516036
21
138.381123
0
LINE
8
boundary
62
5
39
2
10
201.516036
20
138.381123
11
200.771670
21
140.496810
0
LINE
8
boundary
62
5
39
2
10
200.771670
20
140.496810
11
200.411497
21
141.459208
0
LINE
8
boundary
62
5
39
2
10
200.411497
20
141.459208
11
199.599320
21
143.549725
0
LINE
8
boundary
62
5
39
2
10
199.599320
20
143.549725
11
199.207995
21
144.499922
0
LINE
8
boundary
62
5
39
2
10
199.207995
20
144.499922
11
198.328901
21
146.563178
0
LINE
8
boundary
62
5
39
2
10
198.328901
20
146.563178
11
197.906881
21
147.500081
0
LINE
8
boundary
62
5
39
2
10
197.906881
20
147.500081
11
196.961785
21
149.533953
0
LINE
8
boundary
62
5
39
2
10
196.961785
20
149.533953
11
196.509464
21
150.456680
0
LINE
8
boundary
62
5
39
2
10
196.509464
20
150.456680
11
195.499326
21
152.459047
0
LINE
8
boundary
62
5
39
2
10
195.499326
20
152.459047
11
195.017221
21
153.366539
0
LINE
8
boundary
62
5
39
2
10
195.017221
20
153.366539
11
193.943117
21
155.335428
0
LINE
8
boundary
62
5
39
2
10
193.943117
20
155.335428
11
193.431737
21
156.226735
0
LINE
8
boundary
62
5
39
2
10
193.431737
20
156.226735
11
192.294741
21
158.159895
0
LINE
8
boundary
62
5
39
2
10
192.294741
20
158.159895
11
191.754636
21
159.034061
0
LINE
8
boundary
62
5
39
2
10
191.754636
20
159.034061
11
190.555951
21
160.929587
0
LINE
8
boundary
62
5
39
2
10
190.555951
20
160.929587
11
189.987660
21
161.785736
0
LINE
8
boundary
62
5
39
2
10
189.987660
20
161.785736
11
188.728533
21
163.641664
0
LINE
8
boundary
62
5
39
2
10
188.728533
20
163.641664
11
188.132655
21
164.478891
0
LINE
8
boundary
62
5
39
2
10
188.132655
20
164.478891
11
186.814413
21
166.293292
0
LINE
8
boundary
62
5
39
2
10
186.814413
20
166.293292
11
186.191616
21
167.110658
0
LINE
8
boundary
62
5
39
2
10
186.191616
20
167.110658
11
184.815584
21
168.881715
0
LINE
8
boundary
62
5
39
2
10
184.815584
20
168.881715
11
184.166513
21
169.678370
0
LINE
8
boundary
62
5
39
2
10
184.166513
20
169.678370
11
182.734144
21
171.404102
0
LINE
8
boundary
62
5
39
2
10
182.734144
20
171.404102
11
182.059487
21
172.179212
0
LINE
8
boundary
62
5
39
2
10
182.059487
20
172.179212
11
180.572273
21
173.857908
0
LINE
8
boundary
62
5
39
2
10
180.572273
20
173.857908
11
179.872742
21
174.610647
0
LINE
8
boundary
62
5
39
2
10
179.872742
20
174.610647
11
178.332210
21
176.240608
0
LINE
8
boundary
62
5
39
2
10
178.332210
20
176.240608
11
177.608575
21
176.970152
0
LINE
8
boundary
62
5
39
2
10
177.608575
20
176.970152
11
176.016338
21
178.549588
0
LINE
8
boundary
62
5
39
2
10
176.016338
20
178.549588
11
175.269316
21
179.255217
0
LINE
8
boundary
62
5
39
2
10
175.269316
20
179.255217
11
173.627014
21
180.782574
0
LINE
8
boundary
62
5
39
2
10
173.627014
20
180.782574
11
172.857398
21
181.463535
0
LINE
8
boundary
62
5
39
2
10
172.857398
20
181.463535
11
171.166750
21
182.937183
0
LINE
8
boundary
62
5
39
2
10
171.166750
20
182.937183
11
170.375396
21
183.592712
0
LINE
8
boundary
62
5
39
2
10
170.375396
20
183.592712
11
168.638144
21
185.011150
0
LINE
8
boundary
62
5
39
2
10
168.638144
20
185.011150
11
167.825876
21
185.640569
0
LINE
8
boundary
62
5
39
2
10
167.825876
20
185.640569
11
166.043843
21
187.002246
0
LINE
8
boundary
62
5
39
2
10
166.043843
20
187.002246
11
165.211516
21
187.604896
0
LINE
8
boundary
62
5
39
2
10
165.211516
20
187.604896
11
163.386542
21
188.908468
0
LINE
8
boundary
62
5
39
2
10
163.386542
20
188.908468
11
162.535066
21
189.483688
0
LINE
8
boundary
62
5
39
2
10
162.535066
20
189.483688
11
160.669017
21
190.727833
0
LINE
8
boundary
62
5
39
2
10
160.669017
20
190.727833
11
159.799246
21
191.275049
0
LINE
8
boundary
62
5
39
2
10
159.799246
20
191.275049
11
157.894113
21
192.458388
0
LINE
8
boundary
62
5
39
2
10
157.894113
20
192.458388
11
157.006991
21
192.977006
0
LINE
8
boundary
62
5
39
2
10
157.006991
20
192.977006
11
155.064690
21
194.098406
0
LINE
8
boundary
62
5
39
2
10
155.064690
20
194.098406
11
154.161157
21
194.587871
0
LINE
8
boundary
62
5
39
2
10
154.161157
20
194.587871
11
152.183768
21
195.646071
0
LINE
8
boundary
62
5
39
2
10
152.183768
20
195.646071
11
151.264783
21
196.105869
0
LINE
8
boundary
62
5
39
2
10
151.264783
20
196.105869
11
149.254333
21
197.099812
0
LINE
8
boundary
62
5
39
2
10
149.254333
20
197.099812
11
148.320866
21
197.529454
0
LINE
8
boundary
62
5
39
2
10
148.320866
20
197.529454
11
146.279392
21
198.458218
0
LINE
8
boundary
62
5
39
2
10
146.279392
20
198.458218
11
145.332445
21
198.857243
0
LINE
8
boundary
62
5
39
2
10
145.332445
20
198.857243
11
143.262144
21
199.719643
0
LINE
8
boundary
62
5
39
2
10
143.262144
20
199.719643
11
142.302708
21
200.087634
0
LINE
8
boundary
62
5
39
2
10
142.302708
20
200.087634
11
140.205716
21
200.882892
0
LINE
8
boundary
62
5
39
2
10
140.205716
20
200.882892
11
139.234804
21
201.219462
0
LINE
8
boundary
62
5
39
2
10
139.234804
20
201.219462
11
137.113272
21
201.946759
0
LINE
8
boundary
62
5
39
2
10
137.113272
20
201.946759
11
136.131918
21
202.251550
0
LINE
8
boundary
62
5
39
2
10
136.131918
20
202.251550
11
133.988029
21
202.910157
0
LINE
8
boundary
62
5
39
2
10
133.988029
20
202.910157
11
132.997276
21
203.182843
0
LINE
8
boundary
62
5
39
2
10
132.997276
20
203.182843
11
130.833318
21
203.772010
0
LINE
8
boundary
62
5
39
2
10
130.833318
20
203.772010
11
129.834178
21
204.012309
0
LINE
8
boundary
62
5
39
2
10
129.834178
20
204.012309
11
127.652316
21
204.531519
0
LINE
8
boundary
62
5
39
2
10
127.652316
20
204.531519
11
126.645955
21
204.739156
0
LINE
8
boundary
62
5
39
2
10
126.645955
20
204.739156
11
124.448543
21
205.187729
0
LINE
8
boundary
62
5
39
2
10
124.448543
20
205.187729
11
123.435888
21
205.362509
0
LINE
8
boundary
62
5
39
2
10
123.435888
20
205.362509
11
121.225141
21
205.740098
0
LINE
8
boundary
62
5
39
2
10
121.225141
20
205.740098
11
120.207400
21
205.881818
0
LINE
8
boundary
62
5
39
2
10
120.207400
20
205.881818
11
117.985667
21
206.187964
0
LINE
8
boundary
62
5
39
2
10
117.985667
20
206.187964
11
116.963785
21
206.296485
0
LINE
8
boundary
62
5
39
2
10
116.963785
20
206.296485
11
114.733311
21
206.530921
0
LINE
8
boundary
62
5
39
2
10
114.733311
20
206.530921
11
113.708505
21
206.606121
0
LINE
8
boundary
62
5
39
2
10
113.708505
20
206.606121
11
111.471662
21
206.768549
0
LINE
8
boundary
62
5
39
2
10
111.471662
20
206.768549
11
110.444917
21
206.810353
0
LINE
8
boundary
62
5
39
2
10
110.444917
20
206.810353
11
108.203965
21
206.900673
0
LINE
8
boundary
62
5
39
2
10
108.203965
20
206.900673
11
107.176444
21
206.909035
0
LINE
8
boundary
62
5
39
2
10
107.176444
20
206.909035
11
104.933903
21
206.927100
0
LINE
8
boundary
62
5
39
2
10
104.933903
20
206.927100
11
102.692028
21
206.872912
0
LINE
8
boundary
62
5
39
2
10
102.692028
20
206.872912
11
101.664811
21
206.847827
0
LINE
8
boundary
62
5
39
2
10
101.664811
20
206.847827
11
99.425598
21
206.721412
0
LINE
8
boundary
62
5
39
2
10
99.425598
20
206.721412
11
98.399664
21
206.662904
0
LINE
8
boundary
62
5
39
2
10
98.399664
20
206.662904
11
96.165735
21
206.464444
0
LINE
8
boundary
62
5
39
2
10
96.165735
20
206.464444
11
95.142220
21
206.372567
0
LINE
8
boundary
62
5
39
2
10
95.142220
20
206.372567
11
92.915837
21
206.102254
0
LINE
8
boundary
62
5
39
2
10
92.915837
20
206.102254
11
91.895893
21
205.977114
0
LINE
8
boundary
62
5
39
2
10
91.895893
20
205.977114
11
89.679370
21
205.635218
0
LINE
8
boundary
62
5
39
2
10
89.679370
20
205.635218
11
88.664071
21
205.476954
0
LINE
8
boundary
62
5
39
2
10
88.664071
20
205.476954
11
86.459710
21
205.063832
0
LINE
8
boundary
62
5
39
2
10
86.459710
20
205.063832
11
85.450041
21
204.872591
0
LINE
8
boundary
62
5
39
2
10
85.450041
20
204.872591
11
83.260087
21
204.388591
0
LINE
8
boundary
62
5
39
2
10
83.260087
20
204.388591
11
82.257201
21
204.164592
0
LINE
8
boundary
62
5
39
2
10
82.257201
20
204.164592
11
80.084002
21
203.610336
0
LINE
8
boundary
62
5
39
2
10
80.084002
20
203.610336
11
79.088939
21
203.353813
0
LINE
8
boundary
62
5
39
2
10
79.088939
20
203.353813
11
76.934743
21
202.729851
0
LINE
8
boundary
62
5
39
2
10
76.934743
20
202.729851
11
75.948586
21
202.441084
0
LINE
8
boundary
62
5
39
2
10
75.948586
20
202.441084
11
73.815623
21
201.748062
0
LINE
8
boundary
62
5
39
2
10
73.815623
20
201.748062
11
72.839328
21
201.427329
0
LINE
8
boundary
62
5
39
2
10
72.839328
20
201.427329
11
70.729794
21
200.665950
0
LINE
8
boundary
62
5
39
2
10
70.729794
20
200.665950
11
69.764521
21
200.313634
0
LINE
8
boundary
62
5
39
2
10
69.764521
20
200.313634
11
67.680601
21
199.484696
0
LINE
8
boundary
62
5
39
2
10
67.680601
20
199.484696
11
66.727250
21
199.101123
0
LINE
8
boundary
62
5
39
2
10
66.727250
20
199.101123
11
64.671070
21
198.205373
0
LINE
8
boundary
62
5
39
2
10
64.671070
20
198.205373
11
63.730731
21
197.790978
0
LINE
8
boundary
62
5
39
2
10
63.730731
20
197.790978
11
61.704529
21
196.829550
0
LINE
8
boundary
62
5
39
2
10
61.704529
20
196.829550
11
60.778206
21
196.384786
0
LINE
8
boundary
62
5
39
2
10
60.778206
20
196.384786
11
58.784030
21
195.358584
0
LINE
8
boundary
62
5
39
2
10
58.784030
20
195.358584
11
57.872618
21
194.883875
0
LINE
8
boundary
62
5
39
2
10
57.872618
20
194.883875
11
55.912539
21
193.793961
0
LINE
8
boundary
62
5
39
2
10
55.912539
20
193.793961
11
55.017097
21
193.289855
0
LINE
8
boundary
62
5
39
2
10
55.017097
20
193.289855
11
53.093126
21
192.137363
0
LINE
8
boundary
62
5
39
2
10
53.093126
20
192.137363
11
52.214597
21
191.604396
0
LINE
8
boundary
62
5
39
2
10
52.214597
20
191.604396
11
50.328740
21
190.390417
0
LINE
8
boundary
62
5
39
2
10
50.328740
20
190.390417
11
49.467984
21
189.829113
0
LINE
8
boundary
62
5
39
2
10
49.467984
20
189.829113
11
47.622243
21
188.555111
0
LINE
8
boundary
62
5
39
2
10
47.622243
20
188.555111
11
46.780190
21
187.966070
0
LINE
8
boundary
62
5
39
2
10
46.780190
20
187.966070
11
44.976450
21
186.633255
0
LINE
8
boundary
62
5
39
2
10
44.976450
20
186.633255
11
44.154047
21
186.017134
0
LINE
8
boundary
62
5
39
2
10
44.154047
20
186.017134
11
42.394181
21
184.626927
0
LINE
8
boundary
62
5
39
2
10
42.394181
20
184.626927
11
41.592270
21
183.984372
0
LINE
8
boundary
62
5
39
2
10
41.592270
20
183.984372
11
39.878087
21
182.538175
0
LINE
8
boundary
62
5
39
2
10
39.878087
20
182.538175
11
39.097542
21
181.869879
0
LINE
8
boundary
62
5
39
2
10
39.097542
20
181.869879
11
37.430839
21
180.369104
0
LINE
8
boundary
62
5
39
2
10
37.430839
20
180.369104
11
36.672403
21
179.675705
0
LINE
8
boundary
62
5
39
2
10
36.672403
20
179.675705
11
35.054928
21
178.122122
0
LINE
8
boundary
62
5
39
2
10
35.054928
20
178.122122
11
34.319493
21
177.404427
0
LINE
8
boundary
62
5
39
2
10
34.319493
20
177.404427
11
32.752914
21
175.799539
0
LINE
8
boundary
62
5
39
2
10
32.752914
20
175.799539
11
32.041248
21
175.058310
0
LINE
8
boundary
62
5
39
2
10
32.041248
20
175.058310
11
30.527180
21
173.403793
0
LINE
8
boundary
62
5
39
2
10
30.527180
20
173.403793
11
29.839996
21
172.639771
0
LINE
8
boundary
62
5
39
2
10
29.839996
20
172.639771
11
28.380000
21
170.937344
0
LINE
8
boundary
62
5
39
2
10
28.380000
20
170.937344
11
27.718057
21
170.151361
0
LINE
8
boundary
62
5
39
2
10
27.718057
20
170.151361
11
26.313681
21
168.402663
0
LINE
8
boundary
62
5
39
2
10
26.313681
20
168.402663
11
25.677641
21
167.595520
0
LINE
8
boundary
62
5
39
2
10
25.677641
20
167.595520
11
24.330326
21
165.802590
0
LINE
8
boundary
62
5
39
2
10
24.330326
20
165.802590
11
23.720922
21
164.975199
0
LINE
8
boundary
62
5
39
2
10
23.720922
20
164.975199
11
22.432062
21
163.139796
0
LINE
8
boundary
62
5
39
2
10
22.432062
20
163.139796
11
21.849925
21
162.293034
0
LINE
8
boundary
62
5
39
2
10
21.849925
20
162.293034
11
20.620867
21
160.417071
0
LINE
8
boundary
62
5
39
2
10
20.620867
20
160.417071
11
20.066568
21
159.551758
0
LINE
8
boundary
62
5
39
2
10
20.066568
20
159.551758
11
18.898575
21
157.637163
0
LINE
8
boundary
62
5
39
2
10
18.898575
20
157.637163
11
18.372773
21
156.754324
0
LINE
8
boundary
62
5
39
2
10
18.372773
20
156.754324
11
17.267087
21
154.803004
0
LINE
8
boundary
62
5
39
2
10
17.267087
20
154.803004
11
16.770277
21
153.903480
0
LINE
8
boundary
62
5
39
2
10
16.770277
20
153.903480
11
15.728024
21
151.917646
0
LINE
8
boundary
62
5
39
2
10
15.728024
20
151.917646
11
15.260742
21
151.002402
0
LINE
8
boundary
62
5
39
2
10
15.260742
20
151.002402
11
14.282995
21
148.984021
0
LINE
8
boundary
62
5
39
2
10
14.282995
20
148.984021
11
13.845769
21
148.054087
0
LINE
8
boundary
62
5
39
2
10
13.845769
20
148.054087
11
12.933545
21
146.005252
0
LINE
8
boundary
62
5
39
2
10
12.933545
20
146.005252
11
12.526829
21
145.061607
0
LINE
8
boundary
62
5
39
2
10
12.526829
20
145.061607
11
11.681082
21
142.984450
0
LINE
8
boundary
62
5
39
2
10
11.681082
20
142.984450
11
11.305289
21
142.028040
0
LINE
8
boundary
62
5
39
2
10
11.305289
20
142.028040
11
10.526941
21
139.924628
0
LINE
8
boundary
62
5
39
2
10
10.526941
20
139.924628
11
10.182474
21
138.956481
0
LINE
8
boundary
62
5
39
2
10
10.182474
20
138.956481
11
9.472262
21
136.829172
0
LINE
8
boundary
62
5
39
2
10
9.472262
20
136.829172
11
9.159490
21
135.850329
0
LINE
8
boundary
62
5
39
2
10
9.159490
20
135.850329
11
8.518173
21
133.701247
0
LINE
8
boundary
62
5
39
2
10
8.518173
20
133.701247
11
8.237421
21
132.712717
0
LINE
8
boundary
62
5
39
2
10
8.237421
20
132.712717
11
7.665676
21
130.544087
0
LINE
8
boundary
62
5
39
2
10
7.665676
20
130.544087
11
7.417261
21
129.546976
0
LINE
8
boundary
62
5
39
2
10
7.417261
20
129.546976
11
6.915658
21
127.361046
0
LINE
8
boundary
62
5
39
2
10
6.915658
20
127.361046
11
6.699827
21
126.356382
0
LINE
8
boundary
62
5
39
2
10
6.699827
20
126.356382
11
6.268967
21
124.155343
0
LINE
8
boundary
62
5
39
2
10
6.268967
20
124.155343
11
6.085949
21
123.144176
0
LINE
8
boundary
62
5
39
2
10
6.085949
20
123.144176
11
5.726175
21
120.930486
0
LINE
8
boundary
62
5
39
2
10
5.726175
20
120.930486
11
5.576175
21
119.913927
0
LINE
8
boundary
62
5
39
2
10
5.576175
20
119.913927
11
5.287929
21
117.689802
0
LINE
8
boundary
62
5
39
2
10
5.287929
20
117.689802
11
5.171090
21
116.668863
0
LINE
8
boundary
62
5
39
2
10
5.171090
20
116.668863
11
4.954615
21
114.436611
0
LINE
8
boundary
62
5
39
2
10
4.954615
20
114.436611
11
4.871068
21
113.412386
0
LINE
8
boundary
62
5
39
2
10
4.871068
20
113.412386
11
4.726618
21
111.174307
0
LINE
8
boundary
62
5
39
2
10
4.726618
20
111.174307
11
4.676457
21
110.147942
0
LINE
8
boundary
62
5
39
2
10
4.676457
20
110.147942
11
4.604230
21
107.906308
0
LINE
8
boundary
62
5
39
2
10
4.604230
20
107.906308
11
4.587500
21
106.878874
0
LINE
8
boundary
62
5
39
2
10
4.587500
20
106.878874
11
4.587509
21
104.636112
0
LINE
8
boundary
62
5
39
2
10
4.587509
20
104.636112
11
4.604234
21
103.608643
0
LINE
8
boundary
62
5
39
2
10
4.604234
20
103.608643
11
4.676485
21
101.367083
0
LINE
8
boundary
62
5
39
2
10
4.676485
20
101.367083
11
4.726644
21
100.340675
0
LINE
8
boundary
62
5
39
2
10
4.726644
20
100.340675
11
4.871058
21
98.102603
0
LINE
8
boundary
62
5
39
2
10
4.871058
20
98.102603
11
4.954602
21
97.078406
0
LINE
8
boundary
62
5
39
2
10
4.954602
20
97.078406
11
5.171034
21
94.846151
0
LINE
8
boundary
62
5
39
2
10
5.171034
20
94.846151
11
5.287861
21
93.825247
0
LINE
8
boundary
62
5
39
2
10
5.287861
20
93.825247
11
5.576087
21
91.601119
0
LINE
8
boundary
62
5
39
2
10
5.576087
20
91.601119
11
5.726086
21
90.584531
0
LINE
8
boundary
62
5
39
2
10
5.726086
20
90.584531
11
6.085905
21
88.370768
0
LINE
8
boundary
62
5
39
2
10
6.085905
20
88.370768
11
6.268921
21
87.359591
0
LINE
8
boundary
62
5
39
2
10
6.268921
20
87.359591
11
6.699803
21
85.158646
0
LINE
8
boundary
62
5
39
2
10
6.699803
20
85.158646
11
6.915632
21
84.153961
0
LINE
8
boundary
62
5
39
2
10
6.915632
20
84.153961
11
7.417187
21
81.968045
0
LINE
8
boundary
62
5
39
2
10
7.417187
20
81.968045
11
7.665613
21
80.970894
0
LINE
8
boundary
62
5
39
2
10
7.665613
20
80.970894
11
8.237316
21
78.802262
0
LINE
8
boundary
62
5
39
2
10
8.237316
20
78.802262
11
8.518056
21
77.813761
0
LINE
8
boundary
62
5
39
2
10
8.518056
20
77.813761
11
9.159331
21
75.664665
0
LINE
8
boundary
62
5
39
2
10
9.159331
20
75.664665
11
9.472095
21
74.685830
0
LINE
8
boundary
62
5
39
2
10
9.472095
20
74.685830
11
10.182370
21
72.558446
0
LINE
8
boundary
62
5
39
2
10
10.182370
20
72.558446
11
10.526835
21
71.590300
0
LINE
8
boundary
62
5
39
2
10
10.526835
20
71.590300
11
11.305193
21
69.486972
0
LINE
8
boundary
62
5
39
2
10
11.305193
20
69.486972
11
11.680971
21
68.530576
0
LINE
8
boundary
62
5
39
2
10
11.680971
20
68.530576
11
12.526679
21
66.453419
0
LINE
8
boundary
62
5
39
2
10
12.526679
20
66.453419
11
12.933409
21
65.509734
0
LINE
8
boundary
62
5
39
2
10
12.933409
20
65.509734
11
13.845584
21
63.460900
0
LINE
8
boundary
62
5
39
2
10
13.845584
20
63.460900
11
14.282823
21
62.530933
0
LINE
8
boundary
62
5
39
2
10
14.282823
20
62.530933
11
15.260527
21
60.512536
0
LINE
8
boundary
62
5
39
2
10
15.260527
20
60.512536
11
15.727785
21
59.597324
0
LINE
8
boundary
62
5
39
2
10
15.727785
20
59.597324
11
16.770116
21
57.611424
0
LINE
8
boundary
62
5
39
2
10
16.770116
20
57.611424
11
17.266908
21
56.711923
0
LINE
8
boundary
62
5
39
2
10
17.266908
20
56.711923
11
18.372581
21
54.760692
0
LINE
8
boundary
62
5
39
2
10
18.372581
20
54.760692
11
18.898419
21
53.877786
0
LINE
8
boundary
62
5
39
2
10
18.898419
20
53.877786
11
20.066379
21
51.963187
0
LINE
8
boundary
62
5
39
2
10
20.066379
20
51.963187
11
20.620646
21
51.097918
0
LINE
8
boundary
62
5
39
2
10
20.620646
20
51.097918
11
21.849662
21
49.221938
0
LINE
8
boundary
62
5
39
2
10
21.849662
20
49.221938
11
22.431814
21
48.375144
0
LINE
8
boundary
62
5
39
2
10
22.431814
20
48.375144
11
23.720632
21
46.539722
0
LINE
8
boundary
62
5
39
2
10
23.720632
20
46.539722
11
24.330048
21
45.712308
0
LINE
8
boundary
62
5
39
2
10
24.330048
20
45.712308
11
25.677439
21
43.919336
0
LINE
8
boundary
62
5
39
2
10
25.677439
20
43.919336
11
26.313458
21
43.112215
0
LINE
8
boundary
62
5
39
2
10
26.313458
20
43.112215
11
27.717812
21
41.363604
0
LINE
8
boundary
62
5
39
2
10
27.717812
20
41.363604
11
28.379757
21
40.577612
0
LINE
8
boundary
62
5
39
2
10
28.379757
20
40.577612
11
29.839721
21
38.875160
0
LINE
8
boundary
62
5
39
2
10
29.839721
20
38.875160
11
30.526886
21
38.111152
0
LINE
8
boundary
62
5
39
2
10
30.526886
20
38.111152
11
32.040919
21
36.456612
0
LINE
8
boundary
62
5
39
2
10
32.040919
20
36.456612
11
32.752603
21
35.715355
0
LINE
8
boundary
62
5
39
2
10
32.752603
20
35.715355
11
34.319157
21
34.110444
0
LINE
8
boundary
62
5
39
2
10
34.319157
20
34.110444
11
35.054610
21
33.392729
0
LINE
8
boundary
62
5
39
2
10
35.054610
20
33.392729
11
36.672160
21
31.839108
0
LINE
8
annotation
62
1
39
211
10
105.748896
20
186.273173
11
105.748896
21
187.701923
0
LINE
8
annotation
62
1
39
211
10
105.748896
20
25.241407
11
107.177646
21
25.241407
0
LINE
8
annotation
62
1
39
211
10
176.707666
20
90.706787
11
184.796222
21
90.706787
0
LINE
8
annotation
62
1
39
211
10
184.796222
20
90.706787
11
184.796222
21
90.706787
0
LINE
8
annotation
62
1
39
211
10
184.796222
20
90.706787
11
186.247960
21
90.837316
0
LINE
8
annotation
62
1
39
211
10
186.247960
20
90.837316
11
187.615228
21
91.213623
0
LINE
8
annotation
62
1
39
211
10
187.615228
20
91.213623
11
188.874975
21
91.812791
0
LINE
8
annotation
62
1
39
211
10
188.874975
20
91.812791
11
190.004154
21
92.611902
0
LINE
8
annotation
62
1
39
211
10
190.004154
20
92.611902
11
190.979713
21
93.588038
0
LINE
8
annotation
62
1
39
211
10
190.979713
20
93.588038
11
191.778605
21
94.718282
0
LINE
8
annotation
62
1
39
211
10
191.778605
20
94.718282
11
192.377779
21
95.979715
0
LINE
8
annotation
62
1
39
211
10
192.377779
20
95.979715
11
192.754187
21
97.349421
0
LINE
8
annotation
62
1
39
211
10
192.754187
20
97.349421
11
192.884778
21
98.804480
0
LINE
8
annotation
62
1
39
211
10
192.884778
20
98.804480
11
192.884778
21
102.833910
0
LINE
8
annotation
62
1
39
211
10
192.884778
20
102.833910
11
192.884778
21
102.833910
0
LINE
8
annotation
62
1
39
211
10
192.884778
20
102.833910
11
192.754262
21
104.288265
0
LINE
8
annotation
62
1
39
211
10
192.754262
20
104.288265
11
192.378042
21
105.656081
0
LINE
8
annotation
62
1
39
211
10
192.378042
20
105.656081
11
191.779113
21
106.914779
0
LINE
8
annotation
62
1
39
211
10
191.779113
20
106.914779
11
190.980465
21
108.041779
0
LINE
8
annotation
62
1
39
211
10
190.980465
20
108.041779
11
190.005094
21
109.014503
0
LINE
8
annotation
62
1
39
211
10
190.005094
20
109.014503
11
188.875991
21
109.810371
0
LINE
8
annotation
62
1
39
211
10
188.875991
20
109.810371
11
187.616149
21
110.406804
0
LINE
8
annotation
62
1
39
211
10
187.616149
20
110.406804
11
186.248562
21
110.781221
0
LINE
8
annotation
62
1
39
211
10
186.248562
20
110.781221
11
184.796222
21
110.911045
0
LINE
8
annotation
62
1
39
211
10
184.796222
20
110.911045
11
176.707666
21
110.911045
0
LINE
8
annotation
62
1
39
211
10
176.707666
20
110.911045
11
176.707666
21
127.131557
0
LINE
8
annotation
62
1
39
211
10
176.707666
20
127.131557
11
192.884778
21
127.131557
0
LINE
8
hole
62
5
39
2
10
104.943287
20
390.977087
11
105.514787
21
390.977087
0
LINE
8
hole
62
5
39
2
10
105.514787
20
390.977087
11
105.514787
21
391.548587
0
LINE
8
hole
62
5
39
2
10
105.514787
20
391.548587
11
104.943287
21
391.548587
0
LINE
8
hole
62
5
39
2
10
104.943287
20
391.548587
11
104.943287
21
390.977087
0
LINE
8
hole
62
5
39
2
10
104.943287
20
229.945321
11
105.514787
21
229.945321
0
LINE
8
hole
62
5
39
2
10
105.514787
20
229.945321
11
105.514787
21
230.516821
0
LINE
8
hole
62
5
39
2
10
105.514787
20
230.516821
11
104.943287
21
230.516821
0
LINE
8
hole
62
5
39
2
10
104.943287
20
230.516821
11
104.943287
21
229.945321
0
LINE
8
hole
62
5
39
2
10
24.887945
20
310.461195
11
25.459445
21
310.461195
0
LINE
8
hole
62
5
39
2
10
25.459445
20
310.461195
11
25.459445
21
311.032695
0
LINE
8
hole
62
5
39
2
10
25.459445
20
311.032695
11
24.887945
21
311.032695
0
LINE
8
hole
62
5
39
2
10
24.887945
20
311.032695
11
24.887945
21
310.461195
0
LINE
8
hole
62
5
39
2
10
184.990694
20
310.461195
11
185.562194
21
310.461195
0
LINE
8
hole
62
5
39
2
10
185.562194
20
310.461195
11
185.562194
21
311.032695
0
LINE
8
hole
62
5
39
2
10
185.562194
20
311.032695
11
184.990694
21
311.032695
0
LINE
8
hole
62
5
39
2
10
184.990694
20
311.032695
11
184.990694
21
310.461195
0
LINE
8
hole
62
5
39
2
10
60.907063
20
261.036214
11
60.318336
21
261.563477
0
LINE
8
hole
62
5
39
2
10
60.318336
20
261.563477
11
58.962135
21
262.841109
0
LINE
8
hole
62
5
39
2
10
58.962135
20
262.841109
11
58.394972
21
263.391506
0
LINE
8
hole
62
5
39
2
10
58.394972
20
263.391506
11
57.090632
21
264.722048
0
LINE
8
hole
62
5
39
2
10
57.090632
20
264.722048
11
56.545947
21
265.294682
0
LINE
8
hole
62
5
39
2
10
56.545947
20
265.294682
11
55.295538
21
266.676035
0
LINE
8
hole
62
5
39
2
10
55.295538
20
266.676035
11
54.774197
21
267.270018
0
LINE
8
hole
62
5
39
2
10
54.774197
20
267.270018
11
53.579655
21
268.700029
0
LINE
8
hole
62
5
39
2
10
53.579655
20
268.700029
11
53.082503
21
269.314401
0
LINE
8
hole
62
5
39
2
10
53.082503
20
269.314401
11
51.945797
21
270.790725
0
LINE
8
hole
62
5
39
2
10
51.945797
20
270.790725
11
51.473618
21
271.424473
0
LINE
8
hole
62
5
39
2
10
51.473618
20
271.424473
11
50.396507
21
272.944823
0
LINE
8
hole
62
5
39
2
10
50.396507
20
272.944823
11
49.950062
21
273.596975
0
LINE
8
hole
62
5
39
2
10
49.950062
20
273.596975
11
48.934240
21
275.158943
0
LINE
8
hole
62
5
39
2
10
48.934240
20
275.158943
11
48.514249
21
275.828415
0
LINE
8
hole
62
5
39
2
10
48.514249
20
275.828415
11
47.561289
21
277.429601
0
LINE
8
hole
62
5
39
2
10
47.561289
20
277.429601
11
47.168421
21
278.115368
0
LINE
8
hole
62
5
39
2
10
47.168421
20
278.115368
11
46.279918
21
279.753100
0
LINE
8
hole
62
5
39
2
10
46.279918
20
279.753100
11
45.914797
21
280.454008
0
LINE
8
hole
62
5
39
2
10
45.914797
20
280.454008
11
45.092101
21
282.125774
0
LINE
8
hole
62
5
39
2
10
45.092101
20
282.125774
11
44.755316
21
282.840751
0
LINE
8
hole
62
5
39
2
10
44.755316
20
282.840751
11
43.999731
21
284.543905
0
LINE
8
hole
62
5
39
2
10
43.999731
20
284.543905
11
43.691819
21
285.271764
0
LINE
8
hole
62
5
39
2
10
43.691819
20
285.271764
11
43.004543
21
287.003616
0
LINE
8
hole
62
5
39
2
10
43.004543
20
287.003616
11
42.726006
21
287.743244
0
LINE
8
hole
62
5
39
2
10
42.726006
20
287.743244
11
42.108111
21
289.501104
0
LINE
8
hole
62
5
39
2
10
42.108111
20
289.501104
11
41.859383
21
290.251249
0
LINE
8
hole
62
5
39
2
10
41.859383
20
290.251249
11
41.311879
21
292.032222
0
LINE
8
hole
62
5
39
2
10
41.311879
20
292.032222
11
41.093366
21
292.791738
0
LINE
8
hole
62
5
39
2
10
41.093366
20
292.791738
11
40.617097
21
294.593072
0
LINE
8
hole
62
5
39
2
10
40.617097
20
294.593072
11
40.429142
21
295.360704
0
LINE
8
hole
62
5
39
2
10
40.429142
20
295.360704
11
40.024865
21
297.179554
0
LINE
8
hole
62
5
39
2
10
40.024865
20
297.179554
11
39.867786
21
297.954124
0
LINE
8
hole
62
5
39
2
10
39.867786
20
297.954124
11
39.536133
21
299.787674
0
LINE
8
hole
62
5
39
2
10
39.536133
20
299.787674
11
39.410154
21
300.567873
0
LINE
8
hole
62
5
39
2
10
39.410154
20
300.567873
11
39.151663
21
302.413084
0
LINE
8
hole
62
5
39
2
10
39.151663
20
302.413084
11
39.057010
21
303.197719
0
LINE
8
hole
62
5
39
2
10
39.057010
20
303.197719
11
38.872082
21
305.051751
0
LINE
8
hole
62
5
39
2
10
38.872082
20
305.051751
11
38.808891
21
305.839527
0
LINE
8
hole
62
5
39
2
10
38.808891
20
305.839527
11
38.697819
21
307.699450
0
LINE
8
hole
62
5
39
2
10
38.697819
20
307.699450
11
38.666209
21
308.489152
0
LINE
8
hole
62
5
39
2
10
38.666209
20
308.489152
11
38.629173
21
310.352020
0
LINE
8
hole
62
5
39
2
10
38.629173
20
310.352020
11
38.629169
21
311.142330
0
LINE
8
hole
62
5
39
2
10
38.629169
20
311.142330
11
38.666219
21
313.005257
0
LINE
8
hole
62
5
39
2
10
38.666219
20
313.005257
11
38.697848
21
313.794948
0
LINE
8
hole
62
5
39
2
10
38.697848
20
313.794948
11
38.808932
21
315.654862
0
LINE
8
hole
62
5
39
2
10
38.808932
20
315.654862
11
38.872121
21
316.442643
0
LINE
8
hole
62
5
39
2
10
38.872121
20
316.442643
11
39.057064
21
318.296675
0
LINE
8
hole
62
5
39
2
10
39.057064
20
318.296675
11
39.151728
21
319.081311
0
LINE
8
hole
62
5
39
2
10
39.151728
20
319.081311
11
39.410229
21
320.926527
0
LINE
8
hole
62
5
39
2
10
39.410229
20
320.926527
11
39.536222
21
321.706745
0
LINE
8
hole
62
5
39
2
10
39.536222
20
321.706745
11
39.867880
21
323.540225
0
LINE
8
hole
62
5
39
2
10
39.867880
20
323.540225
11
40.024977
21
324.314780
0
LINE
8
hole
62
5
39
2
10
40.024977
20
324.314780
11
40.429277
21
326.133674
0
LINE
8
hole
62
5
39
2
10
40.429277
20
326.133674
11
40.617227
21
326.901308
0
LINE
8
hole
62
5
39
2
10
40.617227
20
326.901308
11
41.093506
21
328.702637
0
LINE
8
hole
62
5
39
2
10
41.093506
20
328.702637
11
41.312032
21
329.462152
0
LINE
8
hole
62
5
39
2
10
41.312032
20
329.462152
11
41.859549
21
331.243123
0
LINE
8
hole
62
5
39
2
10
41.859549
20
331.243123
11
42.108286
21
331.993286
0
LINE
8
hole
62
5
39
2
10
42.108286
20
331.993286
11
42.726177
21
333.751085
0
LINE
8
hole
62
5
39
2
10
42.726177
20
333.751085
11
43.004729
21
334.490696
0
LINE
8
hole
62
5
39
2
10
43.004729
20
334.490696
11
43.692041
21
336.222594
0
LINE
8
hole
62
5
39
2
10
43.692041
20
336.222594
11
43.999945
21
336.950454
0
LINE
8
hole
62
5
39
2
10
43.999945
20
336.950454
11
44.755532
21
338.653596
0
LINE
8
hole
62
5
39
2
10
44.755532
20
338.653596
11
45.092329
21
339.368565
0
LINE
8
hole
62
5
39
2
10
45.092329
20
339.368565
11
45.915038
21
341.040324
0
LINE
8
hole
62
5
39
2
10
45.915038
20
341.040324
11
46.280167
21
341.741247
0
LINE
8
hole
62
5
39
2
10
46.280167
20
341.741247
11
47.168685
21
343.378984
0
LINE
8
hole
62
5
39
2
10
47.168685
20
343.378984
11
47.561570
21
344.064736
0
LINE
8
hole
62
5
39
2
10
47.561570
20
344.064736
11
48.514502
21
345.665852
0
LINE
8
hole
62
5
39
2
10
48.514502
20
345.665852
11
48.934492
21
346.335331
0
LINE
8
hole
62
5
39
2
10
48.934492
20
346.335331
11
49.950350
21
347.897335
0
LINE
8
hole
62
5
39
2
10
49.950350
20
347.897335
11
50.396805
21
348.549478
0
LINE
8
hole
62
5
39
2
10
50.396805
20
348.549478
11
51.473925
21
350.069817
0
LINE
8
hole
62
5
39
2
10
51.473925
20
350.069817
11
51.946121
21
350.703579
0
LINE
8
hole
62
5
39
2
10
51.946121
20
350.703579
11
53.082838
21
352.179896
0
LINE
8
hole
62
5
39
2
10
53.082838
20
352.179896
11
53.579989
21
352.794253
0
LINE
8
hole
62
5
39
2
10
53.579989
20
352.794253
11
54.774500
21
354.224211
0
LINE
8
hole
62
5
39
2
10
54.774500
20
354.224211
11
55.295855
21
354.818188
0
LINE
8
hole
62
5
39
2
10
55.295855
20
354.818188
11
56.546314
21
356.199572
0
LINE
8
hole
62
5
39
2
10
56.546314
20
356.199572
11
57.090990
21
356.772208
0
LINE
8
hole
62
5
39
2
10
57.090990
20
356.772208
11
58.395334
21
358.102737
0
LINE
8
hole
62
5
39
2
10
58.395334
20
358.102737
11
58.962519
21
358.653130
0
LINE
8
hole
62
5
39
2
10
58.962519
20
358.653130
11
60.318729
21
359.930750
0
LINE
8
hole
62
5
39
2
10
60.318729
20
359.930750
11
60.907450
21
360.458003
0
LINE
8
hole
62
5
39
2
10
60.907450
20
360.458003
11
62.313385
21
361.680704
0
LINE
8
hole
62
5
39
2
10
62.313385
20
361.680704
11
62.922754
21
362.183986
0
LINE
8
hole
62
5
39
2
10
62.922754
20
362.183986
11
64.376186
21
363.349820
0
LINE
8
hole
62
5
39
2
10
64.376186
20
363.349820
11
65.005180
21
363.828318
0
LINE
8
hole
62
5
39
2
10
65.005180
20
363.828318
11
66.503858
21
364.935484
0
LINE
8
hole
62
5
39
2
10
66.503858
20
364.935484
11
67.151522
21
365.388430
0
LINE
8
hole
62
5
39
2
10
67.151522
20
365.388430
11
68.692982
21
366.435097
0
LINE
8
hole
62
5
39
2
10
68.692982
20
366.435097
11
69.358219
21
366.861769
0
LINE
8
hole
62
5
39
2
10
69.358219
20
366.861769
11
70.940073
21
367.846334
0
LINE
8
hole
62
5
39
2
10
70.940073
20
367.846334
11
71.621872
21
368.246046
0
LINE
8
hole
62
5
39
2
10
71.621872
20
368.246046
11
73.241626
21
369.166942
0
LINE
8
hole
62
5
39
2
10
73.241626
20
369.166942
11
73.938851
21
369.539061
0
LINE
8
hole
62
5
39
2
10
73.938851
20
369.539061
11
75.593984
21
370.394858
0
LINE
8
hole
62
5
39
2
10
75.593984
20
370.394858
11
76.305564
21
370.738775
0
LINE
8
hole
62
5
39
2
10
76.305564
20
370.738775
11
77.993353
21
371.528072
0
LINE
8
hole
62
5
39
2
10
77.993353
20
371.528072
11
78.718096
21
371.843250
0
LINE
8
hole
62
5
39
2
10
78.718096
20
371.843250
11
80.435934
21
372.564822
0
LINE
8
hole
62
5
39
2
10
80.435934
20
372.564822
11
81.172730
21
372.850747
0
LINE
8
hole
62
5
39
2
10
81.172730
20
372.850747
11
82.917899
21
373.503451
0
LINE
8
hole
62
5
39
2
10
82.917899
20
373.503451
11
83.665522
21
373.759676
0
LINE
8
hole
62
5
39
2
10
83.665522
20
373.759676
11
85.435263
21
374.342483
0
LINE
8
hole
62
5
39
2
10
85.435263
20
374.342483
11
86.192568
21
374.568581
0
LINE
8
hole
62
5
39
2
10
86.192568
20
374.568581
11
87.984127
21
375.080579
0
LINE
8
hole
62
5
39
2
10
87.984127
20
375.080579
11
88.749841
21
375.276207
0
LINE
8
hole
62
5
39
2
10
88.749841
20
375.276207
11
90.560287
21
375.716570
0
LINE
8
hole
62
5
39
2
10
90.560287
20
375.716570
11
91.333236
21
375.881398
0
LINE
8
hole
62
5
39
2
10
91.333236
20
375.881398
11
93.159758
21
376.249430
0
LINE
8
hole
62
5
39
2
10
93.159758
20
376.249430
11
93.938667
21
376.383206
0
LINE
8
hole
62
5
39
2
10
93.938667
20
376.383206
11
95.778380
21
376.678331
0
LINE
8
hole
62
5
39
2
10
95.778380
20
376.678331
11
96.562035
21
376.780828
0
LINE
8
hole
62
5
39
2
10
96.562035
20
376.780828
11
98.412086
21
377.002588
0
LINE
8
hole
62
5
39
2
10
98.412086
20
377.002588
11
99.199205
21
377.073653
0
LINE
8
hole
62
5
39
2
10
99.199205
20
377.073653
11
101.056542
21
377.221676
0
LINE
8
hole
62
5
39
2
10
101.056542
20
377.221676
11
101.845883
21
377.261185
0
LINE
8
hole
62
5
39
2
10
101.845883
20
377.261185
11
103.707639
21
377.335256
0
LINE
8
hole
62
5
39
2
10
103.707639
20
377.335256
11
104.497810
21
377.343160
0
LINE
8
hole
62
5
39
2
10
104.497810
20
377.343160
11
106.360847
21
377.343159
0
LINE
8
hole
62
5
39
2
10
106.360847
20
377.343159
11
107.150745
21
377.319456
0
LINE
8
hole
62
5
39
2
10
107.150745
20
377.319456
11
109.012419
21
377.245386
0
LINE
8
hole
62
5
39
2
10
109.012419
20
377.245386
11
109.800793
21
377.190077
0
LINE
8
hole
62
5
39
2
10
109.800793
20
377.190077
11
111.658137
21
377.042049
0
LINE
8
hole
62
5
39
2
10
111.658137
20
377.042049
11
112.443686
21
376.955254
0
LINE
8
hole
62
5
39
2
10
112.443686
20
376.955254
11
114.293676
21
376.733501
0
LINE
8
hole
62
5
39
2
10
114.293676
20
376.733501
11
115.075130
21
376.615349
0
LINE
8
hole
62
5
39
2
10
115.075130
20
376.615349
11
116.914838
21
376.320228
0
LINE
8
hole
62
5
39
2
10
116.914838
20
376.320228
11
117.690910
21
376.170895
0
LINE
8
hole
62
5
39
2
10
117.690910
20
376.170895
11
119.517494
21
375.802846
0
LINE
8
hole
62
5
39
2
10
119.517494
20
375.802846
11
120.286973
21
375.622581
0
LINE
8
hole
62
5
39
2
10
120.286973
20
375.622581
11
122.097424
21
375.182221
0
LINE
8
hole
62
5
39
2
10
122.097424
20
375.182221
11
122.859102
21
374.971321
0
LINE
8
hole
62
5
39
2
10
122.859102
20
374.971321
11
124.650615
21
374.459333
0
LINE
8
hole
62
5
39
2
10
124.650615
20
374.459333
11
125.403216
21
374.218120
0
LINE
8
hole
62
5
39
2
10
125.403216
20
374.218120
11
127.172949
21
373.635313
0
LINE
8
hole
62
5
39
2
10
127.172949
20
373.635313
11
127.915322
21
373.364185
0
LINE
8
hole
62
5
39
2
10
127.915322
20
373.364185
11
129.660486
21
372.711485
0
LINE
8
hole
62
5
39
2
10
129.660486
20
372.711485
11
130.391387
21
372.410867
0
LINE
8
hole
62
5
39
2
10
130.391387
20
372.410867
11
132.109289
21
371.689269
0
LINE
8
hole
62
5
39
2
10
132.109289
20
371.689269
11
132.827571
21
371.359651
0
LINE
8
hole
62
5
39
2
10
132.827571
20
371.359651
11
134.515364
21
370.570356
0
LINE
8
hole
62
5
39
2
10
134.515364
20
370.570356
11
135.219933
21
370.212268
0
LINE
8
hole
62
5
39
2
10
135.219933
20
370.212268
11
136.875013
21
369.356496
0
LINE
8
hole
62
5
39
2
10
136.875013
20
369.356496
11
137.564644
21
368.970509
0
LINE
8
hole
62
5
39
2
10
137.564644
20
368.970509
11
139.184390
21
368.049612
0
LINE
8
hole
62
5
39
2
10
139.184390
20
368.049612
11
139.858023
21
367.636331
0
LINE
8
hole
62
5
39
2
10
139.858023
20
367.636331
11
141.439929
21
366.651739
0
LINE
8
hole
62
5
39
2
10
141.439929
20
366.651739
11
142.096540
21
366.211846
0
LINE
8
hole
62
5
39
2
10
142.096540
20
366.211846
11
143.638006
21
365.165171
0
LINE
8
hole
62
5
39
2
10
143.638006
20
365.165171
11
144.276447
21
364.699359
0
LINE
8
hole
62
5
39
2
10
144.276447
20
364.699359
11
145.775079
21
363.592229
0
LINE
8
hole
62
5
39
2
10
145.775079
20
363.592229
11
146.394411
21
363.101242
0
LINE
8
hole
62
5
39
2
10
146.394411
20
363.101242
11
147.847840
21
361.935409
0
LINE
8
hole
62
5
39
2
10
147.847840
20
361.935409
11
148.446996
21
361.420043
0
LINE
8
hole
62
5
39
2
10
148.446996
20
361.420043
11
149.852928
21
360.197346
0
LINE
8
hole
62
5
39
2
10
149.852928
20
360.197346
11
150.430978
21
359.658419
0
LINE
8
hole
62
5
39
2
10
150.430978
20
359.658419
11
151.787239
21
358.380751
0
LINE
8
hole
62
5
39
2
10
151.787239
20
358.380751
11
152.343266
21
357.819124
0
LINE
8
hole
62
5
39
2
10
152.343266
20
357.819124
11
153.647616
21
356.488591
0
LINE
8
hole
62
5
39
2
10
153.647616
20
356.488591
11
154.180766
21
355.905163
0
LINE
8
hole
62
5
39
2
10
154.180766
20
355.905163
11
155.431182
21
354.523821
0
LINE
8
hole
62
5
39
2
10
155.431182
20
354.523821
11
155.940527
21
353.919537
0
LINE
8
hole
62
5
39
2
10
155.940527
20
353.919537
11
157.135039
21
352.489588
0
LINE
8
hole
62
5
39
2
10
157.135039
20
352.489588
11
157.619817
21
351.865404
0
LINE
8
hole
62
5
39
2
10
157.619817
20
351.865404
11
158.756574
21
350.389038
0
LINE
8
hole
62
5
39
2
10
158.756574
20
350.389038
11
159.215973
21
349.745964
0
LINE
8
hole
62
5
39
2
10
159.215973
20
349.745964
11
160.293096
21
348.225617
0
LINE
8
hole
62
5
39
2
10
160.293096
20
348.225617
11
160.726415
21
347.564670
0
LINE
8
hole
62
5
39
2
10
160.726415
20
347.564670
11
161.742245
21
346.002708
0
LINE
8
hole
62
5
39
2
10
161.742245
20
346.002708
11
162.148768
21
345.324956
0
LINE
8
hole
62
5
39
2
10
162.148768
20
345.324956
11
163.101698
21
343.723844
0
LINE
8
hole
62
5
39
2
10
163.101698
20
343.723844
11
163.480779
21
343.030371
0
LINE
8
hole
62
5
39
2
10
163.480779
20
343.030371
11
164.369297
21
341.392643
0
LINE
8
hole
62
5
39
2
10
164.369297
20
341.392643
11
164.720315
21
340.684570
0
LINE
8
hole
62
5
39
2
10
164.720315
20
340.684570
11
165.543052
21
339.012747
0
LINE
8
hole
62
5
39
2
10
165.543052
20
339.012747
11
165.865476
21
338.291181
0
LINE
8
hole
62
5
39
2
10
165.865476
20
338.291181
11
166.621070
21
336.588028
0
LINE
8
hole
62
5
39
2
10
166.621070
20
336.588028
11
166.914363
21
335.854141
0
LINE
8
hole
62
5
39
2
10
166.914363
20
335.854141
11
167.601649
21
334.122300
0
LINE
8
hole
62
5
39
2
10
167.601649
20
334.122300
11
167.865343
21
333.377269
0
LINE
8
hole
62
5
39
2
10
167.865343
20
333.377269
11
168.483232
21
331.619474
0
LINE
8
hole
62
5
39
2
10
168.483232
20
331.619474
11
168.716896
21
330.864498
0
LINE
8
hole
62
5
39
2
10
168.716896
20
330.864498
11
169.264433
21
329.083471
0
LINE
8
hole
62
5
39
2
10
169.264433
20
329.083471
11
169.467717
21
328.319737
0
LINE
8
hole
62
5
39
2
10
169.467717
20
328.319737
11
169.943996
21
326.518401
0
LINE
8
hole
62
5
39
2
10
169.943996
20
326.518401
11
170.116558
21
325.747146
0
LINE
8
hole
62
5
39
2
10
170.116558
20
325.747146
11
170.520849
21
323.928301
0
LINE
8
hole
62
5
39
2
10
170.520849
20
323.928301
11
170.662416
21
323.150761
0
LINE
8
hole
62
5
39
2
10
170.662416
20
323.150761
11
170.994071
21
321.317286
0
LINE
8
hole
62
5
39
2
10
170.994071
20
321.317286
11
171.104406
21
320.534717
0
LINE
8
hole
62
5
39
2
10
171.104406
20
320.534717
11
171.362909
21
318.689510
0
LINE
8
hole
62
5
39
2
10
171.362909
20
318.689510
11
171.441861
21
317.903134
0
LINE
8
hole
62
5
39
2
10
171.441861
20
317.903134
11
171.626813
21
316.049032
0
LINE
8
hole
62
5
39
2
10
171.626813
20
316.049032
11
171.674227
21
315.260144
0
LINE
8
hole
62
5
39
2
10
171.674227
20
315.260144
11
171.785304
21
313.400222
0
LINE
8
hole
62
5
39
2
10
171.785304
20
313.400222
11
171.801128
21
312.610035
0
LINE
8
hole
62
5
39
2
10
171.801128
20
312.610035
11
171.838180
21
310.747180
0
LINE
8
hole
62
5
39
2
10
171.838180
20
310.747180
11
171.801146
21
308.884319
0
LINE
8
hole
62
5
39
2
10
171.801146
20
308.884319
11
171.785339
21
308.094177
0
LINE
8
hole
62
5
39
2
10
171.785339
20
308.094177
11
171.674263
21
306.234204
0
LINE
8
hole
62
5
39
2
10
171.674263
20
306.234204
11
171.626843
21
305.445319
0
LINE
8
hole
62
5
39
2
10
171.626843
20
305.445319
11
171.441914
21
303.591283
0
LINE
8
hole
62
5
39
2
10
171.441914
20
303.591283
11
171.362988
21
302.804891
0
LINE
8
hole
62
5
39
2
10
171.362988
20
302.804891
11
171.104496
21
300.959674
0
LINE
8
hole
62
5
39
2
10
171.104496
20
300.959674
11
170.994155
21
300.177103
0
LINE
8
hole
62
5
39
2
10
170.994155
20
300.177103
11
170.662515
21
298.343626
0
LINE
8
hole
62
5
39
2
10
170.662515
20
298.343626
11
170.520958
21
297.566078
0
LINE
8
hole
62
5
39
2
10
170.520958
20
297.566078
11
170.116682
21
295.747236
0
LINE
8
hole
62
5
39
2
10
170.116682
20
295.747236
11
169.944127
21
294.976001
0
LINE
8
hole
62
5
39
2
10
169.944127
20
294.976001
11
169.467842
21
293.174605
0
LINE
8
hole
62
5
39
2
10
169.467842
20
293.174605
11
169.264571
21
292.410855
0
LINE
8
hole
62
5
39
2
10
169.264571
20
292.410855
11
168.717067
21
290.629877
0
LINE
8
hole
62
5
39
2
10
168.717067
20
290.629877
11
168.483398
21
289.874899
0
LINE
8
hole
62
5
39
2
10
168.483398
20
289.874899
11
167.865519
21
288.117098
0
LINE
8
hole
62
5
39
2
10
167.865519
20
288.117098
11
167.601835
21
287.372055
0
LINE
8
hole
62
5
39
2
10
167.601835
20
287.372055
11
166.914558
21
285.640209
0
LINE
8
hole
62
5
39
2
10
166.914558
20
285.640209
11
166.621272
21
284.906338
0
LINE
8
hole
62
5
39
2
10
166.621272
20
284.906338
11
165.865673
21
283.203137
0
LINE
8
hole
62
5
39
2
10
165.865673
20
283.203137
11
165.543262
21
282.481558
0
LINE
8
hole
62
5
39
2
10
165.543262
20
282.481558
11
164.720563
21
280.809787
0
LINE
8
hole
62
5
39
2
10
164.720563
20
280.809787
11
164.369537
21
280.101691
0
LINE
8
hole
62
5
39
2
10
164.369537
20
280.101691
11
163.481026
21
278.463950
0
LINE
8
hole
62
5
39
2
10
163.481026
20
278.463950
11
163.101953
21
277.770483
0
LINE
8
hole
62
5
39
2
10
163.101953
20
277.770483
11
162.149033
21
276.169367
0
LINE
8
hole
62
5
39
2
10
162.149033
20
276.169367
11
161.742519
21
275.491625
0
LINE
8
hole
62
5
39
2
10
161.742519
20
275.491625
11
160.726705
21
273.929661
0
LINE
8
hole
62
5
39
2
10
160.726705
20
273.929661
11
160.293400
21
273.268694
0
LINE
8
hole
62
5
39
2
10
160.293400
20
273.268694
11
159.216249
21
271.748291
0
LINE
8
hole
62
5
39
2
10
159.216249
20
271.748291
11
158.756846
21
271.105219
0
LINE
8
hole
62
5
39
2
10
158.756846
20
271.105219
11
157.620137
21
269.628892
0
LINE
8
hole
62
5
39
2
10
157.620137
20
269.628892
11
157.135369
21
269.004686
0
LINE
8
hole
62
5
39
2
10
157.135369
20
269.004686
11
155.940865
21
267.574722
0
LINE
8
hole
62
5
39
2
10
155.940865
20
267.574722
11
155.431517
21
266.970442
0
LINE
8
hole
62
5
39
2
10
155.431517
20
266.970442
11
154.181111
21
265.589095
0
LINE
8
hole
62
5
39
2
10
154.181111
20
265.589095
11
153.647985
21
265.005648
0
LINE
8
hole
62
5
39
2
10
153.647985
20
265.005648
11
152.343606
21
263.675066
0
LINE
8
hole
62
5
39
2
10
152.343606
20
263.675066
11
151.787578
21
263.113446
0
LINE
8
hole
62
5
39
2
10
151.787578
20
263.113446
11
150.431372
21
261.835810
0
LINE
8
hole
62
5
39
2
10
150.431372
20
261.835810
11
149.853315
21
261.296897
0
LINE
8
hole
62
5
39
2
10
149.853315
20
261.296897
11
148.447389
21
260.074188
0
LINE
8
hole
62
5
39
2
10
148.447389
20
260.074188
11
147.848224
21
259.558800
0
LINE
8
hole
62
5
39
2
10
147.848224
20
259.558800
11
146.394803
21
258.392958
0
LINE
8
hole
62
5
39
2
10
146.394803
20
258.392958
11
145.775495
21
257.901953
0
LINE
8
hole
62
5
39
2
10
145.775495
20
257.901953
11
144.276871
21
256.794809
0
LINE
8
hole
62
5
39
2
10
144.276871
20
256.794809
11
143.638432
21
256.329004
0
LINE
8
hole
62
5
39
2
10
143.638432
20
256.329004
11
142.096922
21
255.282288
0
LINE
8
hole
62
5
39
2
10
142.096922
20
255.282288
11
141.440331
21
254.842363
0
LINE
8
hole
62
5
39
2
10
141.440331
20
254.842363
11
139.858478
21
253.857788
0
LINE
8
hole
62
5
39
2
10
139.858478
20
253.857788
11
139.184837
21
253.444516
0
LINE
8
hole
62
5
39
2
10
139.184837
20
253.444516
11
137.565093
21
252.523604
0
LINE
8
hole
62
5
39
2
10
137.565093
20
252.523604
11
136.875457
21
252.137627
0
LINE
8
hole
62
5
39
2
10
136.875457
20
252.137627
11
135.220386
21
251.281844
0
LINE
8
hole
62
5
39
2
10
135.220386
20
251.281844
11
134.515853
21
250.923779
0
LINE
8
hole
62
5
39
2
10
134.515853
20
250.923779
11
132.828021
21
250.134453
0
LINE
8
hole
62
5
39
2
10
132.828021
20
250.134453
11
132.109695
21
249.804789
0
LINE
8
hole
62
5
39
2
10
132.109695
20
249.804789
11
130.391856
21
249.083204
0
LINE
8
hole
62
5
39
2
10
130.391856
20
249.083204
11
129.660942
21
248.782593
0
LINE
8
hole
62
5
39
2
10
129.660942
20
248.782593
11
127.915776
21
248.129875
0
LINE
8
hole
62
5
39
2
10
127.915776
20
248.129875
11
127.173427
21
247.858754
0
LINE
8
hole
62
5
39
2
10
127.173427
20
247.858754
11
125.403698
21
247.275937
0
LINE
8
hole
62
5
39
2
10
125.403698
20
247.275937
11
124.651095
21
247.034736
0
LINE
8
hole
62
5
39
2
10
124.651095
20
247.034736
11
122.859597
21
246.522738
0
LINE
8
hole
62
5
39
2
10
122.859597
20
246.522738
11
122.097928
21
246.311805
0
LINE
8
hole
62
5
39
2
10
122.097928
20
246.311805
11
120.287424
21
245.871418
0
LINE
8
hole
62
5
39
2
10
120.287424
20
245.871418
11
119.517944
21
245.691160
0
LINE
8
hole
62
5
39
2
10
119.517944
20
245.691160
11
117.691422
21
245.323115
0
LINE
8
hole
62
5
39
2
10
117.691422
20
245.323115
11
116.915323
21
245.173761
0
LINE
8
hole
62
5
39
2
10
116.915323
20
245.173761
11
115.075615
21
244.878622
0
LINE
8
hole
62
5
39
2
10
115.075615
20
244.878622
11
114.294172
21
244.760450
0
LINE
8
hole
62
5
39
2
10
114.294172
20
244.760450
11
112.444187
21
244.538688
0
LINE
8
hole
62
5
39
2
10
112.444187
20
244.538688
11
111.658657
21
244.451887
0
LINE
8
hole
62
5
39
2
10
111.658657
20
244.451887
11
109.801263
21
244.303843
0
LINE
8
hole
62
5
39
2
10
109.801263
20
244.303843
11
109.012863
21
244.248524
0
LINE
8
hole
62
5
39
2
10
109.012863
20
244.248524
11
107.151099
21
244.174440
0
LINE
8
hole
62
5
39
2
10
107.151099
20
244.174440
11
106.361059
21
244.150717
0
LINE
8
hole
62
5
39
2
10
106.361059
20
244.150717
11
104.497659
21
244.150712
0
LINE
8
hole
62
5
39
2
10
104.497659
20
244.150712
11
103.707304
21
244.158614
0
LINE
8
hole
62
5
39
2
10
103.707304
20
244.158614
11
101.845371
21
244.232702
0
LINE
8
hole
62
5
39
2
10
101.845371
20
244.232702
11
101.056025
21
244.272236
0
LINE
8
hole
62
5
39
2
10
101.056025
20
244.272236
11
99.198681
21
244.420274
0
LINE
8
hole
62
5
39
2
10
99.198681
20
244.420274
11
98.411572
21
244.491340
0
LINE
8
hole
62
5
39
2
10
98.411572
20
244.491340
11
96.561578
21
244.713107
0
LINE
8
hole
62
5
39
2
10
96.561578
20
244.713107
11
95.777928
21
244.815617
0
LINE
8
hole
62
5
39
2
10
95.777928
20
244.815617
11
93.938158
21
245.110766
0
LINE
8
hole
62
5
39
2
10
93.938158
20
245.110766
11
93.159258
21
245.244536
0
LINE
8
hole
62
5
39
2
10
93.159258
20
245.244536
11
91.332740
21
245.612583
0
LINE
8
hole
62
5
39
2
10
91.332740
20
245.612583
11
90.559791
21
245.777432
0
LINE
8
hole
62
5
39
2
10
90.559791
20
245.777432
11
88.749344
21
246.217801
0
LINE
8
hole
62
5
39
2
10
88.749344
20
246.217801
11
87.983629
21
246.413420
0
LINE
8
hole
62
5
39
2
10
87.983629
20
246.413420
11
86.192120
21
246.925422
0
LINE
8
hole
62
5
39
2
10
86.192120
20
246.925422
11
85.434828
21
247.151538
0
LINE
8
hole
62
5
39
2
10
85.434828
20
247.151538
11
83.665026
21
247.734378
0
LINE
8
hole
62
5
39
2
10
83.665026
20
247.734378
11
82.917406
21
247.990594
0
LINE
8
hole
62
5
39
2
10
82.917406
20
247.990594
11
81.172246
21
248.643311
0
LINE
8
hole
62
5
39
2
10
81.172246
20
248.643311
11
80.435464
21
248.929249
0
LINE
8
hole
62
5
39
2
10
80.435464
20
248.929249
11
78.717628
21
249.650832
0
LINE
8
hole
62
5
39
2
10
78.717628
20
249.650832
11
77.992874
21
249.966017
0
LINE
8
hole
62
5
39
2
10
77.992874
20
249.966017
11
76.305086
21
250.755323
0
LINE
8
hole
62
5
39
2
10
76.305086
20
250.755323
11
75.593522
21
251.099254
0
LINE
8
hole
62
5
39
2
10
75.593522
20
251.099254
11
73.938441
21
251.955039
0
LINE
8
hole
62
5
39
2
10
73.938441
20
251.955039
11
73.241214
21
252.327151
0
LINE
8
hole
62
5
39
2
10
73.241214
20
252.327151
11
71.621417
21
253.248091
0
LINE
8
hole
62
5
39
2
10
71.621417
20
253.248091
11
70.939633
21
253.647811
0
LINE
8
hole
62
5
39
2
10
70.939633
20
253.647811
11
69.357787
21
254.632379
0
LINE
8
hole
62
5
39
2
10
69.357787
20
254.632379
11
68.692541
21
255.059060
0
LINE
8
hole
62
5
39
2
10
68.692541
20
255.059060
11
67.151084
21
256.105746
0
LINE
8
hole
62
5
39
2
10
67.151084
20
256.105746
11
66.503441
21
256.558701
0
LINE
8
hole
62
5
39
2
10
66.503441
20
256.558701
11
65.004810
21
257.665844
0
LINE
8
hole
62
5
39
2
10
65.004810
20
257.665844
11
64.375813
21
258.144338
0
LINE
8
hole
62
5
39
2
10
64.375813
20
258.144338
11
62.922338
21
259.310226
0
LINE
8
hole
62
5
39
2
10
62.922338
20
259.310226
11
62.312989
21
259.813508
0
LINE
8
hole
62
5
39
2
10
62.312989
20
259.813508
11
60.907063
21
261.036214
0
LINE
8
boundary
62
5
39
2
10
36.291620
20
237.417633
11
37.975417
21
235.878210
0
LINE
8
boundary
62
5
39
2
10
37.975417
20
235.878210
11
38.707241
21
235.219267
0
LINE
8
boundary
62
5
39
2
10
38.707241
20
235.219267
11
40.440305
21
233.735424
0
LINE
8
boundary
62
5
39
2
10
40.440305
20
233.735424
11
41.192977
21
233.100396
0
LINE
8
boundary
62
5
39
2
10
41.192977
20
233.100396
11
42.973416
21
231.673749
0
LINE
8
boundary
62
5
39
2
10
42.973416
20
231.673749
11
43.746151
21
231.063301
0
LINE
8
boundary
62
5
39
2
10
43.746151
20
231.063301
11
45.572133
21
229.695328
0
LINE
8
boundary
62
5
39
2
10
45.572133
20
229.695328
11
46.364145
21
229.110078
0
LINE
8
boundary
62
5
39
2
10
46.364145
20
229.110078
11
48.233629
21
227.802304
0
LINE
8
boundary
62
5
39
2
10
48.233629
20
227.802304
11
49.044127
21
227.242880
0
LINE
8
boundary
62
5
39
2
10
49.044127
20
227.242880
11
50.955139
21
225.996683
0
LINE
8
boundary
62
5
39
2
10
50.955139
20
225.996683
11
51.783190
21
225.463666
0
LINE
8
boundary
62
5
39
2
10
51.783190
20
225.463666
11
53.733812
21
224.280294
0
LINE
8
boundary
62
5
39
2
10
53.733812
20
224.280294
11
54.578600
21
223.774229
0
LINE
8
boundary
62
5
39
2
10
54.578600
20
223.774229
11
56.566759
21
222.654950
0
LINE
8
boundary
62
5
39
2
10
56.566759
20
222.654950
11
57.427421
21
222.176355
0
LINE
8
boundary
62
5
39
2
10
57.427421
20
222.176355
11
59.450843
21
221.122443
0
LINE
8
boundary
62
5
39
2
10
59.450843
20
221.122443
11
60.326469
21
220.671826
0
LINE
8
boundary
62
5
39
2
10
60.326469
20
220.671826
11
62.383184
21
219.684301
0
LINE
8
boundary
62
5
39
2
10
62.383184
20
219.684301
11
63.272917
21
219.262138
0
LINE
8
boundary
62
5
39
2
10
63.272917
20
219.262138
11
65.360741
21
218.342057
0
LINE
8
boundary
62
5
39
2
10
65.360741
20
218.342057
11
66.263578
21
217.948769
0
LINE
8
boundary
62
5
39
2
10
66.263578
20
217.948769
11
68.380130
21
217.097184
0
LINE
8
boundary
62
5
39
2
10
68.380130
20
217.097184
11
69.295158
21
216.733183
0
LINE
8
boundary
62
5
39
2
10
69.295158
20
216.733183
11
71.438423
21
215.950897
0
LINE
8
boundary
62
5
39
2
10
71.438423
20
215.950897
11
72.364712
21
215.616559
0
LINE
8
boundary
62
5
39
2
10
72.364712
20
215.616559
11
74.532185
21
214.904489
0
LINE
8
boundary
62
5
39
2
10
74.532185
20
214.904489
11
75.468756
21
214.600171
0
LINE
8
boundary
62
5
39
2
10
75.468756
20
214.600171
11
77.658318
21
213.959010
0
LINE
8
boundary
62
5
39
2
10
77.658318
20
213.959010
11
78.604228
21
213.685031
0
LINE
8
boundary
62
5
39
2
10
78.604228
20
213.685031
11
80.813505
21
213.115478
0
LINE
8
boundary
62
5
39
2
10
80.813505
20
213.115478
11
81.767764
21
212.872112
0
LINE
8
boundary
62
5
39
2
10
81.767764
20
212.872112
11
83.994466
21
212.374760
0
LINE
8
boundary
62
5
39
2
10
83.994466
20
212.374760
11
84.956048
21
212.162258
0
LINE
8
boundary
62
5
39
2
10
84.956048
20
212.162258
11
87.197637
21
211.737677
0
LINE
8
boundary
62
5
39
2
10
87.197637
20
211.737677
11
88.165552
21
211.556264
0
LINE
8
boundary
62
5
39
2
10
88.165552
20
211.556264
11
90.419838
21
211.204848
0
LINE
8
boundary
62
5
39
2
10
90.419838
20
211.204848
11
91.393094
21
211.054707
0
LINE
8
boundary
62
5
39
2
10
91.393094
20
211.054707
11
93.657679
21
210.776860
0
LINE
8
boundary
62
5
39
2
10
93.657679
20
210.776860
11
94.635277
21
210.658149
0
LINE
8
boundary
62
5
39
2
10
94.635277
20
210.658149
11
96.907637
21
210.454153
0
LINE
8
boundary
62
5
39
2
10
96.907637
20
210.454153
11
97.888584
21
210.367016
0
LINE
8
boundary
62
5
39
2
10
97.888584
20
210.367016
11
100.166383
21
210.237105
0
LINE
8
boundary
62
5
39
2
10
100.166383
20
210.237105
11
101.149596
21
210.181597
0
LINE
8
boundary
62
5
39
2
10
101.149596
20
210.181597
11
103.430538
21
210.125893
0
LINE
8
boundary
62
5
39
2
10
103.430538
20
210.125893
11
104.415099
21
210.102100
0
LINE
8
boundary
62
5
39
2
10
104.415099
20
210.102100
11
105.399899
21
210.110034
0
LINE
8
boundary
62
5
39
2
10
105.399899
20
210.110034
11
107.681446
21
210.128604
0
LINE
8
boundary
62
5
39
2
10
107.681446
20
210.128604
11
108.665448
21
210.168256
0
LINE
8
boundary
62
5
39
2
10
108.665448
20
210.168256
11
110.945127
21
210.261081
0
LINE
8
boundary
62
5
39
2
10
110.945127
20
210.261081
11
111.927327
21
210.332411
0
LINE
8
boundary
62
5
39
2
10
111.927327
20
210.332411
11
114.202719
21
210.499387
0
LINE
8
boundary
62
5
39
2
10
114.202719
20
210.499387
11
115.182087
21
210.602335
0
LINE
8
boundary
62
5
39
2
10
115.182087
20
210.602335
11
117.450773
21
210.843277
0
LINE
8
boundary
62
5
39
2
10
117.450773
20
210.843277
11
118.426350
21
210.977717
0
LINE
8
boundary
62
5
39
2
10
118.426350
20
210.977717
11
120.686114
21
211.292396
0
LINE
8
boundary
62
5
39
2
10
120.686114
20
211.292396
11
121.656822
21
211.458195
0
LINE
8
boundary
62
5
39
2
10
121.656822
20
211.458195
11
123.905024
21
211.846232
0
LINE
8
boundary
62
5
39
2
10
123.905024
20
211.846232
11
124.869913
21
212.043216
0
LINE
8
boundary
62
5
39
2
10
124.869913
20
212.043216
11
127.104417
21
212.504264
0
LINE
8
boundary
62
5
39
2
10
127.104417
20
212.504264
11
128.062433
21
212.732227
0
LINE
8
boundary
62
5
39
2
10
128.062433
20
212.732227
11
130.280620
21
213.265723
0
LINE
8
boundary
62
5
39
2
10
130.280620
20
213.265723
11
131.230844
21
213.524430
0
LINE
8
boundary
62
5
39
2
10
131.230844
20
213.524430
11
133.430611
21
214.129887
0
LINE
8
boundary
62
5
39
2
10
133.430611
20
214.129887
11
134.371961
21
214.419077
0
LINE
8
boundary
62
5
39
2
10
134.371961
20
214.419077
11
136.550803
21
215.095793
0
LINE
8
boundary
62
5
39
2
10
136.550803
20
215.095793
11
137.482375
21
215.415151
0
LINE
8
boundary
62
5
39
2
10
137.482375
20
215.415151
11
139.638035
21
216.162424
0
LINE
8
boundary
62
5
39
2
10
139.638035
20
216.162424
11
140.558804
21
216.511638
0
LINE
8
boundary
62
5
39
2
10
140.558804
20
216.511638
11
142.688994
21
217.328685
0
LINE
8
boundary
62
5
39
2
10
142.688994
20
217.328685
11
143.598036
21
217.707379
0
LINE
8
boundary
62
5
39
2
10
143.598036
20
217.707379
11
145.700511
21
218.593328
0
LINE
8
boundary
62
5
39
2
10
145.700511
20
218.593328
11
146.596886
21
219.001105
0
LINE
8
boundary
62
5
39
2
10
146.596886
20
219.001105
11
148.669404
21
219.955030
0
LINE
8
boundary
62
5
39
2
10
148.669404
20
219.955030
11
149.552224
21
220.391471
0
LINE
8
boundary
62
5
39
2
10
149.552224
20
220.391471
11
151.592592
21
221.412339
0
LINE
8
boundary
62
5
39
2
10
151.592592
20
221.412339
11
152.460848
21
221.876995
0
LINE
8
boundary
62
5
39
2
10
152.460848
20
221.876995
11
154.466907
21
222.963738
0
LINE
8
boundary
62
5
39
2
10
154.466907
20
222.963738
11
155.319738
21
223.456131
0
LINE
8
boundary
62
5
39
2
10
155.319738
20
223.456131
11
157.289362
21
224.607597
0
LINE
8
boundary
62
5
39
2
10
157.289362
20
224.607597
11
158.125889
21
225.127217
0
LINE
8
boundary
62
5
39
2
10
158.125889
20
225.127217
11
160.056991
21
226.342184
0
LINE
8
boundary
62
5
39
2
10
160.056991
20
226.342184
11
160.876364
21
226.888476
0
LINE
8
boundary
62
5
39
2
10
160.876364
20
226.888476
11
162.766898
21
228.165650
0
LINE
8
boundary
62
5
39
2
10
162.766898
20
228.165650
11
163.568249
21
228.738053
0
LINE
8
boundary
62
5
39
2
10
163.568249
20
228.738053
11
165.416145
21
230.076048
0
LINE
8
boundary
62
5
39
2
10
165.416145
20
230.076048
11
166.198619
21
230.673979
0
LINE
8
boundary
62
5
39
2
10
166.198619
20
230.673979
11
168.002044
21
232.071443
0
LINE
8
boundary
62
5
39
2
10
168.002044
20
232.071443
11
168.764853
21
232.694265
0
LINE
8
boundary
62
5
39
2
10
168.764853
20
232.694265
11
170.521831
21
234.149703
0
LINE
8
boundary
62
5
39
2
10
170.521831
20
234.149703
11
171.264206
21
234.796784
0
LINE
8
boundary
62
5
39
2
10
171.264206
20
234.796784
11
172.972876
21
236.308627
0
LINE
8
boundary
62
5
39
2
10
172.972876
20
236.308627
11
173.693995
21
236.979284
0
LINE
8
boundary
62
5
39
2
10
173.693995
20
236.979284
11
175.352601
21
238.545999
0
LINE
8
boundary
62
5
39
2
10
175.352601
20
238.545999
11
176.051747
21
239.239535
0
LINE
8
boundary
62
5
39
2
10
176.051747
20
239.239535
11
177.658442
21
240.859365
0
LINE
8
boundary
62
5
39
2
10
177.658442
20
240.859365
11
178.334863
21
241.575055
0
LINE
8
boundary
62
5
39
2
10
178.334863
20
241.575055
11
179.887927
21
243.246266
0
LINE
8
boundary
62
5
39
2
10
179.887927
20
243.246266
11
180.540969
21
243.983395
0
LINE
8
boundary
62
5
39
2
10
180.540969
20
243.983395
11
182.038853
21
245.704323
0
LINE
8
boundary
62
5
39
2
10
182.038853
20
245.704323
11
182.667795
21
246.462101
0
LINE
8
boundary
62
5
39
2
10
182.667795
20
246.462101
11
184.108874
21
248.230871
0
LINE
8
boundary
62
5
39
2
10
184.108874
20
248.230871
11
184.713100
21
249.008528
0
LINE
8
boundary
62
5
39
2
10
184.713100
20
249.008528
11
186.095837
21
250.823266
0
LINE
8
boundary
62
5
39
2
10
186.095837
20
250.823266
11
186.674661
21
251.619973
0
LINE
8
boundary
62
5
39
2
10
186.674661
20
251.619973
11
187.997610
21
253.478761
0
LINE
8
boundary
62
5
39
2
10
187.997610
20
253.478761
11
188.550478
21
254.293698
0
LINE
8
boundary
62
5
39
2
10
188.550478
20
254.293698
11
189.812250
21
256.194617
0
LINE
8
boundary
62
5
39
2
10
189.812250
20
256.194617
11
190.338603
21
257.026954
0
LINE
8
boundary
62
5
39
2
10
190.338603
20
257.026954
11
191.537801
21
258.967886
0
LINE
8
boundary
62
5
39
2
10
191.537801
20
258.967886
11
192.037030
21
259.816733
0
LINE
8
boundary
62
5
39
2
10
192.037030
20
259.816733
11
193.172376
21
261.795605
0
LINE
8
boundary
62
5
39
2
10
193.172376
20
261.795605
11
193.644009
21
262.660102
0
LINE
8
boundary
62
5
39
2
10
193.644009
20
262.660102
11
194.714375
21
264.674940
0
LINE
8
boundary
62
5
39
2
10
194.714375
20
264.674940
11
195.157914
21
265.554181
0
LINE
8
boundary
62
5
39
2
10
195.157914
20
265.554181
11
196.162140
21
267.602789
0
LINE
8
boundary
62
5
39
2
10
196.162140
20
267.602789
11
196.577148
21
268.495881
0
LINE
8
boundary
62
5
39
2
10
196.577148
20
268.495881
11
197.514183
21
270.576154
0
LINE
8
boundary
62
5
39
2
10
197.514183
20
270.576154
11
197.900168
21
271.482123
0
LINE
8
boundary
62
5
39
2
10
197.900168
20
271.482123
11
198.768947
21
273.591676
0
LINE
8
boundary
62
5
39
2
10
198.768947
20
273.591676
11
199.125557
21
274.509621
0
LINE
8
boundary
62
5
39
2
10
199.125557
20
274.509621
11
199.925247
21
276.646456
0
LINE
8
boundary
62
5
39
2
10
199.925247
20
276.646456
11
200.252096
21
277.575400
0
LINE
8
boundary
62
5
39
2
10
200.252096
20
277.575400
11
200.981794
21
279.737078
0
LINE
8
boundary
62
5
39
2
10
200.981794
20
279.737078
11
201.278585
21
280.676102
0
LINE
8
boundary
62
5
39
2
10
201.278585
20
280.676102
11
201.937515
21
282.860309
0
LINE
8
boundary
62
5
39
2
10
201.937515
20
282.860309
11
202.203855
21
283.808391
0
LINE
8
boundary
62
5
39
2
10
202.203855
20
283.808391
11
202.791359
21
286.012951
0
LINE
8
boundary
62
5
39
2
10
202.791359
20
286.012951
11
203.027022
21
286.969115
0
LINE
8
boundary
62
5
39
2
10
203.027022
20
286.969115
11
203.542471
21
289.191702
0
LINE
8
boundary
62
5
39
2
10
203.542471
20
289.191702
11
203.747207
21
290.154951
0
LINE
8
boundary
62
5
39
2
10
203.747207
20
290.154951
11
204.190012
21
292.393006
0
LINE
8
boundary
62
5
39
2
10
204.190012
20
292.393006
11
204.363620
21
293.362363
0
LINE
8
boundary
62
5
39
2
10
204.363620
20
293.362363
11
204.733351
21
295.613707
0
LINE
8
boundary
62
5
39
2
10
204.733351
20
295.613707
11
204.875670
21
296.588191
0
LINE
8
boundary
62
5
39
2
10
204.875670
20
296.588191
11
205.171939
21
298.850444
0
LINE
8
boundary
62
5
39
2
10
205.171939
20
298.850444
11
205.282749
21
299.828961
0
LINE
8
boundary
62
5
39
2
10
205.282749
20
299.828961
11
205.505214
21
302.099528
0
LINE
8
boundary
62
5
39
2
10
205.505214
20
302.099528
11
205.584442
21
303.081114
0
LINE
8
boundary
62
5
39
2
10
205.584442
20
303.081114
11
205.732885
21
305.357855
0
LINE
8
boundary
62
5
39
2
10
205.732885
20
305.357855
11
205.780457
21
306.341471
0
LINE
8
boundary
62
5
39
2
10
205.780457
20
306.341471
11
205.854711
21
308.621703
0
LINE
8
boundary
62
5
39
2
10
205.854711
20
308.621703
11
205.870575
21
309.606349
0
LINE
8
boundary
62
5
39
2
10
205.870575
20
309.606349
11
205.870566
21
311.887851
0
LINE
8
boundary
62
5
39
2
10
205.870566
20
311.887851
11
205.854731
21
312.872551
0
LINE
8
boundary
62
5
39
2
10
205.854731
20
312.872551
11
205.780468
21
315.152911
0
LINE
8
boundary
62
5
39
2
10
205.780468
20
315.152911
11
205.732877
21
316.136533
0
LINE
8
boundary
62
5
39
2
10
205.732877
20
316.136533
11
205.584434
21
318.413135
0
LINE
8
boundary
62
5
39
2
10
205.584434
20
318.413135
11
205.505183
21
319.394721
0
LINE
8
boundary
62
5
39
2
10
205.505183
20
319.394721
11
205.282696
21
321.665421
0
LINE
8
boundary
62
5
39
2
10
205.282696
20
321.665421
11
205.171867
21
322.643934
0
LINE
8
boundary
62
5
39
2
10
205.171867
20
322.643934
11
204.875610
21
324.906055
0
LINE
8
boundary
62
5
39
2
10
204.875610
20
324.906055
11
204.733316
21
325.880503
0
LINE
8
boundary
62
5
39
2
10
204.733316
20
325.880503
11
204.363558
21
328.131918
0
LINE
8
boundary
62
5
39
2
10
204.363558
20
328.131918
11
204.189964
21
329.101306
0
LINE
8
boundary
62
5
39
2
10
204.189964
20
329.101306
11
203.747138
21
331.339427
0
LINE
8
boundary
62
5
39
2
10
203.747138
20
331.339427
11
203.542381
21
332.302678
0
LINE
8
boundary
62
5
39
2
10
203.542381
20
332.302678
11
203.026955
21
334.525127
0
LINE
8
boundary
62
5
39
2
10
203.026955
20
334.525127
11
202.791270
21
335.481291
0
LINE
8
boundary
62
5
39
2
10
202.791270
20
335.481291
11
202.203739
21
337.685920
0
LINE
8
boundary
62
5
39
2
10
202.203739
20
337.685920
11
201.937384
21
338.633984
0
LINE
8
boundary
62
5
39
2
10
201.937384
20
338.633984
11
201.278422
21
340.818261
0
LINE
8
boundary
62
5
39
2
10
201.278422
20
340.818261
11
200.981659
21
341.757254
0
LINE
8
boundary
62
5
39
2
10
200.981659
20
341.757254
11
200.251977
21
343.918853
0
LINE
8
boundary
62
5
39
2
10
200.251977
20
343.918853
11
199.925126
21
344.847849
0
LINE
8
boundary
62
5
39
2
10
199.925126
20
344.847849
11
199.125453
21
346.984612
0
LINE
8
boundary
62
5
39
2
10
199.125453
20
346.984612
11
198.768827
21
347.902555
0
LINE
8
boundary
62
5
39
2
10
198.768827
20
347.902555
11
197.899990
21
350.012224
0
LINE
8
boundary
62
5
39
2
10
197.899990
20
350.012224
11
197.513985
21
350.918188
0
LINE
8
boundary
62
5
39
2
10
197.513985
20
350.918188
11
196.577000
21
352.998337
0
LINE
8
boundary
62
5
39
2
10
196.577000
20
352.998337
11
196.162010
21
353.891408
0
LINE
8
boundary
62
5
39
2
10
196.162010
20
353.891408
11
195.157752
21
355.940078
0
LINE
8
boundary
62
5
39
2
10
195.157752
20
355.940078
11
194.714206
21
356.819306
0
LINE
8
boundary
62
5
39
2
10
194.714206
20
356.819306
11
193.643821
21
358.834149
0
LINE
8
boundary
62
5
39
2
10
193.643821
20
358.834149
11
193.172188
21
359.698678
0
LINE
8
boundary
62
5
39
2
10
193.172188
20
359.698678
11
192.036795
21
361.677603
0
LINE
8
boundary
62
5
39
2
10
192.036795
20
361.677603
11
191.537546
21
362.526443
0
LINE
8
boundary
62
5
39
2
10
191.537546
20
362.526443
11
190.338382
21
364.467307
0
LINE
8
boundary
62
5
39
2
10
190.338382
20
364.467307
11
189.812041
21
365.299630
0
LINE
8
boundary
62
5
39
2
10
189.812041
20
365.299630
11
188.550298
21
367.200486
0
LINE
8
boundary
62
5
39
2
10
188.550298
20
367.200486
11
187.997418
21
368.015421
0
LINE
8
boundary
62
5
39
2
10
187.997418
20
368.015421
11
186.674428
21
369.874262
0
LINE
8
boundary
62
5
39
2
10
186.674428
20
369.874262
11
186.095595
21
370.670956
0
LINE
8
boundary
62
5
39
2
10
186.095595
20
370.670956
11
184.712842
21
372.485701
0
LINE
8
boundary
62
5
39
2
10
184.712842
20
372.485701
11
184.108633
21
373.263362
0
LINE
8
boundary
62
5
39
2
10
184.108633
20
373.263362
11
182.667540
21
375.032130
0
LINE
8
boundary
62
5
39
2
10
182.667540
20
375.032130
11
182.038594
21
375.789890
0
LINE
8
boundary
62
5
39
2
10
182.038594
20
375.789890
11
180.540695
21
377.510818
0
LINE
8
boundary
62
5
39
2
10
180.540695
20
377.510818
11
179.887667
21
378.247924
0
LINE
8
boundary
62
5
39
2
10
179.887667
20
378.247924
11
178.334545
21
379.919182
0
LINE
8
boundary
62
5
39
2
10
178.334545
20
379.919182
11
177.658106
21
380.634889
0
LINE
8
boundary
62
5
39
2
10
177.658106
20
380.634889
11
176.051463
21
382.254652
0
LINE
8
boundary
62
5
39
2
10
176.051463
20
382.254652
11
175.352314
21
382.948180
0
LINE
8
boundary
62
5
39
2
10
175.352314
20
382.948180
11
173.693749
21
384.514843
0
LINE
8
boundary
62
5
39
2
10
173.693749
20
384.514843
11
172.972617
21
385.185503
0
LINE
8
boundary
62
5
39
2
10
172.972617
20
385.185503
11
171.263886
21
386.697399
0
LINE
8
boundary
62
5
39
2
10
171.263886
20
386.697399
11
170.521532
21
387.344470
0
LINE
8
boundary
62
5
39
2
10
170.521532
20
387.344470
11
168.764537
21
388.799901
0
LINE
8
boundary
62
5
39
2
10
168.764537
20
388.799901
11
168.001720
21
389.422729
0
LINE
8
boundary
62
5
39
2
10
168.001720
20
389.422729
11
166.198287
21
390.820194
0
LINE
8
boundary
62
5
39
2
10
166.198287
20
390.820194
11
165.415806
21
391.418099
0
LINE
8
boundary
62
5
39
2
10
165.415806
20
391.418099
11
163.567841
21
392.756126
0
LINE
8
boundary
62
5
39
2
10
163.567841
20
392.756126
11
162.766505
21
393.328517
0
LINE
8
boundary
62
5
39
2
10
162.766505
20
393.328517
11
160.876030
21
394.605641
0
LINE
8
boundary
62
5
39
2
10
160.876030
20
394.605641
11
160.056651
21
395.151942
0
LINE
8
boundary
62
5
39
2
10
160.056651
20
395.151942
11
158.125551
21
396.366894
0
LINE
8
boundary
62
5
39
2
10
158.125551
20
396.366894
11
157.289010
21
396.886497
0
LINE
8
boundary
62
5
39
2
10
157.289010
20
396.886497
11
155.319390
21
398.037950
0
LINE
8
boundary
62
5
39
2
10
155.319390
20
398.037950
11
154.466529
21
398.530355
0
LINE
8
boundary
62
5
39
2
10
154.466529
20
398.530355
11
152.460470
21
399.617085
0
LINE
8
boundary
62
5
39
2
10
152.460470
20
399.617085
11
151.592202
21
400.081739
0
LINE
8
boundary
62
5
39
2
10
151.592202
20
400.081739
11
149.551837
21
401.102600
0
LINE
8
boundary
62
5
39
2
10
149.551837
20
401.102600
11
148.669052
21
401.539039
0
LINE
8
boundary
62
5
39
2
10
148.669052
20
401.539039
11
146.596538
21
402.492946
0
LINE
8
boundary
62
5
39
2
10
146.596538
20
402.492946
11
145.700131
21
402.900765
0
LINE
8
boundary
62
5
39
2
10
145.700131
20
402.900765
11
143.597667
21
403.786703
0
LINE
8
boundary
62
5
39
2
10
143.597667
20
403.786703
11
142.688601
21
404.165382
0
LINE
8
boundary
62
5
39
2
10
142.688601
20
404.165382
11
140.558418
21
404.982412
0
LINE
8
boundary
62
5
39
2
10
140.558418
20
404.982412
11
139.637632
21
405.331609
0
LINE
8
boundary
62
5
39
2
10
139.637632
20
405.331609
11
137.481977
21
406.078874
0
LINE
8
boundary
62
5
39
2
10
137.481977
20
406.078874
11
136.550415
21
406.398228
0
LINE
8
boundary
62
5
39
2
10
136.550415
20
406.398228
11
134.371582
21
407.074937
0
LINE
8
boundary
62
5
39
2
10
134.371582
20
407.074937
11
133.430203
21
407.364130
0
LINE
8
boundary
62
5
39
2
10
133.430203
20
407.364130
11
131.230497
21
407.969557
0
LINE
8
boundary
62
5
39
2
10
131.230497
20
407.969557
11
130.280307
21
408.228259
0
LINE
8
boundary
62
5
39
2
10
130.280307
20
408.228259
11
128.061984
21
408.761781
0
LINE
8
boundary
62
5
39
2
10
128.061984
20
408.761781
11
127.103941
21
408.989762
0
LINE
8
boundary
62
5
39
2
10
127.103941
20
408.989762
11
124.869570
21
409.450768
0
LINE
8
boundary
62
5
39
2
10
124.869570
20
409.450768
11
123.904690
21
409.647736
0
LINE
8
boundary
62
5
39
2
10
123.904690
20
409.647736
11
121.656354
21
410.035789
0
LINE
8
boundary
62
5
39
2
10
121.656354
20
410.035789
11
120.685628
21
410.201586
0
LINE
8
boundary
62
5
39
2
10
120.685628
20
410.201586
11
118.425997
21
410.516240
0
LINE
8
boundary
62
5
39
2
10
118.425997
20
410.516240
11
117.450438
21
410.650668
0
LINE
8
boundary
62
5
39
2
10
117.450438
20
410.650668
11
115.181616
21
410.891611
0
LINE
8
boundary
62
5
39
2
10
115.181616
20
410.891611
11
114.202228
21
410.994550
0
LINE
8
boundary
62
5
39
2
10
114.202228
20
410.994550
11
111.926911
21
411.161514
0
LINE
8
boundary
62
5
39
2
10
111.926911
20
411.161514
11
110.944718
21
411.232836
0
LINE
8
boundary
62
5
39
2
10
110.944718
20
411.232836
11
108.665104
21
411.325652
0
LINE
8
boundary
62
5
39
2
10
108.665104
20
411.325652
11
107.681106
21
411.365311
0
LINE
8
boundary
62
5
39
2
10
107.681106
20
411.365311
11
105.399765
21
411.383876
0
LINE
8
boundary
62
5
39
2
10
105.399765
20
411.383876
11
104.415081
21
411.391808
0
LINE
8
boundary
62
5
39
2
10
104.415081
20
411.391808
11
103.430689
21
411.368014
0
LINE
8
boundary
62
5
39
2
10
103.430689
20
411.368014
11
101.150021
21
411.312320
0
LINE
8
boundary
62
5
39
2
10
101.150021
20
411.312320
11
100.166795
21
411.256812
0
LINE
8
boundary
62
5
39
2
10
100.166795
20
411.256812
11
97.888982
21
411.126909
0
LINE
8
boundary
62
5
39
2
10
97.888982
20
411.126909
11
96.908077
21
411.039766
0
LINE
8
boundary
62
5
39
2
10
96.908077
20
411.039766
11
94.635633
21
410.835779
0
LINE
8
boundary
62
5
39
2
10
94.635633
20
410.835779
11
93.658033
21
410.717085
0
LINE
8
boundary
62
5
39
2
10
93.658033
20
410.717085
11
91.393513
21
410.439243
0
LINE
8
boundary
62
5
39
2
10
91.393513
20
410.439243
11
90.420241
21
410.289117
0
LINE
8
boundary
62
5
39
2
10
90.420241
20
410.289117
11
88.166032
21
409.937732
0
LINE
8
boundary
62
5
39
2
10
88.166032
20
409.937732
11
87.198109
21
409.756333
0
LINE
8
boundary
62
5
39
2
10
87.198109
20
409.756333
11
84.956391
21
409.331731
0
LINE
8
boundary
62
5
39
2
10
84.956391
20
409.331731
11
83.994786
21
409.119207
0
LINE
8
boundary
62
5
39
2
10
83.994786
20
409.119207
11
81.768145
21
408.621877
0
LINE
8
boundary
62
5
39
2
10
81.768145
20
408.621877
11
80.813897
21
408.378504
0
LINE
8
boundary
62
5
39
2
10
80.813897
20
408.378504
11
78.604627
21
407.808965
0
LINE
8
boundary
62
5
39
2
10
78.604627
20
407.808965
11
77.658723
21
407.534984
0
LINE
8
boundary
62
5
39
2
10
77.658723
20
407.534984
11
75.469224
21
406.893854
0
LINE
8
boundary
62
5
39
2
10
75.469224
20
406.893854
11
74.532653
21
406.589553
0
LINE
8
boundary
62
5
39
2
10
74.532653
20
406.589553
11
72.365048
21
405.877449
0
LINE
8
boundary
62
5
39
2
10
72.365048
20
405.877449
11
71.438755
21
405.543128
0
LINE
8
boundary
62
5
39
2
10
71.438755
20
405.543128
11
69.295615
21
404.760901
0
LINE
8
boundary
62
5
39
2
10
69.295615
20
404.760901
11
68.380578
21
404.396920
0
LINE
8
boundary
62
5
39
2
10
68.380578
20
404.396920
11
66.263900
21
403.545290
0
LINE
8
boundary
62
5
39
2
10
66.263900
20
403.545290
11
65.361034
21
403.151967
0
LINE
8
boundary
62
5
39
2
10
65.361034
20
403.151967
11
63.273265
21
402.231916
0
LINE
8
boundary
62
5
39
2
10
63.273265
20
402.231916
11
62.383564
21
401.809754
0
LINE
8
boundary
62
5
39
2
10
62.383564
20
401.809754
11
60.326910
21
400.822274
0
LINE
8
boundary
62
5
39
2
10
60.326910
20
400.822274
11
59.451279
21
400.371675
0
LINE
8
boundary
62
5
39
2
10
59.451279
20
400.371675
11
57.427729
21
399.317707
0
LINE
8
boundary
62
5
39
2
10
57.427729
20
399.317707
11
56.567062
21
398.839128
0
LINE
8
boundary
62
5
39
2
10
56.567062
20
398.839128
11
54.578962
21
397.719888
0
LINE
8
boundary
62
5
39
2
10
54.578962
20
397.719888
11
53.734150
21
397.213831
0
LINE
8
boundary
62
5
39
2
10
53.734150
20
397.213831
11
51.783593
21
396.030509
0
LINE
8
boundary
62
5
39
2
10
51.783593
20
396.030509
11
50.955524
21
395.497458
0
LINE
8
boundary
62
5
39
2
10
50.955524
20
395.497458
11
49.044448
21
394.251234
0
LINE
8
boundary
62
5
39
2
10
49.044448
20
394.251234
11
48.233993
21
393.691826
0
LINE
8
boundary
62
5
39
2
10
48.233993
20
393.691826
11
46.364437
21
392.384018
0
LINE
8
boundary
62
5
39
2
10
46.364437
20
392.384018
11
45.572417
21
391.798781
0
LINE
8
boundary
62
5
39
2
10
45.572417
20
391.798781
11
43.746487
21
390.430846
0
LINE
8
boundary
62
5
39
2
10
43.746487
20
390.430846
11
42.973733
21
389.820409
0
LINE
8
boundary
62
5
39
2
10
42.973733
20
389.820409
11
41.193296
21
388.393781
0
LINE
8
boundary
62
5
39
2
10
41.193296
20
388.393781
11
40.440600
21
387.758759
0
LINE
8
boundary
62
5
39
2
10
40.440600
20
387.758759
11
38.707592
21
386.274971
0
LINE
8
boundary
62
5
39
2
10
38.707592
20
386.274971
11
37.975752
21
385.615990
0
LINE
8
boundary
62
5
39
2
10
37.975752
20
385.615990
11
36.291849
21
384.076485
0
LINE
8
boundary
62
5
39
2
10
36.291849
20
384.076485
11
35.581618
21
383.394309
0
LINE
8
boundary
62
5
39
2
10
35.581618
20
383.394309
11
33.948780
21
381.800857
0
LINE
8
boundary
62
5
39
2
10
33.948780
20
381.800857
11
33.260897
21
381.096153
0
LINE
8
boundary
62
5
39
2
10
33.260897
20
381.096153
11
31.680831
21
379.450451
0
LINE
8
boundary
62
5
39
2
10
31.680831
20
379.450451
11
31.016012
21
378.723961
0
LINE
8
boundary
62
5
39
2
10
31.016012
20
378.723961
11
29.490295
21
377.027647
0
LINE
8
boundary
62
5
39
2
10
29.490295
20
377.027647
11
28.849219
21
376.280121
0
LINE
8
boundary
62
5
39
2
10
28.849219
20
376.280121
11
27.379538
21
374.535040
0
LINE
8
boundary
62
5
39
2
10
27.379538
20
374.535040
11
26.762884
21
373.767197
0
LINE
8
boundary
62
5
39
2
10
26.762884
20
373.767197
11
25.350728
21
371.975152
0
LINE
8
boundary
62
5
39
2
10
25.350728
20
371.975152
11
24.759124
21
371.187879
0
LINE
8
boundary
62
5
39
2
10
24.759124
20
371.187879
11
23.406105
21
369.350876
0
LINE
8
boundary
62
5
39
2
10
23.406105
20
369.350876
11
22.840168
21
368.544954
0
LINE
8
boundary
62
5
39
2
10
22.840168
20
368.544954
11
21.547687
21
366.664941
0
LINE
8
boundary
62
5
39
2
10
21.547687
20
366.664941
11
21.008014
21
365.841215
0
LINE
8
boundary
62
5
39
2
10
21.008014
20
365.841215
11
19.777338
21
363.920011
0
LINE
8
boundary
62
5
39
2
10
19.777338
20
363.920011
11
19.264473
21
363.079315
0
LINE
8
boundary
62
5
39
2
10
19.264473
20
363.079315
11
18.097062
21
361.119193
0
LINE
8
boundary
62
5
39
2
10
18.097062
20
361.119193
11
17.611561
21
360.262379
0
LINE
8
boundary
62
5
39
2
10
17.611561
20
360.262379
11
16.508528
21
358.265227
0
LINE
8
boundary
62
5
39
2
10
16.508528
20
358.265227
11
16.050880
21
357.393259
0
LINE
8
boundary
62
5
39
2
10
16.050880
20
357.393259
11
15.013405
21
355.361201
0
LINE
8
boundary
62
5
39
2
10
15.013405
20
355.361201
11
14.584077
21
354.474933
0
LINE
8
boundary
62
5
39
2
10
14.584077
20
354.474933
11
13.613332
21
352.410257
0
LINE
8
boundary
62
5
39
2
10
13.613332
20
352.410257
11
13.212776
21
351.510617
0
LINE
8
boundary
62
5
39
2
10
13.212776
20
351.510617
11
12.309767
21
349.415497
0
LINE
8
boundary
62
5
39
2
10
12.309767
20
349.415497
11
11.938404
21
348.503429
0
LINE
8
boundary
62
5
39
2
10
11.938404
20
348.503429
11
11.104049
21
346.379958
0
LINE
8
boundary
62
5
39
2
10
11.104049
20
346.379958
11
10.762280
21
345.456361
0
LINE
8
boundary
62
5
39
2
10
10.762280
20
345.456361
11
9.997482
21
343.306852
0
LINE
8
boundary
62
5
39
2
10
9.997482
20
343.306852
11
9.685632
21
342.372762
0
LINE
8
boundary
62
5
39
2
10
9.685632
20
342.372762
11
8.991205
21
340.199499
0
LINE
8
boundary
62
5
39
2
10
8.991205
20
340.199499
11
8.709606
21
339.255849
0
LINE
8
boundary
62
5
39
2
10
8.709606
20
339.255849
11
8.086271
21
337.061075
0
LINE
8
boundary
62
5
39
2
10
8.086271
20
337.061075
11
7.835218
21
336.108833
0
LINE
8
boundary
62
5
39
2
10
7.835218
20
336.108833
11
7.283676
21
333.895005
0
LINE
8
boundary
62
5
39
2
10
7.283676
20
333.895005
11
7.063422
21
332.935166
0
LINE
8
boundary
62
5
39
2
10
7.063422
20
332.935166
11
6.584223
21
330.704560
0
LINE
8
boundary
62
5
39
2
10
6.584223
20
330.704560
11
6.395034
21
329.738086
0
LINE
8
boundary
62
5
39
2
10
6.395034
20
329.738086
11
5.988690
21
327.493062
0
LINE
8
boundary
62
5
39
2
10
5.988690
20
327.493062
11
5.830714
21
326.521033
0
LINE
8
boundary
62
5
39
2
10
5.830714
20
326.521033
11
5.497680
21
324.264034
0
LINE
8
boundary
62
5
39
2
10
5.497680
20
324.264034
11
5.371112
21
323.287432
0
LINE
8
boundary
62
5
39
2
10
5.371112
20
323.287432
11
5.111704
21
321.020714
0
LINE
8
boundary
62
5
39
2
10
5.111704
20
321.020714
11
5.016651
21
320.040544
0
LINE
8
boundary
62
5
39
2
10
5.016651
20
320.040544
11
4.831157
21
317.766523
0
LINE
8
boundary
62
5
39
2
10
4.831157
20
317.766523
11
4.767730
21
316.783785
0
LINE
8
boundary
62
5
39
2
10
4.767730
20
316.783785
11
4.656360
21
314.505007
0
LINE
8
boundary
62
5
39
2
10
4.656360
20
314.505007
11
4.624645
21
313.520708
0
LINE
8
boundary
62
5
39
2
10
4.624645
20
313.520708
11
4.587500
21
311.239569
0
LINE
8
boundary
62
5
39
2
10
4.587500
20
311.239569
11
4.587504
21
310.254785
0
LINE
8
boundary
62
5
39
2
10
4.587504
20
310.254785
11
4.624637
21
307.973572
0
LINE
8
boundary
62
5
39
2
10
4.624637
20
307.973572
11
4.656362
21
306.989315
0
LINE
8
boundary
62
5
39
2
10
4.656362
20
306.989315
11
4.767728
21
304.710459
0
LINE
8
boundary
62
5
39
2
10
4.767728
20
304.710459
11
4.831140
21
303.727724
0
LINE
8
boundary
62
5
39
2
10
4.831140
20
303.727724
11
5.016627
21
301.453774
0
LINE
8
boundary
62
5
39
2
10
5.016627
20
301.453774
11
5.111662
21
300.473593
0
LINE
8
boundary
62
5
39
2
10
5.111662
20
300.473593
11
5.371045
21
298.206948
0
LINE
8
boundary
62
5
39
2
10
5.371045
20
298.206948
11
5.497603
21
297.230345
0
LINE
8
boundary
62
5
39
2
10
5.497603
20
297.230345
11
5.830639
21
294.973272
0
LINE
8
boundary
62
5
39
2
10
5.830639
20
294.973272
11
5.988633
21
294.001220
0
LINE
8
boundary
62
5
39
2
10
5.988633
20
294.001220
11
6.394970
21
291.756181
0
LINE
8
boundary
62
5
39
2
10
6.394970
20
291.756181
11
6.584168
21
290.789758
0
LINE
8
boundary
62
5
39
2
10
6.584168
20
290.789758
11
7.063357
21
288.559132
0
LINE
8
boundary
62
5
39
2
10
7.063357
20
288.559132
11
7.283588
21
287.599308
0
LINE
8
boundary
62
5
39
2
10
7.283588
20
287.599308
11
7.835150
21
285.385405
0
LINE
8
boundary
62
5
39
2
10
7.835150
20
285.385405
11
8.086184
21
284.433161
0
LINE
8
boundary
62
5
39
2
10
8.086184
20
284.433161
11
8.709491
21
282.238458
0
LINE
8
boundary
62
5
39
2
10
8.709491
20
282.238458
11
8.991074
21
281.294792
0
LINE
8
boundary
62
5
39
2
10
8.991074
20
281.294792
11
9.685488
21
279.121540
0
LINE
8
boundary
62
5
39
2
10
9.685488
20
279.121540
11
9.997369
21
278.187408
0
LINE
8
boundary
62
5
39
2
10
9.997369
20
278.187408
11
10.762156
21
276.037906
0
LINE
8
boundary
62
5
39
2
10
10.762156
20
276.037906
11
11.103932
21
275.114337
0
LINE
8
boundary
62
5
39
2
10
11.103932
20
275.114337
11
11.938246
21
272.990922
0
LINE
8
boundary
62
5
39
2
10
11.938246
20
272.990922
11
12.309592
21
272.078853
0
LINE
8
boundary
62
5
39
2
10
12.309592
20
272.078853
11
13.212626
21
269.983658
0
LINE
8
boundary
62
5
39
2
10
13.212626
20
269.983658
11
13.613158
21
269.084026
0
LINE
8
boundary
62
5
39
2
10
13.613158
20
269.084026
11
14.583930
21
267.019281
0
LINE
8
boundary
62
5
39
2
10
14.583930
20
267.019281
11
15.013239
21
266.133005
0
LINE
8
boundary
62
5
39
2
10
15.013239
20
266.133005
11
16.050666
21
264.101014
0
LINE
8
boundary
62
5
39
2
10
16.050666
20
264.101014
11
16.508353
21
263.229007
0
LINE
8
boundary
62
5
39
2
10
16.508353
20
263.229007
11
17.611342
21
261.231913
0
LINE
8
boundary
62
5
39
2
10
17.611342
20
261.231913
11
18.096838
21
260.375137
0
LINE
8
boundary
62
5
39
2
10
18.096838
20
260.375137
11
19.264316
21
258.414888
0
LINE
8
boundary
62
5
39
2
10
19.264316
20
258.414888
11
19.777166
21
257.574190
0
LINE
8
boundary
62
5
39
2
10
19.777166
20
257.574190
11
21.007764
21
255.653094
0
LINE
8
boundary
62
5
39
2
10
21.007764
20
255.653094
11
21.547419
21
254.829360
0
LINE
8
boundary
62
5
39
2
10
21.547419
20
254.829360
11
22.839933
21
252.949280
0
LINE
8
boundary
62
5
39
2
10
22.839933
20
252.949280
11
23.405846
21
252.143355
0
LINE
8
boundary
62
5
39
2
10
23.405846
20
252.143355
11
24.758899
21
250.306295
0
LINE
8
boundary
62
5
39
2
10
24.758899
20
250.306295
11
25.350537
21
249.519003
0
LINE
8
boundary
62
5
39
2
10
25.350537
20
249.519003
11
26.762643
21
247.727012
0
LINE
8
boundary
62
5
39
2
10
26.762643
20
247.727012
11
27.379293
21
246.959199
0
LINE
8
boundary
62
5
39
2
10
27.379293
20
246.959199
11
28.848961
21
245.214119
0
LINE
8
boundary
62
5
39
2
10
28.848961
20
245.214119
11
29.490030
21
244.466573
0
LINE
8
boundary
62
5
39
2
10
29.490030
20
244.466573
11
31.015695
21
242.770301
0
LINE
8
boundary
62
5
39
2
10
31.015695
20
242.770301
11
31.680499
21
242.043801
0
LINE
8
boundary
62
5
39
2
10
31.680499
20
242.043801
11
33.260604
21
240.398038
0
LINE
8
boundary
62
5
39
2
10
33.260604
20
240.398038
11
33.948470
21
239.693329
0
LINE
8
boundary
62
5
39
2
10
33.948470
20
239.693329
11
35.581355
21
238.099827
0
LINE
8
boundary
62
5
39
2
10
35.581355
20
238.099827
11
36.291620
21
237.417633
0
LINE
8
annotation
62
1
39
211
10
185.276444
20
310.746945
11
185.276444
21
312.175695
0
LINE
8
annotation
62
1
39
211
10
185.276444
20
310.746945
11
185.276444
21
312.175695
0
LINE
8
annotation
62
1
39
211
10
185.276444
20
312.175695
11
185.276444
21
310.746945
0
LINE
8
annotation
62
1
39
211
10
185.276444
20
310.746945
11
185.276444
21
309.318195
0
LINE
8
annotation
62
1
39
211
10
25.173695
20
310.746945
11
26.602444
21
310.746945
0
LINE
8
annotation
62
1
39
211
10
25.173695
20
310.746945
11
26.602444
21
310.746945
0
LINE
8
annotation
62
1
39
211
10
26.602444
20
310.746945
11
25.173695
21
310.746945
0
LINE
8
annotation
62
1
39
211
10
25.173695
20
310.746945
11
25.173694
21
309.318195
0
LINE
8
annotation
62
1
39
211
10
105.229037
20
391.262837
11
105.229037
21
392.691587
0
LINE
8
annotation
62
1
39
211
10
105.229037
20
230.231071
11
106.657787
21
230.231071
0
LINE
8
annotation
62
1
39
211
10
191.910006
20
305.842653
11
175.814107
21
305.842653
0
LINE
8
annotation
62
1
39
211
10
175.814107
20
305.842653
11
182.242286
21
328.386729
0
LINE
8
annotation
62
1
39
211
10
187.085236
20
299.398112
11
187.085236
21
312.272650
0
LINE
8
frame
62
5
39
2
10
0.000000
20
0.000000
11
300.000000
21
0.000000
0
LINE
8
frame
62
5
39
2
10
300.000000
20
0.000000
11
300.000000
21
600.000000
0
LINE
8
frame
62
5
39
2
10
300.000000
20
600.000000
11
0.000000
21
600.000000
0
LINE
8
frame
62
5
39
2
10
0.000000
20
600.000000
11
0.000000
21
0.000000
0
ENDSEC
0
EOF
